solid OpenSCAD_Model
  facet normal -6.12323e-17 0 1
    outer loop
      vertex 3.09789 -8.61803 1.89691e-16
      vertex 0 0 0
      vertex 1.83697e-15 -30 1.12482e-31
    endloop
  endfacet
  facet normal -6.12323e-17 0 1
    outer loop
      vertex 3.09789 -8.61803 1.89691e-16
      vertex 3.02462 -8.31287 1.85205e-16
      vertex 0 0 0
    endloop
  endfacet
  facet normal -6.12323e-17 0 1
    outer loop
      vertex 5.8 -30 3.55148e-16
      vertex 5.8 -9.82674 3.55148e-16
      vertex 1.83697e-15 -30 1.12482e-31
    endloop
  endfacet
  facet normal -6.12323e-17 0 1
    outer loop
      vertex 5.8 -9.82674 3.55148e-16
      vertex 5.61803 -9.90211 3.44005e-16
      vertex 1.83697e-15 -30 1.12482e-31
    endloop
  endfacet
  facet normal -6.12323e-17 0 1
    outer loop
      vertex 5.61803 -9.90211 3.44005e-16
      vertex 5.31287 -9.97538 3.25319e-16
      vertex 1.83697e-15 -30 1.12482e-31
    endloop
  endfacet
  facet normal -6.12323e-17 0 1
    outer loop
      vertex 5.31287 -9.97538 3.25319e-16
      vertex 5 -10 3.06162e-16
      vertex 1.83697e-15 -30 1.12482e-31
    endloop
  endfacet
  facet normal -6.12323e-17 0 1
    outer loop
      vertex 5.61803 -6.09789 3.44005e-16
      vertex 5.8 -6.17326 3.55148e-16
      vertex 5.8 3.55148e-16 3.55148e-16
    endloop
  endfacet
  facet normal -6.12323e-17 0 1
    outer loop
      vertex 5 -10 3.06162e-16
      vertex 4.68713 -9.97538 2.87004e-16
      vertex 1.83697e-15 -30 1.12482e-31
    endloop
  endfacet
  facet normal -6.12323e-17 0 1
    outer loop
      vertex 4.68713 -9.97538 2.87004e-16
      vertex 4.38197 -9.90211 2.68318e-16
      vertex 1.83697e-15 -30 1.12482e-31
    endloop
  endfacet
  facet normal -6.12323e-17 0 1
    outer loop
      vertex 4.38197 -9.90211 2.68318e-16
      vertex 4.09202 -9.78201 2.50564e-16
      vertex 1.83697e-15 -30 1.12482e-31
    endloop
  endfacet
  facet normal -6.12323e-17 0 1
    outer loop
      vertex 5 -6 3.06162e-16
      vertex 5.31287 -6.02462 3.25319e-16
      vertex 5.8 3.55148e-16 3.55148e-16
    endloop
  endfacet
  facet normal -6.12323e-17 0 1
    outer loop
      vertex 3.82443 -9.61803 2.34179e-16
      vertex 3.58579 -9.41421 2.19566e-16
      vertex 1.83697e-15 -30 1.12482e-31
    endloop
  endfacet
  facet normal -6.12323e-17 0 1
    outer loop
      vertex 3.58579 -9.41421 2.19566e-16
      vertex 3.38197 -9.17557 2.07086e-16
      vertex 1.83697e-15 -30 1.12482e-31
    endloop
  endfacet
  facet normal -6.12323e-17 0 1
    outer loop
      vertex 3.38197 -9.17557 2.07086e-16
      vertex 3.21799 -8.90798 1.97045e-16
      vertex 1.83697e-15 -30 1.12482e-31
    endloop
  endfacet
  facet normal -6.12323e-17 0 1
    outer loop
      vertex 3.21799 -8.90798 1.97045e-16
      vertex 3.09789 -8.61803 1.89691e-16
      vertex 1.83697e-15 -30 1.12482e-31
    endloop
  endfacet
  facet normal -6.12323e-17 0 1
    outer loop
      vertex 3.02462 -8.31287 1.85205e-16
      vertex 3 -8 1.83697e-16
      vertex 0 0 0
    endloop
  endfacet
  facet normal -6.12323e-17 0 1
    outer loop
      vertex 3 -8 1.83697e-16
      vertex 3.02462 -7.68713 1.85205e-16
      vertex 0 0 0
    endloop
  endfacet
  facet normal -6.12323e-17 0 1
    outer loop
      vertex 3.02462 -7.68713 1.85205e-16
      vertex 3.09789 -7.38197 1.89691e-16
      vertex 0 0 0
    endloop
  endfacet
  facet normal -6.12323e-17 0 1
    outer loop
      vertex 4.38197 -6.09789 2.68318e-16
      vertex 4.68713 -6.02462 2.87004e-16
      vertex 5.8 3.55148e-16 3.55148e-16
    endloop
  endfacet
  facet normal -6.12323e-17 0 1
    outer loop
      vertex 5.8 3.55148e-16 3.55148e-16
      vertex 0 0 0
      vertex 3.09789 -7.38197 1.89691e-16
    endloop
  endfacet
  facet normal -6.12323e-17 0 1
    outer loop
      vertex 5.8 3.55148e-16 3.55148e-16
      vertex 3.09789 -7.38197 1.89691e-16
      vertex 3.21799 -7.09202 1.97045e-16
    endloop
  endfacet
  facet normal -6.12323e-17 0 1
    outer loop
      vertex 5.8 3.55148e-16 3.55148e-16
      vertex 3.21799 -7.09202 1.97045e-16
      vertex 3.38197 -6.82443 2.07086e-16
    endloop
  endfacet
  facet normal -6.12323e-17 0 1
    outer loop
      vertex 5.8 3.55148e-16 3.55148e-16
      vertex 3.38197 -6.82443 2.07086e-16
      vertex 3.58579 -6.58579 2.19566e-16
    endloop
  endfacet
  facet normal -6.12323e-17 0 1
    outer loop
      vertex 5.8 3.55148e-16 3.55148e-16
      vertex 3.58579 -6.58579 2.19566e-16
      vertex 3.82443 -6.38197 2.34179e-16
    endloop
  endfacet
  facet normal -6.12323e-17 0 1
    outer loop
      vertex 5.8 3.55148e-16 3.55148e-16
      vertex 3.82443 -6.38197 2.34179e-16
      vertex 4.09202 -6.21799 2.50564e-16
    endloop
  endfacet
  facet normal -6.12323e-17 0 1
    outer loop
      vertex 5.8 3.55148e-16 3.55148e-16
      vertex 4.09202 -6.21799 2.50564e-16
      vertex 4.38197 -6.09789 2.68318e-16
    endloop
  endfacet
  facet normal -6.12323e-17 0 1
    outer loop
      vertex 4.68713 -6.02462 2.87004e-16
      vertex 5 -6 3.06162e-16
      vertex 5.8 3.55148e-16 3.55148e-16
    endloop
  endfacet
  facet normal -6.12323e-17 0 1
    outer loop
      vertex 5.31287 -6.02462 3.25319e-16
      vertex 5.61803 -6.09789 3.44005e-16
      vertex 5.8 3.55148e-16 3.55148e-16
    endloop
  endfacet
  facet normal -6.12323e-17 0 1
    outer loop
      vertex 4.09202 -9.78201 2.50564e-16
      vertex 3.82443 -9.61803 2.34179e-16
      vertex 1.83697e-15 -30 1.12482e-31
    endloop
  endfacet
  facet normal -1 -6.12323e-17 -6.12323e-17
    outer loop
      vertex 0 0 0
      vertex 4.59243e-16 0 -7.5
      vertex 1.83697e-15 -30 1.12482e-31
    endloop
  endfacet
  facet normal -1 -6.12323e-17 -6.12323e-17
    outer loop
      vertex 1.83697e-15 -30 1.12482e-31
      vertex 4.59243e-16 0 -7.5
      vertex 2.29621e-15 -30 -7.5
    endloop
  endfacet
  facet normal -6.12323e-17 1 -3.7494e-33
    outer loop
      vertex 0 0 0
      vertex 5.8 3.55148e-16 3.55148e-16
      vertex 4.59243e-16 0 -7.5
    endloop
  endfacet
  facet normal -6.12323e-17 1 -3.7494e-33
    outer loop
      vertex 4.59243e-16 0 -7.5
      vertex 5.8 3.55148e-16 3.55148e-16
      vertex 5.8 3.55148e-16 -2
    endloop
  endfacet
  facet normal -6.12323e-17 1 -3.7494e-33
    outer loop
      vertex 4.59243e-16 0 -7.5
      vertex 5.8 3.55148e-16 -2
      vertex 5.85171 3.58314e-16 -2.65702
    endloop
  endfacet
  facet normal -6.12323e-17 1 -3.7494e-33
    outer loop
      vertex 5.85171 3.58314e-16 -2.65702
      vertex 6.00556 3.67735e-16 -3.29787
      vertex 4.59243e-16 0 -7.5
    endloop
  endfacet
  facet normal -6.12323e-17 1 -3.7494e-33
    outer loop
      vertex 6.00556 3.67735e-16 -3.29787
      vertex 6.25777 3.83178e-16 -3.90676
      vertex 4.59243e-16 0 -7.5
    endloop
  endfacet
  facet normal -6.12323e-17 1 -3.7494e-33
    outer loop
      vertex 6.25777 3.83178e-16 -3.90676
      vertex 6.60213 4.04264e-16 -4.4687
      vertex 4.59243e-16 0 -7.5
    endloop
  endfacet
  facet normal -6.12323e-17 1 -3.7494e-33
    outer loop
      vertex 6.60213 4.04264e-16 -4.4687
      vertex 7.03015 4.30473e-16 -4.96985
      vertex 4.59243e-16 0 -7.5
    endloop
  endfacet
  facet normal -6.12323e-17 1 -3.7494e-33
    outer loop
      vertex 7.03015 4.30473e-16 -4.96985
      vertex 7.5313 4.61159e-16 -5.39787
      vertex 4.59243e-16 0 -7.5
    endloop
  endfacet
  facet normal -6.12323e-17 1 -3.7494e-33
    outer loop
      vertex 7.5313 4.61159e-16 -5.39787
      vertex 8.09324 4.95568e-16 -5.74223
      vertex 4.59243e-16 0 -7.5
    endloop
  endfacet
  facet normal -6.12323e-17 1 -3.7494e-33
    outer loop
      vertex 8.09324 4.95568e-16 -5.74223
      vertex 8.70213 5.32852e-16 -5.99444
      vertex 4.59243e-16 0 -7.5
    endloop
  endfacet
  facet normal -6.12323e-17 1 -3.7494e-33
    outer loop
      vertex 8.70213 5.32852e-16 -5.99444
      vertex 9.34297 5.72092e-16 -6.14829
      vertex 4.59243e-16 0 -7.5
    endloop
  endfacet
  facet normal -6.12323e-17 1 -3.7494e-33
    outer loop
      vertex 9.34297 5.72092e-16 -6.14829
      vertex 10 6.12323e-16 -6.2
      vertex 4.59243e-16 0 -7.5
    endloop
  endfacet
  facet normal -6.12323e-17 1 -3.7494e-33
    outer loop
      vertex 10 6.12323e-16 -6.2
      vertex 10.657 6.52555e-16 -6.14829
      vertex 4.59243e-16 0 -7.5
    endloop
  endfacet
  facet normal -6.12323e-17 1 -3.7494e-33
    outer loop
      vertex 10.657 6.52555e-16 -6.14829
      vertex 20 1.22465e-15 -7.5
      vertex 4.59243e-16 0 -7.5
    endloop
  endfacet
  facet normal -6.12323e-17 1 -3.7494e-33
    outer loop
      vertex 11.2979 6.91795e-16 -5.99444
      vertex 20 1.22465e-15 -7.5
      vertex 10.657 6.52555e-16 -6.14829
    endloop
  endfacet
  facet normal -6.12323e-17 1 -3.7494e-33
    outer loop
      vertex 11.9068 7.29079e-16 -5.74223
      vertex 20 1.22465e-15 -7.5
      vertex 11.2979 6.91795e-16 -5.99444
    endloop
  endfacet
  facet normal -6.12323e-17 1 -3.7494e-33
    outer loop
      vertex 12.9698 7.94174e-16 -4.96985
      vertex 20 1.22465e-15 1.22465e-15
      vertex 12.4687 7.63488e-16 -5.39787
    endloop
  endfacet
  facet normal -6.12323e-17 1 -3.7494e-33
    outer loop
      vertex 13.3979 8.20383e-16 -4.4687
      vertex 20 1.22465e-15 1.22465e-15
      vertex 12.9698 7.94174e-16 -4.96985
    endloop
  endfacet
  facet normal -6.12323e-17 1 -3.7494e-33
    outer loop
      vertex 13.7422 8.41469e-16 -3.90676
      vertex 20 1.22465e-15 1.22465e-15
      vertex 13.3979 8.20383e-16 -4.4687
    endloop
  endfacet
  facet normal -6.12323e-17 1 -3.7494e-33
    outer loop
      vertex 13.9944 8.56912e-16 -3.29787
      vertex 20 1.22465e-15 1.22465e-15
      vertex 13.7422 8.41469e-16 -3.90676
    endloop
  endfacet
  facet normal -6.12323e-17 1 -3.7494e-33
    outer loop
      vertex 14.1483 8.66333e-16 -2.65702
      vertex 20 1.22465e-15 1.22465e-15
      vertex 13.9944 8.56912e-16 -3.29787
    endloop
  endfacet
  facet normal -6.12323e-17 1 -3.7494e-33
    outer loop
      vertex 14.2 8.69499e-16 -2
      vertex 14.2 8.69499e-16 8.69499e-16
      vertex 20 1.22465e-15 1.22465e-15
    endloop
  endfacet
  facet normal -6.12323e-17 1 -3.7494e-33
    outer loop
      vertex 14.2 8.69499e-16 -2
      vertex 20 1.22465e-15 1.22465e-15
      vertex 14.1483 8.66333e-16 -2.65702
    endloop
  endfacet
  facet normal -6.12323e-17 1 -3.7494e-33
    outer loop
      vertex 12.4687 7.63488e-16 -5.39787
      vertex 20 1.22465e-15 1.22465e-15
      vertex 20 1.22465e-15 -7.5
    endloop
  endfacet
  facet normal -6.12323e-17 1 -3.7494e-33
    outer loop
      vertex 12.4687 7.63488e-16 -5.39787
      vertex 20 1.22465e-15 -7.5
      vertex 11.9068 7.29079e-16 -5.74223
    endloop
  endfacet
  facet normal 1 6.12323e-17 6.12323e-17
    outer loop
      vertex 5.8 -6.17326 3.55148e-16
      vertex 5.8 -6.17326 -2
      vertex 5.8 3.55148e-16 -2
    endloop
  endfacet
  facet normal 1 6.12323e-17 6.12323e-17
    outer loop
      vertex 5.8 3.55148e-16 3.55148e-16
      vertex 5.8 -6.17326 3.55148e-16
      vertex 5.8 3.55148e-16 -2
    endloop
  endfacet
  facet normal -0.382683 -0.92388 3.31387e-17
    outer loop
      vertex 5.61803 -6.09789 -7.5
      vertex 5.90798 -6.21799 -7.5
      vertex 5.90798 -6.21799 -2.89141
    endloop
  endfacet
  facet normal -0.382683 -0.92388 3.31387e-17
    outer loop
      vertex 5.8 -6.17326 -2
      vertex 5.61803 -6.09789 -7.5
      vertex 5.85171 -6.19468 -2.65702
    endloop
  endfacet
  facet normal -0.382683 -0.92388 3.31387e-17
    outer loop
      vertex 5.85171 -6.19468 -2.65702
      vertex 5.61803 -6.09789 -7.5
      vertex 5.90798 -6.21799 -2.89141
    endloop
  endfacet
  facet normal -0.382683 -0.92388 3.31387e-17
    outer loop
      vertex 5.8 -6.17326 3.55148e-16
      vertex 5.61803 -6.09789 -7.5
      vertex 5.8 -6.17326 -2
    endloop
  endfacet
  facet normal -0.382683 -0.92388 3.31387e-17
    outer loop
      vertex 5.61803 -6.09789 3.44005e-16
      vertex 5.61803 -6.09789 -7.5
      vertex 5.8 -6.17326 3.55148e-16
    endloop
  endfacet
  facet normal -0.233446 -0.97237 4.5246e-17
    outer loop
      vertex 5.31287 -6.02462 -7.5
      vertex 5.61803 -6.09789 -7.5
      vertex 5.61803 -6.09789 3.44005e-16
    endloop
  endfacet
  facet normal -0.233446 -0.97237 4.5246e-17
    outer loop
      vertex 5.31287 -6.02462 3.25319e-16
      vertex 5.31287 -6.02462 -7.5
      vertex 5.61803 -6.09789 3.44005e-16
    endloop
  endfacet
  facet normal -0.0784581 -0.996917 5.62394e-17
    outer loop
      vertex 5 -6 -7.5
      vertex 5.31287 -6.02462 -7.5
      vertex 5.31287 -6.02462 3.25319e-16
    endloop
  endfacet
  facet normal -0.0784581 -0.996917 5.62394e-17
    outer loop
      vertex 5 -6 3.06162e-16
      vertex 5 -6 -7.5
      vertex 5.31287 -6.02462 3.25319e-16
    endloop
  endfacet
  facet normal 0.0784581 -0.996917 6.58478e-17
    outer loop
      vertex 4.68713 -6.02462 -7.5
      vertex 5 -6 -7.5
      vertex 5 -6 3.06162e-16
    endloop
  endfacet
  facet normal 0.0784581 -0.996917 6.58478e-17
    outer loop
      vertex 4.68713 -6.02462 2.87004e-16
      vertex 4.68713 -6.02462 -7.5
      vertex 5 -6 3.06162e-16
    endloop
  endfacet
  facet normal 0.233446 -0.97237 7.38349e-17
    outer loop
      vertex 4.38197 -6.09789 -7.5
      vertex 4.68713 -6.02462 -7.5
      vertex 4.68713 -6.02462 2.87004e-16
    endloop
  endfacet
  facet normal 0.233446 -0.97237 7.38349e-17
    outer loop
      vertex 4.38197 -6.09789 2.68318e-16
      vertex 4.38197 -6.09789 -7.5
      vertex 4.68713 -6.02462 2.87004e-16
    endloop
  endfacet
  facet normal 0.382683 -0.92388 8.00039e-17
    outer loop
      vertex 4.09202 -6.21799 -7.5
      vertex 4.38197 -6.09789 -7.5
      vertex 4.38197 -6.09789 2.68318e-16
    endloop
  endfacet
  facet normal 0.382683 -0.92388 8.00039e-17
    outer loop
      vertex 4.09202 -6.21799 2.50564e-16
      vertex 4.09202 -6.21799 -7.5
      vertex 4.38197 -6.09789 2.68318e-16
    endloop
  endfacet
  facet normal 0.522498 -0.852641 8.42029e-17
    outer loop
      vertex 3.82443 -6.38197 -7.5
      vertex 4.09202 -6.21799 -7.5
      vertex 4.09202 -6.21799 2.50564e-16
    endloop
  endfacet
  facet normal 0.522498 -0.852641 8.42029e-17
    outer loop
      vertex 3.82443 -6.38197 2.34179e-16
      vertex 3.82443 -6.38197 -7.5
      vertex 4.09202 -6.21799 2.50564e-16
    endloop
  endfacet
  facet normal 0.649447 -0.760407 8.63287e-17
    outer loop
      vertex 3.58579 -6.58579 -7.5
      vertex 3.82443 -6.38197 -7.5
      vertex 3.82443 -6.38197 2.34179e-16
    endloop
  endfacet
  facet normal 0.649447 -0.760407 8.63287e-17
    outer loop
      vertex 3.58579 -6.58579 2.19566e-16
      vertex 3.58579 -6.58579 -7.5
      vertex 3.82443 -6.38197 2.34179e-16
    endloop
  endfacet
  facet normal 0.760407 -0.649447 8.63287e-17
    outer loop
      vertex 3.38197 -6.82443 -7.5
      vertex 3.58579 -6.58579 -7.5
      vertex 3.58579 -6.58579 2.19566e-16
    endloop
  endfacet
  facet normal 0.760407 -0.649447 8.63287e-17
    outer loop
      vertex 3.38197 -6.82443 2.07086e-16
      vertex 3.38197 -6.82443 -7.5
      vertex 3.58579 -6.58579 2.19566e-16
    endloop
  endfacet
  facet normal 0.852641 -0.522498 8.42029e-17
    outer loop
      vertex 3.21799 -7.09202 -7.5
      vertex 3.38197 -6.82443 -7.5
      vertex 3.38197 -6.82443 2.07086e-16
    endloop
  endfacet
  facet normal 0.852641 -0.522498 8.42029e-17
    outer loop
      vertex 3.21799 -7.09202 1.97045e-16
      vertex 3.21799 -7.09202 -7.5
      vertex 3.38197 -6.82443 2.07086e-16
    endloop
  endfacet
  facet normal 0.92388 -0.382683 8.00039e-17
    outer loop
      vertex 3.09789 -7.38197 -7.5
      vertex 3.21799 -7.09202 -7.5
      vertex 3.21799 -7.09202 1.97045e-16
    endloop
  endfacet
  facet normal 0.92388 -0.382683 8.00039e-17
    outer loop
      vertex 3.09789 -7.38197 1.89691e-16
      vertex 3.09789 -7.38197 -7.5
      vertex 3.21799 -7.09202 1.97045e-16
    endloop
  endfacet
  facet normal 0.97237 -0.233446 7.38349e-17
    outer loop
      vertex 3.02462 -7.68713 -7.5
      vertex 3.09789 -7.38197 -7.5
      vertex 3.09789 -7.38197 1.89691e-16
    endloop
  endfacet
  facet normal 0.97237 -0.233446 7.38349e-17
    outer loop
      vertex 3.02462 -7.68713 1.85205e-16
      vertex 3.02462 -7.68713 -7.5
      vertex 3.09789 -7.38197 1.89691e-16
    endloop
  endfacet
  facet normal 0.996917 -0.0784581 6.58478e-17
    outer loop
      vertex 3 -8 -7.5
      vertex 3.02462 -7.68713 -7.5
      vertex 3.02462 -7.68713 1.85205e-16
    endloop
  endfacet
  facet normal 0.996917 -0.0784581 6.58478e-17
    outer loop
      vertex 3 -8 1.83697e-16
      vertex 3 -8 -7.5
      vertex 3.02462 -7.68713 1.85205e-16
    endloop
  endfacet
  facet normal 0.996917 0.0784581 5.62394e-17
    outer loop
      vertex 3.02462 -8.31287 1.85205e-16
      vertex 3.02462 -8.31287 -7.5
      vertex 3 -8 -7.5
    endloop
  endfacet
  facet normal 0.996917 0.0784581 5.62394e-17
    outer loop
      vertex 3 -8 1.83697e-16
      vertex 3.02462 -8.31287 1.85205e-16
      vertex 3 -8 -7.5
    endloop
  endfacet
  facet normal 0.97237 0.233446 4.5246e-17
    outer loop
      vertex 3.09789 -8.61803 1.89691e-16
      vertex 3.09789 -8.61803 -7.5
      vertex 3.02462 -8.31287 -7.5
    endloop
  endfacet
  facet normal 0.97237 0.233446 4.5246e-17
    outer loop
      vertex 3.02462 -8.31287 1.85205e-16
      vertex 3.09789 -8.61803 1.89691e-16
      vertex 3.02462 -8.31287 -7.5
    endloop
  endfacet
  facet normal 0.92388 0.382683 3.31387e-17
    outer loop
      vertex 3.21799 -8.90798 1.97045e-16
      vertex 3.21799 -8.90798 -7.5
      vertex 3.09789 -8.61803 -7.5
    endloop
  endfacet
  facet normal 0.92388 0.382683 3.31387e-17
    outer loop
      vertex 3.09789 -8.61803 1.89691e-16
      vertex 3.21799 -8.90798 1.97045e-16
      vertex 3.09789 -8.61803 -7.5
    endloop
  endfacet
  facet normal 0.852641 0.522498 2.02154e-17
    outer loop
      vertex 3.38197 -9.17557 2.07086e-16
      vertex 3.38197 -9.17557 -7.5
      vertex 3.21799 -8.90798 -7.5
    endloop
  endfacet
  facet normal 0.852641 0.522498 2.02154e-17
    outer loop
      vertex 3.21799 -8.90798 1.97045e-16
      vertex 3.38197 -9.17557 2.07086e-16
      vertex 3.21799 -8.90798 -7.5
    endloop
  endfacet
  facet normal 0.760407 0.649447 6.79429e-18
    outer loop
      vertex 3.58579 -9.41421 2.19566e-16
      vertex 3.58579 -9.41421 -7.5
      vertex 3.38197 -9.17557 -7.5
    endloop
  endfacet
  facet normal 0.760407 0.649447 6.79429e-18
    outer loop
      vertex 3.38197 -9.17557 2.07086e-16
      vertex 3.58579 -9.41421 2.19566e-16
      vertex 3.38197 -9.17557 -7.5
    endloop
  endfacet
  facet normal 0.649447 0.760407 -6.79429e-18
    outer loop
      vertex 3.82443 -9.61803 -7.5
      vertex 3.58579 -9.41421 -7.5
      vertex 3.82443 -9.61803 2.34179e-16
    endloop
  endfacet
  facet normal 0.649447 0.760407 -6.79429e-18
    outer loop
      vertex 3.82443 -9.61803 2.34179e-16
      vertex 3.58579 -9.41421 -7.5
      vertex 3.58579 -9.41421 2.19566e-16
    endloop
  endfacet
  facet normal 0.522498 0.852641 -2.02154e-17
    outer loop
      vertex 4.09202 -9.78201 -7.5
      vertex 3.82443 -9.61803 -7.5
      vertex 4.09202 -9.78201 2.50564e-16
    endloop
  endfacet
  facet normal 0.522498 0.852641 -2.02154e-17
    outer loop
      vertex 4.09202 -9.78201 2.50564e-16
      vertex 3.82443 -9.61803 -7.5
      vertex 3.82443 -9.61803 2.34179e-16
    endloop
  endfacet
  facet normal 0.382683 0.92388 -3.31387e-17
    outer loop
      vertex 4.38197 -9.90211 -7.5
      vertex 4.09202 -9.78201 -7.5
      vertex 4.38197 -9.90211 2.68318e-16
    endloop
  endfacet
  facet normal 0.382683 0.92388 -3.31387e-17
    outer loop
      vertex 4.38197 -9.90211 2.68318e-16
      vertex 4.09202 -9.78201 -7.5
      vertex 4.09202 -9.78201 2.50564e-16
    endloop
  endfacet
  facet normal 0.233446 0.97237 -4.5246e-17
    outer loop
      vertex 4.68713 -9.97538 -7.5
      vertex 4.38197 -9.90211 -7.5
      vertex 4.68713 -9.97538 2.87004e-16
    endloop
  endfacet
  facet normal 0.233446 0.97237 -4.5246e-17
    outer loop
      vertex 4.68713 -9.97538 2.87004e-16
      vertex 4.38197 -9.90211 -7.5
      vertex 4.38197 -9.90211 2.68318e-16
    endloop
  endfacet
  facet normal 0.0784581 0.996917 -5.62394e-17
    outer loop
      vertex 5 -10 -7.5
      vertex 4.68713 -9.97538 -7.5
      vertex 5 -10 3.06162e-16
    endloop
  endfacet
  facet normal 0.0784581 0.996917 -5.62394e-17
    outer loop
      vertex 5 -10 3.06162e-16
      vertex 4.68713 -9.97538 -7.5
      vertex 4.68713 -9.97538 2.87004e-16
    endloop
  endfacet
  facet normal -0.0784581 0.996917 -6.58478e-17
    outer loop
      vertex 5.31287 -9.97538 -7.5
      vertex 5 -10 -7.5
      vertex 5.31287 -9.97538 3.25319e-16
    endloop
  endfacet
  facet normal -0.0784581 0.996917 -6.58478e-17
    outer loop
      vertex 5.31287 -9.97538 3.25319e-16
      vertex 5 -10 -7.5
      vertex 5 -10 3.06162e-16
    endloop
  endfacet
  facet normal -0.233446 0.97237 -7.38349e-17
    outer loop
      vertex 5.61803 -9.90211 -7.5
      vertex 5.31287 -9.97538 -7.5
      vertex 5.61803 -9.90211 3.44005e-16
    endloop
  endfacet
  facet normal -0.233446 0.97237 -7.38349e-17
    outer loop
      vertex 5.61803 -9.90211 3.44005e-16
      vertex 5.31287 -9.97538 -7.5
      vertex 5.31287 -9.97538 3.25319e-16
    endloop
  endfacet
  facet normal -0.382683 0.92388 -8.00039e-17
    outer loop
      vertex 5.90798 -9.78201 -7.5
      vertex 5.85171 -9.80532 -2.65702
      vertex 5.90798 -9.78201 -2.89141
    endloop
  endfacet
  facet normal -0.382683 0.92388 -8.00039e-17
    outer loop
      vertex 5.8 -9.82674 -2
      vertex 5.85171 -9.80532 -2.65702
      vertex 5.90798 -9.78201 -7.5
    endloop
  endfacet
  facet normal -0.382683 0.92388 -8.00039e-17
    outer loop
      vertex 5.8 -9.82674 -2
      vertex 5.90798 -9.78201 -7.5
      vertex 5.61803 -9.90211 -7.5
    endloop
  endfacet
  facet normal -0.382683 0.92388 -8.00039e-17
    outer loop
      vertex 5.8 -9.82674 -2
      vertex 5.61803 -9.90211 -7.5
      vertex 5.8 -9.82674 3.55148e-16
    endloop
  endfacet
  facet normal -0.382683 0.92388 -8.00039e-17
    outer loop
      vertex 5.61803 -9.90211 -7.5
      vertex 5.61803 -9.90211 3.44005e-16
      vertex 5.8 -9.82674 3.55148e-16
    endloop
  endfacet
  facet normal 1 6.12323e-17 6.12323e-17
    outer loop
      vertex 5.8 -30 3.55148e-16
      vertex 5.8 -30 -2
      vertex 5.8 -9.82674 -2
    endloop
  endfacet
  facet normal 1 6.12323e-17 6.12323e-17
    outer loop
      vertex 5.8 -9.82674 3.55148e-16
      vertex 5.8 -30 3.55148e-16
      vertex 5.8 -9.82674 -2
    endloop
  endfacet
  facet normal 6.12323e-17 -1 3.7494e-33
    outer loop
      vertex 5.8 -30 3.55148e-16
      vertex 1.83697e-15 -30 1.12482e-31
      vertex 2.29621e-15 -30 -7.5
    endloop
  endfacet
  facet normal 6.12323e-17 -1 3.7494e-33
    outer loop
      vertex 10 -30 -6.2
      vertex 9.34298 -30 -6.14829
      vertex 2.29621e-15 -30 -7.5
    endloop
  endfacet
  facet normal 6.12323e-17 -1 3.7494e-33
    outer loop
      vertex 5.8 -30 -2
      vertex 5.8 -30 3.55148e-16
      vertex 2.29621e-15 -30 -7.5
    endloop
  endfacet
  facet normal 6.12323e-17 -1 3.7494e-33
    outer loop
      vertex 20 -30 1.22465e-15
      vertex 14.2 -30 8.69499e-16
      vertex 20 -30 -7.5
    endloop
  endfacet
  facet normal 6.12323e-17 -1 3.7494e-33
    outer loop
      vertex 14.2 -30 8.69499e-16
      vertex 14.2 -30 -2
      vertex 20 -30 -7.5
    endloop
  endfacet
  facet normal 6.12323e-17 -1 3.7494e-33
    outer loop
      vertex 14.2 -30 -2
      vertex 14.1483 -30 -2.65702
      vertex 20 -30 -7.5
    endloop
  endfacet
  facet normal 6.12323e-17 -1 3.7494e-33
    outer loop
      vertex 14.1483 -30 -2.65702
      vertex 13.9944 -30 -3.29787
      vertex 20 -30 -7.5
    endloop
  endfacet
  facet normal 6.12323e-17 -1 3.7494e-33
    outer loop
      vertex 13.9944 -30 -3.29787
      vertex 13.7422 -30 -3.90676
      vertex 20 -30 -7.5
    endloop
  endfacet
  facet normal 6.12323e-17 -1 3.7494e-33
    outer loop
      vertex 8.09324 -30 -5.74223
      vertex 7.5313 -30 -5.39787
      vertex 2.29621e-15 -30 -7.5
    endloop
  endfacet
  facet normal 6.12323e-17 -1 3.7494e-33
    outer loop
      vertex 20 -30 -7.5
      vertex 13.3979 -30 -4.4687
      vertex 12.9698 -30 -4.96985
    endloop
  endfacet
  facet normal 6.12323e-17 -1 3.7494e-33
    outer loop
      vertex 8.70213 -30 -5.99444
      vertex 8.09324 -30 -5.74223
      vertex 2.29621e-15 -30 -7.5
    endloop
  endfacet
  facet normal 6.12323e-17 -1 3.7494e-33
    outer loop
      vertex 20 -30 -7.5
      vertex 12.9698 -30 -4.96985
      vertex 12.4687 -30 -5.39787
    endloop
  endfacet
  facet normal 6.12323e-17 -1 3.7494e-33
    outer loop
      vertex 20 -30 -7.5
      vertex 12.4687 -30 -5.39787
      vertex 11.9068 -30 -5.74223
    endloop
  endfacet
  facet normal 6.12323e-17 -1 3.7494e-33
    outer loop
      vertex 20 -30 -7.5
      vertex 11.9068 -30 -5.74223
      vertex 11.2979 -30 -5.99444
    endloop
  endfacet
  facet normal 6.12323e-17 -1 3.7494e-33
    outer loop
      vertex 20 -30 -7.5
      vertex 10.657 -30 -6.14829
      vertex 2.29621e-15 -30 -7.5
    endloop
  endfacet
  facet normal 6.12323e-17 -1 3.7494e-33
    outer loop
      vertex 20 -30 -7.5
      vertex 11.2979 -30 -5.99444
      vertex 10.657 -30 -6.14829
    endloop
  endfacet
  facet normal 6.12323e-17 -1 3.7494e-33
    outer loop
      vertex 10.657 -30 -6.14829
      vertex 10 -30 -6.2
      vertex 2.29621e-15 -30 -7.5
    endloop
  endfacet
  facet normal 6.12323e-17 -1 3.7494e-33
    outer loop
      vertex 7.5313 -30 -5.39787
      vertex 7.03015 -30 -4.96985
      vertex 2.29621e-15 -30 -7.5
    endloop
  endfacet
  facet normal 6.12323e-17 -1 3.7494e-33
    outer loop
      vertex 7.03015 -30 -4.96985
      vertex 6.60213 -30 -4.4687
      vertex 2.29621e-15 -30 -7.5
    endloop
  endfacet
  facet normal 6.12323e-17 -1 3.7494e-33
    outer loop
      vertex 6.60213 -30 -4.4687
      vertex 6.25777 -30 -3.90676
      vertex 2.29621e-15 -30 -7.5
    endloop
  endfacet
  facet normal 6.12323e-17 -1 3.7494e-33
    outer loop
      vertex 6.25777 -30 -3.90676
      vertex 6.00556 -30 -3.29787
      vertex 2.29621e-15 -30 -7.5
    endloop
  endfacet
  facet normal 6.12323e-17 -1 3.7494e-33
    outer loop
      vertex 6.00556 -30 -3.29787
      vertex 5.85171 -30 -2.65702
      vertex 2.29621e-15 -30 -7.5
    endloop
  endfacet
  facet normal 6.12323e-17 -1 3.7494e-33
    outer loop
      vertex 5.85171 -30 -2.65702
      vertex 5.8 -30 -2
      vertex 2.29621e-15 -30 -7.5
    endloop
  endfacet
  facet normal 6.12323e-17 -1 3.7494e-33
    outer loop
      vertex 13.7422 -30 -3.90676
      vertex 13.3979 -30 -4.4687
      vertex 20 -30 -7.5
    endloop
  endfacet
  facet normal 6.12323e-17 -1 3.7494e-33
    outer loop
      vertex 9.34298 -30 -6.14829
      vertex 8.70213 -30 -5.99444
      vertex 2.29621e-15 -30 -7.5
    endloop
  endfacet
  facet normal 6.12323e-17 0 -1
    outer loop
      vertex 16.9021 -8.61803 -7.5
      vertex 20 1.22465e-15 -7.5
      vertex 20 -30 -7.5
    endloop
  endfacet
  facet normal 6.12323e-17 0 -1
    outer loop
      vertex 13.8244 -9.61803 -7.5
      vertex 2.29621e-15 -30 -7.5
      vertex 13.5858 -9.41421 -7.5
    endloop
  endfacet
  facet normal 6.12323e-17 0 -1
    outer loop
      vertex 4.59243e-16 0 -7.5
      vertex 3.02462 -7.68713 -7.5
      vertex 2.29621e-15 -30 -7.5
    endloop
  endfacet
  facet normal 6.12323e-17 0 -1
    outer loop
      vertex 5.90798 -6.21799 -7.5
      vertex 20 1.22465e-15 -7.5
      vertex 6.17557 -6.38197 -7.5
    endloop
  endfacet
  facet normal 6.12323e-17 0 -1
    outer loop
      vertex 3.02462 -7.68713 -7.5
      vertex 3 -8 -7.5
      vertex 2.29621e-15 -30 -7.5
    endloop
  endfacet
  facet normal 6.12323e-17 0 -1
    outer loop
      vertex 6.17557 -6.38197 -7.5
      vertex 20 1.22465e-15 -7.5
      vertex 6.41421 -6.58579 -7.5
    endloop
  endfacet
  facet normal 6.12323e-17 0 -1
    outer loop
      vertex 3 -8 -7.5
      vertex 3.02462 -8.31287 -7.5
      vertex 2.29621e-15 -30 -7.5
    endloop
  endfacet
  facet normal 6.12323e-17 0 -1
    outer loop
      vertex 3.02462 -8.31287 -7.5
      vertex 3.09789 -8.61803 -7.5
      vertex 2.29621e-15 -30 -7.5
    endloop
  endfacet
  facet normal 6.12323e-17 0 -1
    outer loop
      vertex 6.41421 -6.58579 -7.5
      vertex 20 1.22465e-15 -7.5
      vertex 6.61803 -6.82443 -7.5
    endloop
  endfacet
  facet normal 6.12323e-17 0 -1
    outer loop
      vertex 3.09789 -8.61803 -7.5
      vertex 3.21799 -8.90798 -7.5
      vertex 2.29621e-15 -30 -7.5
    endloop
  endfacet
  facet normal 6.12323e-17 0 -1
    outer loop
      vertex 6.61803 -6.82443 -7.5
      vertex 20 1.22465e-15 -7.5
      vertex 6.78201 -7.09202 -7.5
    endloop
  endfacet
  facet normal 6.12323e-17 0 -1
    outer loop
      vertex 3.21799 -8.90798 -7.5
      vertex 3.38197 -9.17557 -7.5
      vertex 2.29621e-15 -30 -7.5
    endloop
  endfacet
  facet normal 6.12323e-17 0 -1
    outer loop
      vertex 6.78201 -7.09202 -7.5
      vertex 20 1.22465e-15 -7.5
      vertex 6.90211 -7.38197 -7.5
    endloop
  endfacet
  facet normal 6.12323e-17 0 -1
    outer loop
      vertex 3.38197 -9.17557 -7.5
      vertex 3.58579 -9.41421 -7.5
      vertex 2.29621e-15 -30 -7.5
    endloop
  endfacet
  facet normal 6.12323e-17 0 -1
    outer loop
      vertex 6.90211 -7.38197 -7.5
      vertex 20 1.22465e-15 -7.5
      vertex 6.97538 -7.68713 -7.5
    endloop
  endfacet
  facet normal 6.12323e-17 0 -1
    outer loop
      vertex 3.58579 -9.41421 -7.5
      vertex 3.82443 -9.61803 -7.5
      vertex 2.29621e-15 -30 -7.5
    endloop
  endfacet
  facet normal 6.12323e-17 0 -1
    outer loop
      vertex 3.82443 -9.61803 -7.5
      vertex 4.09202 -9.78201 -7.5
      vertex 2.29621e-15 -30 -7.5
    endloop
  endfacet
  facet normal 6.12323e-17 0 -1
    outer loop
      vertex 6.97538 -7.68713 -7.5
      vertex 20 1.22465e-15 -7.5
      vertex 7 -8 -7.5
    endloop
  endfacet
  facet normal 6.12323e-17 0 -1
    outer loop
      vertex 4.09202 -9.78201 -7.5
      vertex 4.38197 -9.90211 -7.5
      vertex 2.29621e-15 -30 -7.5
    endloop
  endfacet
  facet normal 6.12323e-17 0 -1
    outer loop
      vertex 7 -8 -7.5
      vertex 20 1.22465e-15 -7.5
      vertex 6.97538 -8.31287 -7.5
    endloop
  endfacet
  facet normal 6.12323e-17 0 -1
    outer loop
      vertex 4.38197 -9.90211 -7.5
      vertex 4.68713 -9.97538 -7.5
      vertex 2.29621e-15 -30 -7.5
    endloop
  endfacet
  facet normal 6.12323e-17 0 -1
    outer loop
      vertex 6.97538 -8.31287 -7.5
      vertex 20 1.22465e-15 -7.5
      vertex 6.90211 -8.61803 -7.5
    endloop
  endfacet
  facet normal 6.12323e-17 0 -1
    outer loop
      vertex 4.68713 -9.97538 -7.5
      vertex 5 -10 -7.5
      vertex 2.29621e-15 -30 -7.5
    endloop
  endfacet
  facet normal 6.12323e-17 0 -1
    outer loop
      vertex 6.90211 -8.61803 -7.5
      vertex 20 1.22465e-15 -7.5
      vertex 6.78201 -8.90798 -7.5
    endloop
  endfacet
  facet normal 6.12323e-17 0 -1
    outer loop
      vertex 5 -10 -7.5
      vertex 5.31287 -9.97538 -7.5
      vertex 2.29621e-15 -30 -7.5
    endloop
  endfacet
  facet normal 6.12323e-17 0 -1
    outer loop
      vertex 6.78201 -8.90798 -7.5
      vertex 20 1.22465e-15 -7.5
      vertex 6.61803 -9.17557 -7.5
    endloop
  endfacet
  facet normal 6.12323e-17 0 -1
    outer loop
      vertex 5.31287 -9.97538 -7.5
      vertex 5.61803 -9.90211 -7.5
      vertex 2.29621e-15 -30 -7.5
    endloop
  endfacet
  facet normal 6.12323e-17 0 -1
    outer loop
      vertex 6.61803 -9.17557 -7.5
      vertex 20 1.22465e-15 -7.5
      vertex 6.41421 -9.41421 -7.5
    endloop
  endfacet
  facet normal 6.12323e-17 0 -1
    outer loop
      vertex 5.61803 -9.90211 -7.5
      vertex 5.90798 -9.78201 -7.5
      vertex 2.29621e-15 -30 -7.5
    endloop
  endfacet
  facet normal 6.12323e-17 0 -1
    outer loop
      vertex 5.90798 -9.78201 -7.5
      vertex 6.17557 -9.61803 -7.5
      vertex 2.29621e-15 -30 -7.5
    endloop
  endfacet
  facet normal 6.12323e-17 0 -1
    outer loop
      vertex 4.59243e-16 0 -7.5
      vertex 20 1.22465e-15 -7.5
      vertex 5.90798 -6.21799 -7.5
    endloop
  endfacet
  facet normal 6.12323e-17 0 -1
    outer loop
      vertex 4.59243e-16 0 -7.5
      vertex 5.90798 -6.21799 -7.5
      vertex 5.61803 -6.09789 -7.5
    endloop
  endfacet
  facet normal 6.12323e-17 0 -1
    outer loop
      vertex 4.59243e-16 0 -7.5
      vertex 5.61803 -6.09789 -7.5
      vertex 5.31287 -6.02462 -7.5
    endloop
  endfacet
  facet normal 6.12323e-17 0 -1
    outer loop
      vertex 4.59243e-16 0 -7.5
      vertex 5.31287 -6.02462 -7.5
      vertex 5 -6 -7.5
    endloop
  endfacet
  facet normal 6.12323e-17 0 -1
    outer loop
      vertex 4.59243e-16 0 -7.5
      vertex 5 -6 -7.5
      vertex 4.68713 -6.02462 -7.5
    endloop
  endfacet
  facet normal 6.12323e-17 0 -1
    outer loop
      vertex 4.59243e-16 0 -7.5
      vertex 4.68713 -6.02462 -7.5
      vertex 4.38197 -6.09789 -7.5
    endloop
  endfacet
  facet normal 6.12323e-17 0 -1
    outer loop
      vertex 4.59243e-16 0 -7.5
      vertex 4.38197 -6.09789 -7.5
      vertex 4.09202 -6.21799 -7.5
    endloop
  endfacet
  facet normal 6.12323e-17 0 -1
    outer loop
      vertex 4.59243e-16 0 -7.5
      vertex 4.09202 -6.21799 -7.5
      vertex 3.82443 -6.38197 -7.5
    endloop
  endfacet
  facet normal 6.12323e-17 0 -1
    outer loop
      vertex 4.59243e-16 0 -7.5
      vertex 3.82443 -6.38197 -7.5
      vertex 3.58579 -6.58579 -7.5
    endloop
  endfacet
  facet normal 6.12323e-17 0 -1
    outer loop
      vertex 4.59243e-16 0 -7.5
      vertex 3.58579 -6.58579 -7.5
      vertex 3.38197 -6.82443 -7.5
    endloop
  endfacet
  facet normal 6.12323e-17 0 -1
    outer loop
      vertex 4.59243e-16 0 -7.5
      vertex 3.38197 -6.82443 -7.5
      vertex 3.21799 -7.09202 -7.5
    endloop
  endfacet
  facet normal 6.12323e-17 0 -1
    outer loop
      vertex 4.59243e-16 0 -7.5
      vertex 3.21799 -7.09202 -7.5
      vertex 3.09789 -7.38197 -7.5
    endloop
  endfacet
  facet normal 6.12323e-17 0 -1
    outer loop
      vertex 4.59243e-16 0 -7.5
      vertex 3.09789 -7.38197 -7.5
      vertex 3.02462 -7.68713 -7.5
    endloop
  endfacet
  facet normal 6.12323e-17 0 -1
    outer loop
      vertex 13.8244 -6.38197 -7.5
      vertex 6.17557 -9.61803 -7.5
      vertex 14.092 -6.21799 -7.5
    endloop
  endfacet
  facet normal 6.12323e-17 0 -1
    outer loop
      vertex 6.17557 -9.61803 -7.5
      vertex 13.0246 -7.68713 -7.5
      vertex 2.29621e-15 -30 -7.5
    endloop
  endfacet
  facet normal 6.12323e-17 0 -1
    outer loop
      vertex 14.382 -6.09789 -7.5
      vertex 20 1.22465e-15 -7.5
      vertex 14.6871 -6.02462 -7.5
    endloop
  endfacet
  facet normal 6.12323e-17 0 -1
    outer loop
      vertex 13.0246 -7.68713 -7.5
      vertex 13 -8 -7.5
      vertex 2.29621e-15 -30 -7.5
    endloop
  endfacet
  facet normal 6.12323e-17 0 -1
    outer loop
      vertex 13 -8 -7.5
      vertex 13.0246 -8.31287 -7.5
      vertex 2.29621e-15 -30 -7.5
    endloop
  endfacet
  facet normal 6.12323e-17 0 -1
    outer loop
      vertex 14.6871 -6.02462 -7.5
      vertex 20 1.22465e-15 -7.5
      vertex 15 -6 -7.5
    endloop
  endfacet
  facet normal 6.12323e-17 0 -1
    outer loop
      vertex 13.0246 -8.31287 -7.5
      vertex 13.0979 -8.61803 -7.5
      vertex 2.29621e-15 -30 -7.5
    endloop
  endfacet
  facet normal 6.12323e-17 0 -1
    outer loop
      vertex 15 -6 -7.5
      vertex 20 1.22465e-15 -7.5
      vertex 15.3129 -6.02462 -7.5
    endloop
  endfacet
  facet normal 6.12323e-17 0 -1
    outer loop
      vertex 13.0979 -8.61803 -7.5
      vertex 13.218 -8.90798 -7.5
      vertex 2.29621e-15 -30 -7.5
    endloop
  endfacet
  facet normal 6.12323e-17 0 -1
    outer loop
      vertex 13.218 -8.90798 -7.5
      vertex 13.382 -9.17557 -7.5
      vertex 2.29621e-15 -30 -7.5
    endloop
  endfacet
  facet normal 6.12323e-17 0 -1
    outer loop
      vertex 15.3129 -6.02462 -7.5
      vertex 20 1.22465e-15 -7.5
      vertex 15.618 -6.09789 -7.5
    endloop
  endfacet
  facet normal 6.12323e-17 0 -1
    outer loop
      vertex 13.382 -9.17557 -7.5
      vertex 13.5858 -9.41421 -7.5
      vertex 2.29621e-15 -30 -7.5
    endloop
  endfacet
  facet normal 6.12323e-17 0 -1
    outer loop
      vertex 15.618 -6.09789 -7.5
      vertex 20 1.22465e-15 -7.5
      vertex 15.908 -6.21799 -7.5
    endloop
  endfacet
  facet normal 6.12323e-17 0 -1
    outer loop
      vertex 2.29621e-15 -30 -7.5
      vertex 13.8244 -9.61803 -7.5
      vertex 20 -30 -7.5
    endloop
  endfacet
  facet normal 6.12323e-17 0 -1
    outer loop
      vertex 13.8244 -9.61803 -7.5
      vertex 14.092 -9.78201 -7.5
      vertex 20 -30 -7.5
    endloop
  endfacet
  facet normal 6.12323e-17 0 -1
    outer loop
      vertex 15.908 -6.21799 -7.5
      vertex 20 1.22465e-15 -7.5
      vertex 16.1756 -6.38197 -7.5
    endloop
  endfacet
  facet normal 6.12323e-17 0 -1
    outer loop
      vertex 14.092 -9.78201 -7.5
      vertex 14.382 -9.90211 -7.5
      vertex 20 -30 -7.5
    endloop
  endfacet
  facet normal 6.12323e-17 0 -1
    outer loop
      vertex 16.1756 -6.38197 -7.5
      vertex 20 1.22465e-15 -7.5
      vertex 16.4142 -6.58579 -7.5
    endloop
  endfacet
  facet normal 6.12323e-17 0 -1
    outer loop
      vertex 14.382 -9.90211 -7.5
      vertex 14.6871 -9.97538 -7.5
      vertex 20 -30 -7.5
    endloop
  endfacet
  facet normal 6.12323e-17 0 -1
    outer loop
      vertex 14.6871 -9.97538 -7.5
      vertex 15 -10 -7.5
      vertex 20 -30 -7.5
    endloop
  endfacet
  facet normal 6.12323e-17 0 -1
    outer loop
      vertex 16.4142 -6.58579 -7.5
      vertex 20 1.22465e-15 -7.5
      vertex 16.618 -6.82443 -7.5
    endloop
  endfacet
  facet normal 6.12323e-17 0 -1
    outer loop
      vertex 15 -10 -7.5
      vertex 15.3129 -9.97538 -7.5
      vertex 20 -30 -7.5
    endloop
  endfacet
  facet normal 6.12323e-17 0 -1
    outer loop
      vertex 16.618 -6.82443 -7.5
      vertex 20 1.22465e-15 -7.5
      vertex 16.782 -7.09202 -7.5
    endloop
  endfacet
  facet normal 6.12323e-17 0 -1
    outer loop
      vertex 15.3129 -9.97538 -7.5
      vertex 15.618 -9.90211 -7.5
      vertex 20 -30 -7.5
    endloop
  endfacet
  facet normal 6.12323e-17 0 -1
    outer loop
      vertex 16.782 -7.09202 -7.5
      vertex 20 1.22465e-15 -7.5
      vertex 16.9021 -7.38197 -7.5
    endloop
  endfacet
  facet normal 6.12323e-17 0 -1
    outer loop
      vertex 15.618 -9.90211 -7.5
      vertex 15.908 -9.78201 -7.5
      vertex 20 -30 -7.5
    endloop
  endfacet
  facet normal 6.12323e-17 0 -1
    outer loop
      vertex 15.908 -9.78201 -7.5
      vertex 16.1756 -9.61803 -7.5
      vertex 20 -30 -7.5
    endloop
  endfacet
  facet normal 6.12323e-17 0 -1
    outer loop
      vertex 16.9021 -7.38197 -7.5
      vertex 20 1.22465e-15 -7.5
      vertex 16.9754 -7.68713 -7.5
    endloop
  endfacet
  facet normal 6.12323e-17 0 -1
    outer loop
      vertex 16.1756 -9.61803 -7.5
      vertex 16.4142 -9.41421 -7.5
      vertex 20 -30 -7.5
    endloop
  endfacet
  facet normal 6.12323e-17 0 -1
    outer loop
      vertex 16.9754 -7.68713 -7.5
      vertex 20 1.22465e-15 -7.5
      vertex 17 -8 -7.5
    endloop
  endfacet
  facet normal 6.12323e-17 0 -1
    outer loop
      vertex 16.4142 -9.41421 -7.5
      vertex 16.618 -9.17557 -7.5
      vertex 20 -30 -7.5
    endloop
  endfacet
  facet normal 6.12323e-17 0 -1
    outer loop
      vertex 17 -8 -7.5
      vertex 20 1.22465e-15 -7.5
      vertex 16.9754 -8.31287 -7.5
    endloop
  endfacet
  facet normal 6.12323e-17 0 -1
    outer loop
      vertex 16.618 -9.17557 -7.5
      vertex 16.782 -8.90798 -7.5
      vertex 20 -30 -7.5
    endloop
  endfacet
  facet normal 6.12323e-17 0 -1
    outer loop
      vertex 16.782 -8.90798 -7.5
      vertex 16.9021 -8.61803 -7.5
      vertex 20 -30 -7.5
    endloop
  endfacet
  facet normal 6.12323e-17 0 -1
    outer loop
      vertex 16.9754 -8.31287 -7.5
      vertex 20 1.22465e-15 -7.5
      vertex 16.9021 -8.61803 -7.5
    endloop
  endfacet
  facet normal 6.12323e-17 0 -1
    outer loop
      vertex 14.092 -6.21799 -7.5
      vertex 20 1.22465e-15 -7.5
      vertex 14.382 -6.09789 -7.5
    endloop
  endfacet
  facet normal 6.12323e-17 0 -1
    outer loop
      vertex 6.17557 -9.61803 -7.5
      vertex 20 1.22465e-15 -7.5
      vertex 14.092 -6.21799 -7.5
    endloop
  endfacet
  facet normal 6.12323e-17 0 -1
    outer loop
      vertex 6.17557 -9.61803 -7.5
      vertex 13.8244 -6.38197 -7.5
      vertex 13.5858 -6.58579 -7.5
    endloop
  endfacet
  facet normal 6.12323e-17 0 -1
    outer loop
      vertex 6.17557 -9.61803 -7.5
      vertex 13.5858 -6.58579 -7.5
      vertex 13.382 -6.82443 -7.5
    endloop
  endfacet
  facet normal 6.12323e-17 0 -1
    outer loop
      vertex 6.17557 -9.61803 -7.5
      vertex 13.382 -6.82443 -7.5
      vertex 13.218 -7.09202 -7.5
    endloop
  endfacet
  facet normal 6.12323e-17 0 -1
    outer loop
      vertex 6.17557 -9.61803 -7.5
      vertex 13.218 -7.09202 -7.5
      vertex 13.0979 -7.38197 -7.5
    endloop
  endfacet
  facet normal 6.12323e-17 0 -1
    outer loop
      vertex 6.17557 -9.61803 -7.5
      vertex 13.0979 -7.38197 -7.5
      vertex 13.0246 -7.68713 -7.5
    endloop
  endfacet
  facet normal 6.12323e-17 0 -1
    outer loop
      vertex 6.41421 -9.41421 -7.5
      vertex 20 1.22465e-15 -7.5
      vertex 6.17557 -9.61803 -7.5
    endloop
  endfacet
  facet normal 1 6.12323e-17 6.12323e-17
    outer loop
      vertex 20 1.22465e-15 -7.5
      vertex 20 1.22465e-15 1.22465e-15
      vertex 20 -30 1.22465e-15
    endloop
  endfacet
  facet normal 1 6.12323e-17 6.12323e-17
    outer loop
      vertex 20 -30 -7.5
      vertex 20 1.22465e-15 -7.5
      vertex 20 -30 1.22465e-15
    endloop
  endfacet
  facet normal -6.12323e-17 0 1
    outer loop
      vertex 20 1.22465e-15 1.22465e-15
      vertex 14.2 8.69499e-16 8.69499e-16
      vertex 14.2 -6.17326 8.69499e-16
    endloop
  endfacet
  facet normal -6.12323e-17 0 1
    outer loop
      vertex 14.6871 -6.02462 8.99327e-16
      vertex 20 1.22465e-15 1.22465e-15
      vertex 14.382 -6.09789 8.80641e-16
    endloop
  endfacet
  facet normal -6.12323e-17 0 1
    outer loop
      vertex 14.382 -6.09789 8.80641e-16
      vertex 20 1.22465e-15 1.22465e-15
      vertex 14.2 -6.17326 8.69499e-16
    endloop
  endfacet
  facet normal -6.12323e-17 0 1
    outer loop
      vertex 15 -6 9.18485e-16
      vertex 20 1.22465e-15 1.22465e-15
      vertex 14.6871 -6.02462 8.99327e-16
    endloop
  endfacet
  facet normal -6.12323e-17 0 1
    outer loop
      vertex 15.3129 -6.02462 9.37643e-16
      vertex 20 1.22465e-15 1.22465e-15
      vertex 15 -6 9.18485e-16
    endloop
  endfacet
  facet normal -6.12323e-17 0 1
    outer loop
      vertex 15.618 -6.09789 9.56329e-16
      vertex 20 1.22465e-15 1.22465e-15
      vertex 15.3129 -6.02462 9.37643e-16
    endloop
  endfacet
  facet normal -6.12323e-17 0 1
    outer loop
      vertex 15.908 -6.21799 9.74083e-16
      vertex 20 1.22465e-15 1.22465e-15
      vertex 15.618 -6.09789 9.56329e-16
    endloop
  endfacet
  facet normal -6.12323e-17 0 1
    outer loop
      vertex 16.1756 -6.38197 9.90468e-16
      vertex 20 1.22465e-15 1.22465e-15
      vertex 15.908 -6.21799 9.74083e-16
    endloop
  endfacet
  facet normal -6.12323e-17 0 1
    outer loop
      vertex 16.4142 -6.58579 1.00508e-15
      vertex 20 1.22465e-15 1.22465e-15
      vertex 16.1756 -6.38197 9.90468e-16
    endloop
  endfacet
  facet normal -6.12323e-17 0 1
    outer loop
      vertex 16.618 -6.82443 1.01756e-15
      vertex 20 1.22465e-15 1.22465e-15
      vertex 16.4142 -6.58579 1.00508e-15
    endloop
  endfacet
  facet normal -6.12323e-17 0 1
    outer loop
      vertex 16.782 -7.09202 1.0276e-15
      vertex 20 1.22465e-15 1.22465e-15
      vertex 16.618 -6.82443 1.01756e-15
    endloop
  endfacet
  facet normal -6.12323e-17 0 1
    outer loop
      vertex 16.9021 -7.38197 1.03496e-15
      vertex 20 1.22465e-15 1.22465e-15
      vertex 16.782 -7.09202 1.0276e-15
    endloop
  endfacet
  facet normal -6.12323e-17 0 1
    outer loop
      vertex 16.9754 -7.68713 1.03944e-15
      vertex 20 1.22465e-15 1.22465e-15
      vertex 16.9021 -7.38197 1.03496e-15
    endloop
  endfacet
  facet normal -6.12323e-17 0 1
    outer loop
      vertex 17 -8 1.04095e-15
      vertex 20 1.22465e-15 1.22465e-15
      vertex 16.9754 -7.68713 1.03944e-15
    endloop
  endfacet
  facet normal -6.12323e-17 0 1
    outer loop
      vertex 16.9754 -8.31287 1.03944e-15
      vertex 20 1.22465e-15 1.22465e-15
      vertex 17 -8 1.04095e-15
    endloop
  endfacet
  facet normal -6.12323e-17 0 1
    outer loop
      vertex 16.9021 -8.61803 1.03496e-15
      vertex 20 1.22465e-15 1.22465e-15
      vertex 16.9754 -8.31287 1.03944e-15
    endloop
  endfacet
  facet normal -6.12323e-17 0 1
    outer loop
      vertex 14.2 -30 8.69499e-16
      vertex 20 1.22465e-15 1.22465e-15
      vertex 16.9021 -8.61803 1.03496e-15
    endloop
  endfacet
  facet normal -6.12323e-17 0 1
    outer loop
      vertex 14.2 -30 8.69499e-16
      vertex 16.9021 -8.61803 1.03496e-15
      vertex 16.782 -8.90798 1.0276e-15
    endloop
  endfacet
  facet normal -6.12323e-17 0 1
    outer loop
      vertex 14.2 -30 8.69499e-16
      vertex 16.782 -8.90798 1.0276e-15
      vertex 16.618 -9.17557 1.01756e-15
    endloop
  endfacet
  facet normal -6.12323e-17 0 1
    outer loop
      vertex 14.2 -30 8.69499e-16
      vertex 16.618 -9.17557 1.01756e-15
      vertex 16.4142 -9.41421 1.00508e-15
    endloop
  endfacet
  facet normal -6.12323e-17 0 1
    outer loop
      vertex 14.2 -30 8.69499e-16
      vertex 16.4142 -9.41421 1.00508e-15
      vertex 16.1756 -9.61803 9.90468e-16
    endloop
  endfacet
  facet normal -6.12323e-17 0 1
    outer loop
      vertex 14.2 -30 8.69499e-16
      vertex 16.1756 -9.61803 9.90468e-16
      vertex 15.908 -9.78201 9.74083e-16
    endloop
  endfacet
  facet normal -6.12323e-17 0 1
    outer loop
      vertex 14.2 -30 8.69499e-16
      vertex 15.908 -9.78201 9.74083e-16
      vertex 15.618 -9.90211 9.56329e-16
    endloop
  endfacet
  facet normal -6.12323e-17 0 1
    outer loop
      vertex 14.2 -30 8.69499e-16
      vertex 15.618 -9.90211 9.56329e-16
      vertex 15.3129 -9.97538 9.37643e-16
    endloop
  endfacet
  facet normal -6.12323e-17 0 1
    outer loop
      vertex 14.2 -30 8.69499e-16
      vertex 15.3129 -9.97538 9.37643e-16
      vertex 15 -10 9.18485e-16
    endloop
  endfacet
  facet normal -6.12323e-17 0 1
    outer loop
      vertex 14.2 -30 8.69499e-16
      vertex 15 -10 9.18485e-16
      vertex 14.6871 -9.97538 8.99327e-16
    endloop
  endfacet
  facet normal -6.12323e-17 0 1
    outer loop
      vertex 14.2 -30 8.69499e-16
      vertex 14.6871 -9.97538 8.99327e-16
      vertex 14.382 -9.90211 8.80641e-16
    endloop
  endfacet
  facet normal -6.12323e-17 0 1
    outer loop
      vertex 14.2 -30 8.69499e-16
      vertex 14.382 -9.90211 8.80641e-16
      vertex 14.2 -9.82674 8.69499e-16
    endloop
  endfacet
  facet normal -6.12323e-17 0 1
    outer loop
      vertex 20 -30 1.22465e-15
      vertex 20 1.22465e-15 1.22465e-15
      vertex 14.2 -30 8.69499e-16
    endloop
  endfacet
  facet normal -1 -6.12323e-17 -6.12323e-17
    outer loop
      vertex 14.2 -6.17326 -2
      vertex 14.2 -6.17326 8.69499e-16
      vertex 14.2 8.69499e-16 -2
    endloop
  endfacet
  facet normal -1 -6.12323e-17 -6.12323e-17
    outer loop
      vertex 14.2 8.69499e-16 -2
      vertex 14.2 -6.17326 8.69499e-16
      vertex 14.2 8.69499e-16 8.69499e-16
    endloop
  endfacet
  facet normal -0.996917 -6.10436e-17 0.0784591
    outer loop
      vertex 14.1483 -6.19468 -2.65702
      vertex 14.2 -6.17326 -2
      vertex 14.1483 8.66333e-16 -2.65702
    endloop
  endfacet
  facet normal -0.996917 -6.10436e-17 0.0784591
    outer loop
      vertex 14.1483 8.66333e-16 -2.65702
      vertex 14.2 -6.17326 -2
      vertex 14.2 8.69499e-16 -2
    endloop
  endfacet
  facet normal -0.97237 -5.95405e-17 0.233446
    outer loop
      vertex 13.9944 -6.27779 -3.29787
      vertex 14.092 -6.21799 -2.89141
      vertex 13.9944 8.56912e-16 -3.29787
    endloop
  endfacet
  facet normal -0.97237 -5.95405e-17 0.233446
    outer loop
      vertex 13.9944 8.56912e-16 -3.29787
      vertex 14.092 -6.21799 -2.89141
      vertex 14.1483 -6.19468 -2.65702
    endloop
  endfacet
  facet normal -0.97237 -5.95405e-17 0.233446
    outer loop
      vertex 13.9944 8.56912e-16 -3.29787
      vertex 14.1483 -6.19468 -2.65702
      vertex 14.1483 8.66333e-16 -2.65702
    endloop
  endfacet
  facet normal -0.92388 -5.65713e-17 0.382683
    outer loop
      vertex 13.7422 -6.45217 -3.90676
      vertex 13.8244 -6.38197 -3.70831
      vertex 13.7422 8.41469e-16 -3.90676
    endloop
  endfacet
  facet normal -0.92388 -5.65713e-17 0.382683
    outer loop
      vertex 13.7422 8.41469e-16 -3.90676
      vertex 13.8244 -6.38197 -3.70831
      vertex 13.9944 -6.27779 -3.29787
    endloop
  endfacet
  facet normal -0.92388 -5.65713e-17 0.382683
    outer loop
      vertex 13.7422 8.41469e-16 -3.90676
      vertex 13.9944 -6.27779 -3.29787
      vertex 13.9944 8.56912e-16 -3.29787
    endloop
  endfacet
  facet normal -0.85264 -5.22092e-17 0.522499
    outer loop
      vertex 13.3979 -6.80581 -4.4687
      vertex 13.5858 -6.58579 -4.16205
      vertex 13.3979 8.20383e-16 -4.4687
    endloop
  endfacet
  facet normal -0.85264 -5.22092e-17 0.522499
    outer loop
      vertex 13.3979 8.20383e-16 -4.4687
      vertex 13.5858 -6.58579 -4.16205
      vertex 13.7422 -6.45217 -3.90676
    endloop
  endfacet
  facet normal -0.85264 -5.22092e-17 0.522499
    outer loop
      vertex 13.3979 8.20383e-16 -4.4687
      vertex 13.7422 -6.45217 -3.90676
      vertex 13.7422 8.41469e-16 -3.90676
    endloop
  endfacet
  facet normal -0.760406 -4.65614e-17 0.649448
    outer loop
      vertex 13.382 -9.17557 -4.48732
      vertex 13.3979 -30 -4.4687
      vertex 13.3979 -9.19419 -4.4687
    endloop
  endfacet
  facet normal -0.760406 -4.65614e-17 0.649448
    outer loop
      vertex 13.218 -8.90798 -4.67931
      vertex 13.3979 -30 -4.4687
      vertex 13.382 -9.17557 -4.48732
    endloop
  endfacet
  facet normal -0.760406 -4.65614e-17 0.649448
    outer loop
      vertex 13.0979 -8.61803 -4.81993
      vertex 13.3979 -30 -4.4687
      vertex 13.218 -8.90798 -4.67931
    endloop
  endfacet
  facet normal -0.760406 -4.65614e-17 0.649448
    outer loop
      vertex 12.9698 -30 -4.96985
      vertex 13.3979 -30 -4.4687
      vertex 13.0246 -8.31287 -4.90571
    endloop
  endfacet
  facet normal -0.760406 -4.65614e-17 0.649448
    outer loop
      vertex 12.9698 -30 -4.96985
      vertex 13.0246 -8.31287 -4.90571
      vertex 13 -8 -4.93454
    endloop
  endfacet
  facet normal -0.760406 -4.65614e-17 0.649448
    outer loop
      vertex 12.9698 -30 -4.96985
      vertex 13 -8 -4.93454
      vertex 12.9698 7.94174e-16 -4.96985
    endloop
  endfacet
  facet normal -0.760406 -4.65614e-17 0.649448
    outer loop
      vertex 13.0246 -7.68713 -4.90571
      vertex 12.9698 7.94174e-16 -4.96985
      vertex 13 -8 -4.93454
    endloop
  endfacet
  facet normal -0.760406 -4.65614e-17 0.649448
    outer loop
      vertex 13.0979 -7.38197 -4.81993
      vertex 12.9698 7.94174e-16 -4.96985
      vertex 13.0246 -7.68713 -4.90571
    endloop
  endfacet
  facet normal -0.760406 -4.65614e-17 0.649448
    outer loop
      vertex 13.218 -7.09202 -4.67931
      vertex 12.9698 7.94174e-16 -4.96985
      vertex 13.0979 -7.38197 -4.81993
    endloop
  endfacet
  facet normal -0.760406 -4.65614e-17 0.649448
    outer loop
      vertex 13.382 -6.82443 -4.48732
      vertex 12.9698 7.94174e-16 -4.96985
      vertex 13.218 -7.09202 -4.67931
    endloop
  endfacet
  facet normal -0.760406 -4.65614e-17 0.649448
    outer loop
      vertex 12.9698 7.94174e-16 -4.96985
      vertex 13.382 -6.82443 -4.48732
      vertex 13.3979 -6.80581 -4.4687
    endloop
  endfacet
  facet normal -0.760406 -4.65614e-17 0.649448
    outer loop
      vertex 12.9698 7.94174e-16 -4.96985
      vertex 13.3979 -6.80581 -4.4687
      vertex 13.3979 8.20383e-16 -4.4687
    endloop
  endfacet
  facet normal -0.760406 -4.65614e-17 0.649448
    outer loop
      vertex 13.0246 -8.31287 -4.90571
      vertex 13.3979 -30 -4.4687
      vertex 13.0979 -8.61803 -4.81993
    endloop
  endfacet
  facet normal -0.649448 -3.97672e-17 0.760406
    outer loop
      vertex 12.4687 7.63488e-16 -5.39787
      vertex 12.4687 -30 -5.39787
      vertex 12.9698 -30 -4.96985
    endloop
  endfacet
  facet normal -0.649448 -3.97672e-17 0.760406
    outer loop
      vertex 12.9698 7.94174e-16 -4.96985
      vertex 12.4687 7.63488e-16 -5.39787
      vertex 12.9698 -30 -4.96985
    endloop
  endfacet
  facet normal -0.522499 -3.19938e-17 0.85264
    outer loop
      vertex 11.9068 7.29079e-16 -5.74223
      vertex 11.9068 -30 -5.74223
      vertex 12.4687 -30 -5.39787
    endloop
  endfacet
  facet normal -0.522499 -3.19938e-17 0.85264
    outer loop
      vertex 12.4687 7.63488e-16 -5.39787
      vertex 11.9068 7.29079e-16 -5.74223
      vertex 12.4687 -30 -5.39787
    endloop
  endfacet
  facet normal -0.382683 -2.34326e-17 0.92388
    outer loop
      vertex 11.2979 6.91795e-16 -5.99444
      vertex 11.2979 -30 -5.99444
      vertex 11.9068 -30 -5.74223
    endloop
  endfacet
  facet normal -0.382683 -2.34326e-17 0.92388
    outer loop
      vertex 11.9068 7.29079e-16 -5.74223
      vertex 11.2979 6.91795e-16 -5.99444
      vertex 11.9068 -30 -5.74223
    endloop
  endfacet
  facet normal -0.233446 -1.42944e-17 0.97237
    outer loop
      vertex 10.657 6.52555e-16 -6.14829
      vertex 10.657 -30 -6.14829
      vertex 11.2979 -30 -5.99444
    endloop
  endfacet
  facet normal -0.233446 -1.42944e-17 0.97237
    outer loop
      vertex 11.2979 6.91795e-16 -5.99444
      vertex 10.657 6.52555e-16 -6.14829
      vertex 11.2979 -30 -5.99444
    endloop
  endfacet
  facet normal -0.0784591 -4.80424e-18 0.996917
    outer loop
      vertex 10 6.12323e-16 -6.2
      vertex 10 -30 -6.2
      vertex 10.657 -30 -6.14829
    endloop
  endfacet
  facet normal -0.0784591 -4.80424e-18 0.996917
    outer loop
      vertex 10.657 6.52555e-16 -6.14829
      vertex 10 6.12323e-16 -6.2
      vertex 10.657 -30 -6.14829
    endloop
  endfacet
  facet normal 0.0784591 4.80424e-18 0.996917
    outer loop
      vertex 9.34298 -30 -6.14829
      vertex 10 -30 -6.2
      vertex 10 6.12323e-16 -6.2
    endloop
  endfacet
  facet normal 0.0784591 4.80424e-18 0.996917
    outer loop
      vertex 9.34297 5.72092e-16 -6.14829
      vertex 9.34298 -30 -6.14829
      vertex 10 6.12323e-16 -6.2
    endloop
  endfacet
  facet normal 0.233446 1.42944e-17 0.97237
    outer loop
      vertex 8.70213 -30 -5.99444
      vertex 9.34298 -30 -6.14829
      vertex 9.34297 5.72092e-16 -6.14829
    endloop
  endfacet
  facet normal 0.233446 1.42944e-17 0.97237
    outer loop
      vertex 8.70213 5.32852e-16 -5.99444
      vertex 8.70213 -30 -5.99444
      vertex 9.34297 5.72092e-16 -6.14829
    endloop
  endfacet
  facet normal 0.382683 2.34326e-17 0.92388
    outer loop
      vertex 8.09324 -30 -5.74223
      vertex 8.70213 -30 -5.99444
      vertex 8.70213 5.32852e-16 -5.99444
    endloop
  endfacet
  facet normal 0.382683 2.34326e-17 0.92388
    outer loop
      vertex 8.09324 4.95568e-16 -5.74223
      vertex 8.09324 -30 -5.74223
      vertex 8.70213 5.32852e-16 -5.99444
    endloop
  endfacet
  facet normal 0.522499 3.19938e-17 0.85264
    outer loop
      vertex 7.5313 -30 -5.39787
      vertex 8.09324 -30 -5.74223
      vertex 8.09324 4.95568e-16 -5.74223
    endloop
  endfacet
  facet normal 0.522499 3.19938e-17 0.85264
    outer loop
      vertex 7.5313 4.61159e-16 -5.39787
      vertex 7.5313 -30 -5.39787
      vertex 8.09324 4.95568e-16 -5.74223
    endloop
  endfacet
  facet normal 0.649448 3.97672e-17 0.760406
    outer loop
      vertex 7.03015 -30 -4.96985
      vertex 7.5313 -30 -5.39787
      vertex 7.5313 4.61159e-16 -5.39787
    endloop
  endfacet
  facet normal 0.649448 3.97672e-17 0.760406
    outer loop
      vertex 7.03015 4.30473e-16 -4.96985
      vertex 7.03015 -30 -4.96985
      vertex 7.5313 4.61159e-16 -5.39787
    endloop
  endfacet
  facet normal 0.760406 4.65614e-17 0.649448
    outer loop
      vertex 7.03015 4.30473e-16 -4.96985
      vertex 6.61803 -6.82443 -4.48732
      vertex 6.78201 -7.09202 -4.67931
    endloop
  endfacet
  facet normal 0.760406 4.65614e-17 0.649448
    outer loop
      vertex 6.97538 -7.68713 -4.90571
      vertex 7.03015 4.30473e-16 -4.96985
      vertex 6.90211 -7.38197 -4.81993
    endloop
  endfacet
  facet normal 0.760406 4.65614e-17 0.649448
    outer loop
      vertex 6.90211 -7.38197 -4.81993
      vertex 7.03015 4.30473e-16 -4.96985
      vertex 6.78201 -7.09202 -4.67931
    endloop
  endfacet
  facet normal 0.760406 4.65614e-17 0.649448
    outer loop
      vertex 6.60213 -6.80581 -4.4687
      vertex 6.61803 -6.82443 -4.48732
      vertex 7.03015 4.30473e-16 -4.96985
    endloop
  endfacet
  facet normal 0.760406 4.65614e-17 0.649448
    outer loop
      vertex 7 -8 -4.93454
      vertex 7.03015 4.30473e-16 -4.96985
      vertex 6.97538 -7.68713 -4.90571
    endloop
  endfacet
  facet normal 0.760406 4.65614e-17 0.649448
    outer loop
      vertex 6.97538 -8.31287 -4.90571
      vertex 6.60213 -30 -4.4687
      vertex 7 -8 -4.93454
    endloop
  endfacet
  facet normal 0.760406 4.65614e-17 0.649448
    outer loop
      vertex 6.90211 -8.61803 -4.81993
      vertex 6.60213 -30 -4.4687
      vertex 6.97538 -8.31287 -4.90571
    endloop
  endfacet
  facet normal 0.760406 4.65614e-17 0.649448
    outer loop
      vertex 6.78201 -8.90798 -4.67931
      vertex 6.60213 -30 -4.4687
      vertex 6.90211 -8.61803 -4.81993
    endloop
  endfacet
  facet normal 0.760406 4.65614e-17 0.649448
    outer loop
      vertex 6.61803 -9.17557 -4.48732
      vertex 6.60213 -30 -4.4687
      vertex 6.78201 -8.90798 -4.67931
    endloop
  endfacet
  facet normal 0.760406 4.65614e-17 0.649448
    outer loop
      vertex 6.60213 -9.19419 -4.4687
      vertex 6.60213 -30 -4.4687
      vertex 6.61803 -9.17557 -4.48732
    endloop
  endfacet
  facet normal 0.760406 4.65614e-17 0.649448
    outer loop
      vertex 6.60213 -30 -4.4687
      vertex 7.03015 -30 -4.96985
      vertex 7 -8 -4.93454
    endloop
  endfacet
  facet normal 0.760406 4.65614e-17 0.649448
    outer loop
      vertex 7.03015 -30 -4.96985
      vertex 7.03015 4.30473e-16 -4.96985
      vertex 7 -8 -4.93454
    endloop
  endfacet
  facet normal 0.760406 4.65614e-17 0.649448
    outer loop
      vertex 7.03015 4.30473e-16 -4.96985
      vertex 6.60213 4.04264e-16 -4.4687
      vertex 6.60213 -6.80581 -4.4687
    endloop
  endfacet
  facet normal 0.85264 5.22092e-17 0.522499
    outer loop
      vertex 6.25777 -6.45217 -3.90676
      vertex 6.41421 -6.58579 -4.16205
      vertex 6.60213 4.04264e-16 -4.4687
    endloop
  endfacet
  facet normal 0.85264 5.22092e-17 0.522499
    outer loop
      vertex 6.60213 4.04264e-16 -4.4687
      vertex 6.41421 -6.58579 -4.16205
      vertex 6.60213 -6.80581 -4.4687
    endloop
  endfacet
  facet normal 0.85264 5.22092e-17 0.522499
    outer loop
      vertex 6.25777 -6.45217 -3.90676
      vertex 6.60213 4.04264e-16 -4.4687
      vertex 6.25777 3.83178e-16 -3.90676
    endloop
  endfacet
  facet normal 0.92388 5.65713e-17 0.382683
    outer loop
      vertex 6.00556 -6.27779 -3.29787
      vertex 6.17557 -6.38197 -3.70831
      vertex 6.25777 3.83178e-16 -3.90676
    endloop
  endfacet
  facet normal 0.92388 5.65713e-17 0.382683
    outer loop
      vertex 6.25777 3.83178e-16 -3.90676
      vertex 6.17557 -6.38197 -3.70831
      vertex 6.25777 -6.45217 -3.90676
    endloop
  endfacet
  facet normal 0.92388 5.65713e-17 0.382683
    outer loop
      vertex 6.00556 -6.27779 -3.29787
      vertex 6.25777 3.83178e-16 -3.90676
      vertex 6.00556 3.67735e-16 -3.29787
    endloop
  endfacet
  facet normal 0.97237 5.95405e-17 0.233446
    outer loop
      vertex 5.85171 -6.19468 -2.65702
      vertex 5.90798 -6.21799 -2.89141
      vertex 6.00556 3.67735e-16 -3.29787
    endloop
  endfacet
  facet normal 0.97237 5.95405e-17 0.233446
    outer loop
      vertex 6.00556 3.67735e-16 -3.29787
      vertex 5.90798 -6.21799 -2.89141
      vertex 6.00556 -6.27779 -3.29787
    endloop
  endfacet
  facet normal 0.97237 5.95405e-17 0.233446
    outer loop
      vertex 5.85171 -6.19468 -2.65702
      vertex 6.00556 3.67735e-16 -3.29787
      vertex 5.85171 3.58314e-16 -2.65702
    endloop
  endfacet
  facet normal 0.996917 6.10436e-17 0.0784591
    outer loop
      vertex 5.8 -6.17326 -2
      vertex 5.85171 -6.19468 -2.65702
      vertex 5.85171 3.58314e-16 -2.65702
    endloop
  endfacet
  facet normal 0.996917 6.10436e-17 0.0784591
    outer loop
      vertex 5.8 3.55148e-16 -2
      vertex 5.8 -6.17326 -2
      vertex 5.85171 3.58314e-16 -2.65702
    endloop
  endfacet
  facet normal -0.522498 -0.852641 2.02154e-17
    outer loop
      vertex 5.90798 -6.21799 -7.5
      vertex 6.17557 -6.38197 -7.5
      vertex 6.17557 -6.38197 -3.70831
    endloop
  endfacet
  facet normal -0.522498 -0.852641 2.02154e-17
    outer loop
      vertex 5.90798 -6.21799 -2.89141
      vertex 5.90798 -6.21799 -7.5
      vertex 6.00556 -6.27779 -3.29787
    endloop
  endfacet
  facet normal -0.522498 -0.852641 2.02154e-17
    outer loop
      vertex 6.00556 -6.27779 -3.29787
      vertex 5.90798 -6.21799 -7.5
      vertex 6.17557 -6.38197 -3.70831
    endloop
  endfacet
  facet normal -0.522498 0.852641 -8.42029e-17
    outer loop
      vertex 6.17557 -9.61803 -3.70831
      vertex 6.17557 -9.61803 -7.5
      vertex 6.00556 -9.72221 -3.29787
    endloop
  endfacet
  facet normal -0.522498 0.852641 -8.42029e-17
    outer loop
      vertex 6.00556 -9.72221 -3.29787
      vertex 6.17557 -9.61803 -7.5
      vertex 5.90798 -9.78201 -7.5
    endloop
  endfacet
  facet normal -0.522498 0.852641 -8.42029e-17
    outer loop
      vertex 6.00556 -9.72221 -3.29787
      vertex 5.90798 -9.78201 -7.5
      vertex 5.90798 -9.78201 -2.89141
    endloop
  endfacet
  facet normal 0.97237 5.95405e-17 0.233446
    outer loop
      vertex 5.85171 -30 -2.65702
      vertex 6.00556 -30 -3.29787
      vertex 6.00556 -9.72221 -3.29787
    endloop
  endfacet
  facet normal 0.97237 5.95405e-17 0.233446
    outer loop
      vertex 5.85171 -9.80532 -2.65702
      vertex 5.85171 -30 -2.65702
      vertex 5.90798 -9.78201 -2.89141
    endloop
  endfacet
  facet normal 0.97237 5.95405e-17 0.233446
    outer loop
      vertex 5.90798 -9.78201 -2.89141
      vertex 5.85171 -30 -2.65702
      vertex 6.00556 -9.72221 -3.29787
    endloop
  endfacet
  facet normal 0.996917 6.10436e-17 0.0784591
    outer loop
      vertex 5.8 -30 -2
      vertex 5.85171 -30 -2.65702
      vertex 5.85171 -9.80532 -2.65702
    endloop
  endfacet
  facet normal 0.996917 6.10436e-17 0.0784591
    outer loop
      vertex 5.8 -9.82674 -2
      vertex 5.8 -30 -2
      vertex 5.85171 -9.80532 -2.65702
    endloop
  endfacet
  facet normal 0.92388 5.65713e-17 0.382683
    outer loop
      vertex 6.00556 -30 -3.29787
      vertex 6.25777 -30 -3.90676
      vertex 6.25777 -9.54783 -3.90676
    endloop
  endfacet
  facet normal 0.92388 5.65713e-17 0.382683
    outer loop
      vertex 6.00556 -9.72221 -3.29787
      vertex 6.00556 -30 -3.29787
      vertex 6.17557 -9.61803 -3.70831
    endloop
  endfacet
  facet normal 0.92388 5.65713e-17 0.382683
    outer loop
      vertex 6.17557 -9.61803 -3.70831
      vertex 6.00556 -30 -3.29787
      vertex 6.25777 -9.54783 -3.90676
    endloop
  endfacet
  facet normal 0.85264 5.22092e-17 0.522499
    outer loop
      vertex 6.25777 -30 -3.90676
      vertex 6.60213 -30 -4.4687
      vertex 6.60213 -9.19419 -4.4687
    endloop
  endfacet
  facet normal 0.85264 5.22092e-17 0.522499
    outer loop
      vertex 6.25777 -9.54783 -3.90676
      vertex 6.25777 -30 -3.90676
      vertex 6.41421 -9.41421 -4.16205
    endloop
  endfacet
  facet normal 0.85264 5.22092e-17 0.522499
    outer loop
      vertex 6.41421 -9.41421 -4.16205
      vertex 6.25777 -30 -3.90676
      vertex 6.60213 -9.19419 -4.4687
    endloop
  endfacet
  facet normal -0.85264 -5.22092e-17 0.522499
    outer loop
      vertex 13.3979 -9.19419 -4.4687
      vertex 13.3979 -30 -4.4687
      vertex 13.5858 -9.41421 -4.16205
    endloop
  endfacet
  facet normal -0.85264 -5.22092e-17 0.522499
    outer loop
      vertex 13.5858 -9.41421 -4.16205
      vertex 13.3979 -30 -4.4687
      vertex 13.7422 -30 -3.90676
    endloop
  endfacet
  facet normal -0.85264 -5.22092e-17 0.522499
    outer loop
      vertex 13.5858 -9.41421 -4.16205
      vertex 13.7422 -30 -3.90676
      vertex 13.7422 -9.54783 -3.90676
    endloop
  endfacet
  facet normal -0.92388 -5.65713e-17 0.382683
    outer loop
      vertex 13.7422 -9.54783 -3.90676
      vertex 13.7422 -30 -3.90676
      vertex 13.8244 -9.61803 -3.70831
    endloop
  endfacet
  facet normal -0.92388 -5.65713e-17 0.382683
    outer loop
      vertex 13.8244 -9.61803 -3.70831
      vertex 13.7422 -30 -3.90676
      vertex 13.9944 -30 -3.29787
    endloop
  endfacet
  facet normal -0.92388 -5.65713e-17 0.382683
    outer loop
      vertex 13.8244 -9.61803 -3.70831
      vertex 13.9944 -30 -3.29787
      vertex 13.9944 -9.72221 -3.29787
    endloop
  endfacet
  facet normal -0.97237 -5.95405e-17 0.233446
    outer loop
      vertex 13.9944 -9.72221 -3.29787
      vertex 13.9944 -30 -3.29787
      vertex 14.092 -9.78201 -2.89141
    endloop
  endfacet
  facet normal -0.97237 -5.95405e-17 0.233446
    outer loop
      vertex 14.092 -9.78201 -2.89141
      vertex 13.9944 -30 -3.29787
      vertex 14.1483 -30 -2.65702
    endloop
  endfacet
  facet normal -0.97237 -5.95405e-17 0.233446
    outer loop
      vertex 14.092 -9.78201 -2.89141
      vertex 14.1483 -30 -2.65702
      vertex 14.1483 -9.80532 -2.65702
    endloop
  endfacet
  facet normal -0.996917 -6.10436e-17 0.0784591
    outer loop
      vertex 14.1483 -30 -2.65702
      vertex 14.2 -30 -2
      vertex 14.1483 -9.80532 -2.65702
    endloop
  endfacet
  facet normal -0.996917 -6.10436e-17 0.0784591
    outer loop
      vertex 14.1483 -9.80532 -2.65702
      vertex 14.2 -30 -2
      vertex 14.2 -9.82674 -2
    endloop
  endfacet
  facet normal -1 -6.12323e-17 -6.12323e-17
    outer loop
      vertex 14.2 -30 -2
      vertex 14.2 -30 8.69499e-16
      vertex 14.2 -9.82674 -2
    endloop
  endfacet
  facet normal -1 -6.12323e-17 -6.12323e-17
    outer loop
      vertex 14.2 -9.82674 -2
      vertex 14.2 -30 8.69499e-16
      vertex 14.2 -9.82674 8.69499e-16
    endloop
  endfacet
  facet normal -0.649447 -0.760407 6.79429e-18
    outer loop
      vertex 6.17557 -6.38197 -7.5
      vertex 6.41421 -6.58579 -7.5
      vertex 6.41421 -6.58579 -4.16205
    endloop
  endfacet
  facet normal -0.649447 -0.760407 6.79429e-18
    outer loop
      vertex 6.17557 -6.38197 -3.70831
      vertex 6.17557 -6.38197 -7.5
      vertex 6.25777 -6.45217 -3.90676
    endloop
  endfacet
  facet normal -0.649447 -0.760407 6.79429e-18
    outer loop
      vertex 6.25777 -6.45217 -3.90676
      vertex 6.17557 -6.38197 -7.5
      vertex 6.41421 -6.58579 -4.16205
    endloop
  endfacet
  facet normal -0.760407 -0.649447 -6.79429e-18
    outer loop
      vertex 6.61803 -6.82443 -7.5
      vertex 6.61803 -6.82443 -4.48732
      vertex 6.41421 -6.58579 -7.5
    endloop
  endfacet
  facet normal -0.760407 -0.649447 -6.79429e-18
    outer loop
      vertex 6.41421 -6.58579 -7.5
      vertex 6.61803 -6.82443 -4.48732
      vertex 6.60213 -6.80581 -4.4687
    endloop
  endfacet
  facet normal -0.760407 -0.649447 -6.79429e-18
    outer loop
      vertex 6.41421 -6.58579 -7.5
      vertex 6.60213 -6.80581 -4.4687
      vertex 6.41421 -6.58579 -4.16205
    endloop
  endfacet
  facet normal -0.852641 -0.522498 -2.02154e-17
    outer loop
      vertex 6.78201 -7.09202 -7.5
      vertex 6.78201 -7.09202 -4.67931
      vertex 6.61803 -6.82443 -7.5
    endloop
  endfacet
  facet normal -0.852641 -0.522498 -2.02154e-17
    outer loop
      vertex 6.61803 -6.82443 -7.5
      vertex 6.78201 -7.09202 -4.67931
      vertex 6.61803 -6.82443 -4.48732
    endloop
  endfacet
  facet normal -0.92388 -0.382683 -3.31387e-17
    outer loop
      vertex 6.90211 -7.38197 -7.5
      vertex 6.90211 -7.38197 -4.81993
      vertex 6.78201 -7.09202 -7.5
    endloop
  endfacet
  facet normal -0.92388 -0.382683 -3.31387e-17
    outer loop
      vertex 6.78201 -7.09202 -7.5
      vertex 6.90211 -7.38197 -4.81993
      vertex 6.78201 -7.09202 -4.67931
    endloop
  endfacet
  facet normal -0.97237 -0.233446 -4.5246e-17
    outer loop
      vertex 6.97538 -7.68713 -7.5
      vertex 6.97538 -7.68713 -4.90571
      vertex 6.90211 -7.38197 -7.5
    endloop
  endfacet
  facet normal -0.97237 -0.233446 -4.5246e-17
    outer loop
      vertex 6.90211 -7.38197 -7.5
      vertex 6.97538 -7.68713 -4.90571
      vertex 6.90211 -7.38197 -4.81993
    endloop
  endfacet
  facet normal -0.996917 -0.0784581 -5.62394e-17
    outer loop
      vertex 7 -8 -7.5
      vertex 7 -8 -4.93454
      vertex 6.97538 -7.68713 -7.5
    endloop
  endfacet
  facet normal -0.996917 -0.0784581 -5.62394e-17
    outer loop
      vertex 6.97538 -7.68713 -7.5
      vertex 7 -8 -4.93454
      vertex 6.97538 -7.68713 -4.90571
    endloop
  endfacet
  facet normal -0.996917 0.0784581 -6.58478e-17
    outer loop
      vertex 7 -8 -7.5
      vertex 6.97538 -8.31287 -7.5
      vertex 7 -8 -4.93454
    endloop
  endfacet
  facet normal -0.996917 0.0784581 -6.58478e-17
    outer loop
      vertex 7 -8 -4.93454
      vertex 6.97538 -8.31287 -7.5
      vertex 6.97538 -8.31287 -4.90571
    endloop
  endfacet
  facet normal -0.97237 0.233446 -7.38349e-17
    outer loop
      vertex 6.97538 -8.31287 -7.5
      vertex 6.90211 -8.61803 -7.5
      vertex 6.97538 -8.31287 -4.90571
    endloop
  endfacet
  facet normal -0.97237 0.233446 -7.38349e-17
    outer loop
      vertex 6.97538 -8.31287 -4.90571
      vertex 6.90211 -8.61803 -7.5
      vertex 6.90211 -8.61803 -4.81993
    endloop
  endfacet
  facet normal -0.92388 0.382683 -8.00039e-17
    outer loop
      vertex 6.90211 -8.61803 -7.5
      vertex 6.78201 -8.90798 -7.5
      vertex 6.90211 -8.61803 -4.81993
    endloop
  endfacet
  facet normal -0.92388 0.382683 -8.00039e-17
    outer loop
      vertex 6.90211 -8.61803 -4.81993
      vertex 6.78201 -8.90798 -7.5
      vertex 6.78201 -8.90798 -4.67931
    endloop
  endfacet
  facet normal -0.852641 0.522498 -8.42029e-17
    outer loop
      vertex 6.78201 -8.90798 -7.5
      vertex 6.61803 -9.17557 -7.5
      vertex 6.78201 -8.90798 -4.67931
    endloop
  endfacet
  facet normal -0.852641 0.522498 -8.42029e-17
    outer loop
      vertex 6.78201 -8.90798 -4.67931
      vertex 6.61803 -9.17557 -7.5
      vertex 6.61803 -9.17557 -4.48732
    endloop
  endfacet
  facet normal -0.760407 0.649447 -8.63287e-17
    outer loop
      vertex 6.61803 -9.17557 -4.48732
      vertex 6.61803 -9.17557 -7.5
      vertex 6.60213 -9.19419 -4.4687
    endloop
  endfacet
  facet normal -0.760407 0.649447 -8.63287e-17
    outer loop
      vertex 6.60213 -9.19419 -4.4687
      vertex 6.61803 -9.17557 -7.5
      vertex 6.41421 -9.41421 -7.5
    endloop
  endfacet
  facet normal -0.760407 0.649447 -8.63287e-17
    outer loop
      vertex 6.60213 -9.19419 -4.4687
      vertex 6.41421 -9.41421 -7.5
      vertex 6.41421 -9.41421 -4.16205
    endloop
  endfacet
  facet normal -0.649447 0.760407 -8.63287e-17
    outer loop
      vertex 6.41421 -9.41421 -4.16205
      vertex 6.41421 -9.41421 -7.5
      vertex 6.25777 -9.54783 -3.90676
    endloop
  endfacet
  facet normal -0.649447 0.760407 -8.63287e-17
    outer loop
      vertex 6.25777 -9.54783 -3.90676
      vertex 6.41421 -9.41421 -7.5
      vertex 6.17557 -9.61803 -7.5
    endloop
  endfacet
  facet normal -0.649447 0.760407 -8.63287e-17
    outer loop
      vertex 6.25777 -9.54783 -3.90676
      vertex 6.17557 -9.61803 -7.5
      vertex 6.17557 -9.61803 -3.70831
    endloop
  endfacet
  facet normal 0.996917 -0.0784581 6.58478e-17
    outer loop
      vertex 13 -8 -4.93454
      vertex 13 -8 -7.5
      vertex 13.0246 -7.68713 -7.5
    endloop
  endfacet
  facet normal 0.996917 -0.0784581 6.58478e-17
    outer loop
      vertex 13.0246 -7.68713 -4.90571
      vertex 13 -8 -4.93454
      vertex 13.0246 -7.68713 -7.5
    endloop
  endfacet
  facet normal 0.97237 -0.233446 7.38349e-17
    outer loop
      vertex 13.0246 -7.68713 -4.90571
      vertex 13.0246 -7.68713 -7.5
      vertex 13.0979 -7.38197 -7.5
    endloop
  endfacet
  facet normal 0.97237 -0.233446 7.38349e-17
    outer loop
      vertex 13.0979 -7.38197 -4.81993
      vertex 13.0246 -7.68713 -4.90571
      vertex 13.0979 -7.38197 -7.5
    endloop
  endfacet
  facet normal 0.92388 -0.382683 8.00039e-17
    outer loop
      vertex 13.0979 -7.38197 -4.81993
      vertex 13.0979 -7.38197 -7.5
      vertex 13.218 -7.09202 -7.5
    endloop
  endfacet
  facet normal 0.92388 -0.382683 8.00039e-17
    outer loop
      vertex 13.218 -7.09202 -4.67931
      vertex 13.0979 -7.38197 -4.81993
      vertex 13.218 -7.09202 -7.5
    endloop
  endfacet
  facet normal 0.852641 -0.522498 8.42029e-17
    outer loop
      vertex 13.218 -7.09202 -4.67931
      vertex 13.218 -7.09202 -7.5
      vertex 13.382 -6.82443 -7.5
    endloop
  endfacet
  facet normal 0.852641 -0.522498 8.42029e-17
    outer loop
      vertex 13.382 -6.82443 -4.48732
      vertex 13.218 -7.09202 -4.67931
      vertex 13.382 -6.82443 -7.5
    endloop
  endfacet
  facet normal 0.760407 -0.649447 8.63287e-17
    outer loop
      vertex 13.3979 -6.80581 -4.4687
      vertex 13.382 -6.82443 -4.48732
      vertex 13.382 -6.82443 -7.5
    endloop
  endfacet
  facet normal 0.760407 -0.649447 8.63287e-17
    outer loop
      vertex 13.5858 -6.58579 -4.16205
      vertex 13.3979 -6.80581 -4.4687
      vertex 13.5858 -6.58579 -7.5
    endloop
  endfacet
  facet normal 0.760407 -0.649447 8.63287e-17
    outer loop
      vertex 13.5858 -6.58579 -7.5
      vertex 13.3979 -6.80581 -4.4687
      vertex 13.382 -6.82443 -7.5
    endloop
  endfacet
  facet normal 0.649447 -0.760407 8.63287e-17
    outer loop
      vertex 13.7422 -6.45217 -3.90676
      vertex 13.5858 -6.58579 -4.16205
      vertex 13.5858 -6.58579 -7.5
    endloop
  endfacet
  facet normal 0.649447 -0.760407 8.63287e-17
    outer loop
      vertex 13.8244 -6.38197 -3.70831
      vertex 13.7422 -6.45217 -3.90676
      vertex 13.8244 -6.38197 -7.5
    endloop
  endfacet
  facet normal 0.649447 -0.760407 8.63287e-17
    outer loop
      vertex 13.8244 -6.38197 -7.5
      vertex 13.7422 -6.45217 -3.90676
      vertex 13.5858 -6.58579 -7.5
    endloop
  endfacet
  facet normal 0.522498 -0.852641 8.42029e-17
    outer loop
      vertex 13.9944 -6.27779 -3.29787
      vertex 13.8244 -6.38197 -3.70831
      vertex 13.8244 -6.38197 -7.5
    endloop
  endfacet
  facet normal 0.522498 -0.852641 8.42029e-17
    outer loop
      vertex 14.092 -6.21799 -2.89141
      vertex 13.9944 -6.27779 -3.29787
      vertex 14.092 -6.21799 -7.5
    endloop
  endfacet
  facet normal 0.522498 -0.852641 8.42029e-17
    outer loop
      vertex 14.092 -6.21799 -7.5
      vertex 13.9944 -6.27779 -3.29787
      vertex 13.8244 -6.38197 -7.5
    endloop
  endfacet
  facet normal 0.382683 -0.92388 8.00039e-17
    outer loop
      vertex 14.2 -6.17326 -2
      vertex 14.1483 -6.19468 -2.65702
      vertex 14.092 -6.21799 -7.5
    endloop
  endfacet
  facet normal 0.382683 -0.92388 8.00039e-17
    outer loop
      vertex 14.092 -6.21799 -7.5
      vertex 14.1483 -6.19468 -2.65702
      vertex 14.092 -6.21799 -2.89141
    endloop
  endfacet
  facet normal 0.382683 -0.92388 8.00039e-17
    outer loop
      vertex 14.2 -6.17326 -2
      vertex 14.092 -6.21799 -7.5
      vertex 14.382 -6.09789 -7.5
    endloop
  endfacet
  facet normal 0.382683 -0.92388 8.00039e-17
    outer loop
      vertex 14.2 -6.17326 -2
      vertex 14.382 -6.09789 -7.5
      vertex 14.382 -6.09789 8.80641e-16
    endloop
  endfacet
  facet normal 0.382683 -0.92388 8.00039e-17
    outer loop
      vertex 14.2 -6.17326 8.69499e-16
      vertex 14.2 -6.17326 -2
      vertex 14.382 -6.09789 8.80641e-16
    endloop
  endfacet
  facet normal 0.233446 -0.97237 7.38349e-17
    outer loop
      vertex 14.382 -6.09789 -7.5
      vertex 14.6871 -6.02462 -7.5
      vertex 14.6871 -6.02462 8.99327e-16
    endloop
  endfacet
  facet normal 0.233446 -0.97237 7.38349e-17
    outer loop
      vertex 14.382 -6.09789 8.80641e-16
      vertex 14.382 -6.09789 -7.5
      vertex 14.6871 -6.02462 8.99327e-16
    endloop
  endfacet
  facet normal 0.0784581 -0.996917 6.58478e-17
    outer loop
      vertex 14.6871 -6.02462 -7.5
      vertex 15 -6 -7.5
      vertex 15 -6 9.18485e-16
    endloop
  endfacet
  facet normal 0.0784581 -0.996917 6.58478e-17
    outer loop
      vertex 14.6871 -6.02462 8.99327e-16
      vertex 14.6871 -6.02462 -7.5
      vertex 15 -6 9.18485e-16
    endloop
  endfacet
  facet normal -0.0784581 -0.996917 5.62394e-17
    outer loop
      vertex 15 -6 -7.5
      vertex 15.3129 -6.02462 -7.5
      vertex 15.3129 -6.02462 9.37643e-16
    endloop
  endfacet
  facet normal -0.0784581 -0.996917 5.62394e-17
    outer loop
      vertex 15 -6 9.18485e-16
      vertex 15 -6 -7.5
      vertex 15.3129 -6.02462 9.37643e-16
    endloop
  endfacet
  facet normal -0.233446 -0.97237 4.5246e-17
    outer loop
      vertex 15.3129 -6.02462 -7.5
      vertex 15.618 -6.09789 -7.5
      vertex 15.618 -6.09789 9.56329e-16
    endloop
  endfacet
  facet normal -0.233446 -0.97237 4.5246e-17
    outer loop
      vertex 15.3129 -6.02462 9.37643e-16
      vertex 15.3129 -6.02462 -7.5
      vertex 15.618 -6.09789 9.56329e-16
    endloop
  endfacet
  facet normal -0.382683 -0.92388 3.31387e-17
    outer loop
      vertex 15.618 -6.09789 -7.5
      vertex 15.908 -6.21799 -7.5
      vertex 15.908 -6.21799 9.74083e-16
    endloop
  endfacet
  facet normal -0.382683 -0.92388 3.31387e-17
    outer loop
      vertex 15.618 -6.09789 9.56329e-16
      vertex 15.618 -6.09789 -7.5
      vertex 15.908 -6.21799 9.74083e-16
    endloop
  endfacet
  facet normal -0.522498 -0.852641 2.02154e-17
    outer loop
      vertex 15.908 -6.21799 -7.5
      vertex 16.1756 -6.38197 -7.5
      vertex 16.1756 -6.38197 9.90468e-16
    endloop
  endfacet
  facet normal -0.522498 -0.852641 2.02154e-17
    outer loop
      vertex 15.908 -6.21799 9.74083e-16
      vertex 15.908 -6.21799 -7.5
      vertex 16.1756 -6.38197 9.90468e-16
    endloop
  endfacet
  facet normal -0.649447 -0.760407 6.79429e-18
    outer loop
      vertex 16.1756 -6.38197 -7.5
      vertex 16.4142 -6.58579 -7.5
      vertex 16.4142 -6.58579 1.00508e-15
    endloop
  endfacet
  facet normal -0.649447 -0.760407 6.79429e-18
    outer loop
      vertex 16.1756 -6.38197 9.90468e-16
      vertex 16.1756 -6.38197 -7.5
      vertex 16.4142 -6.58579 1.00508e-15
    endloop
  endfacet
  facet normal -0.760407 -0.649447 -6.79429e-18
    outer loop
      vertex 16.618 -6.82443 -7.5
      vertex 16.618 -6.82443 1.01756e-15
      vertex 16.4142 -6.58579 -7.5
    endloop
  endfacet
  facet normal -0.760407 -0.649447 -6.79429e-18
    outer loop
      vertex 16.4142 -6.58579 -7.5
      vertex 16.618 -6.82443 1.01756e-15
      vertex 16.4142 -6.58579 1.00508e-15
    endloop
  endfacet
  facet normal -0.852641 -0.522498 -2.02154e-17
    outer loop
      vertex 16.782 -7.09202 -7.5
      vertex 16.782 -7.09202 1.0276e-15
      vertex 16.618 -6.82443 -7.5
    endloop
  endfacet
  facet normal -0.852641 -0.522498 -2.02154e-17
    outer loop
      vertex 16.618 -6.82443 -7.5
      vertex 16.782 -7.09202 1.0276e-15
      vertex 16.618 -6.82443 1.01756e-15
    endloop
  endfacet
  facet normal -0.92388 -0.382683 -3.31387e-17
    outer loop
      vertex 16.9021 -7.38197 -7.5
      vertex 16.9021 -7.38197 1.03496e-15
      vertex 16.782 -7.09202 -7.5
    endloop
  endfacet
  facet normal -0.92388 -0.382683 -3.31387e-17
    outer loop
      vertex 16.782 -7.09202 -7.5
      vertex 16.9021 -7.38197 1.03496e-15
      vertex 16.782 -7.09202 1.0276e-15
    endloop
  endfacet
  facet normal -0.97237 -0.233446 -4.5246e-17
    outer loop
      vertex 16.9754 -7.68713 -7.5
      vertex 16.9754 -7.68713 1.03944e-15
      vertex 16.9021 -7.38197 -7.5
    endloop
  endfacet
  facet normal -0.97237 -0.233446 -4.5246e-17
    outer loop
      vertex 16.9021 -7.38197 -7.5
      vertex 16.9754 -7.68713 1.03944e-15
      vertex 16.9021 -7.38197 1.03496e-15
    endloop
  endfacet
  facet normal -0.996917 -0.0784581 -5.62394e-17
    outer loop
      vertex 17 -8 -7.5
      vertex 17 -8 1.04095e-15
      vertex 16.9754 -7.68713 -7.5
    endloop
  endfacet
  facet normal -0.996917 -0.0784581 -5.62394e-17
    outer loop
      vertex 16.9754 -7.68713 -7.5
      vertex 17 -8 1.04095e-15
      vertex 16.9754 -7.68713 1.03944e-15
    endloop
  endfacet
  facet normal -0.996917 0.0784581 -6.58478e-17
    outer loop
      vertex 17 -8 -7.5
      vertex 16.9754 -8.31287 -7.5
      vertex 17 -8 1.04095e-15
    endloop
  endfacet
  facet normal -0.996917 0.0784581 -6.58478e-17
    outer loop
      vertex 17 -8 1.04095e-15
      vertex 16.9754 -8.31287 -7.5
      vertex 16.9754 -8.31287 1.03944e-15
    endloop
  endfacet
  facet normal -0.97237 0.233446 -7.38349e-17
    outer loop
      vertex 16.9754 -8.31287 -7.5
      vertex 16.9021 -8.61803 -7.5
      vertex 16.9754 -8.31287 1.03944e-15
    endloop
  endfacet
  facet normal -0.97237 0.233446 -7.38349e-17
    outer loop
      vertex 16.9754 -8.31287 1.03944e-15
      vertex 16.9021 -8.61803 -7.5
      vertex 16.9021 -8.61803 1.03496e-15
    endloop
  endfacet
  facet normal -0.92388 0.382683 -8.00039e-17
    outer loop
      vertex 16.9021 -8.61803 -7.5
      vertex 16.782 -8.90798 -7.5
      vertex 16.9021 -8.61803 1.03496e-15
    endloop
  endfacet
  facet normal -0.92388 0.382683 -8.00039e-17
    outer loop
      vertex 16.9021 -8.61803 1.03496e-15
      vertex 16.782 -8.90798 -7.5
      vertex 16.782 -8.90798 1.0276e-15
    endloop
  endfacet
  facet normal -0.852641 0.522498 -8.42029e-17
    outer loop
      vertex 16.782 -8.90798 -7.5
      vertex 16.618 -9.17557 -7.5
      vertex 16.782 -8.90798 1.0276e-15
    endloop
  endfacet
  facet normal -0.852641 0.522498 -8.42029e-17
    outer loop
      vertex 16.782 -8.90798 1.0276e-15
      vertex 16.618 -9.17557 -7.5
      vertex 16.618 -9.17557 1.01756e-15
    endloop
  endfacet
  facet normal -0.760407 0.649447 -8.63287e-17
    outer loop
      vertex 16.618 -9.17557 -7.5
      vertex 16.4142 -9.41421 -7.5
      vertex 16.618 -9.17557 1.01756e-15
    endloop
  endfacet
  facet normal -0.760407 0.649447 -8.63287e-17
    outer loop
      vertex 16.618 -9.17557 1.01756e-15
      vertex 16.4142 -9.41421 -7.5
      vertex 16.4142 -9.41421 1.00508e-15
    endloop
  endfacet
  facet normal -0.649447 0.760407 -8.63287e-17
    outer loop
      vertex 16.4142 -9.41421 -7.5
      vertex 16.1756 -9.61803 -7.5
      vertex 16.4142 -9.41421 1.00508e-15
    endloop
  endfacet
  facet normal -0.649447 0.760407 -8.63287e-17
    outer loop
      vertex 16.4142 -9.41421 1.00508e-15
      vertex 16.1756 -9.61803 -7.5
      vertex 16.1756 -9.61803 9.90468e-16
    endloop
  endfacet
  facet normal -0.522498 0.852641 -8.42029e-17
    outer loop
      vertex 16.1756 -9.61803 -7.5
      vertex 15.908 -9.78201 -7.5
      vertex 16.1756 -9.61803 9.90468e-16
    endloop
  endfacet
  facet normal -0.522498 0.852641 -8.42029e-17
    outer loop
      vertex 16.1756 -9.61803 9.90468e-16
      vertex 15.908 -9.78201 -7.5
      vertex 15.908 -9.78201 9.74083e-16
    endloop
  endfacet
  facet normal -0.382683 0.92388 -8.00039e-17
    outer loop
      vertex 15.908 -9.78201 -7.5
      vertex 15.618 -9.90211 -7.5
      vertex 15.908 -9.78201 9.74083e-16
    endloop
  endfacet
  facet normal -0.382683 0.92388 -8.00039e-17
    outer loop
      vertex 15.908 -9.78201 9.74083e-16
      vertex 15.618 -9.90211 -7.5
      vertex 15.618 -9.90211 9.56329e-16
    endloop
  endfacet
  facet normal -0.233446 0.97237 -7.38349e-17
    outer loop
      vertex 15.618 -9.90211 -7.5
      vertex 15.3129 -9.97538 -7.5
      vertex 15.618 -9.90211 9.56329e-16
    endloop
  endfacet
  facet normal -0.233446 0.97237 -7.38349e-17
    outer loop
      vertex 15.618 -9.90211 9.56329e-16
      vertex 15.3129 -9.97538 -7.5
      vertex 15.3129 -9.97538 9.37643e-16
    endloop
  endfacet
  facet normal -0.0784581 0.996917 -6.58478e-17
    outer loop
      vertex 15.3129 -9.97538 -7.5
      vertex 15 -10 -7.5
      vertex 15.3129 -9.97538 9.37643e-16
    endloop
  endfacet
  facet normal -0.0784581 0.996917 -6.58478e-17
    outer loop
      vertex 15.3129 -9.97538 9.37643e-16
      vertex 15 -10 -7.5
      vertex 15 -10 9.18485e-16
    endloop
  endfacet
  facet normal 0.0784581 0.996917 -5.62394e-17
    outer loop
      vertex 15 -10 -7.5
      vertex 14.6871 -9.97538 -7.5
      vertex 15 -10 9.18485e-16
    endloop
  endfacet
  facet normal 0.0784581 0.996917 -5.62394e-17
    outer loop
      vertex 15 -10 9.18485e-16
      vertex 14.6871 -9.97538 -7.5
      vertex 14.6871 -9.97538 8.99327e-16
    endloop
  endfacet
  facet normal 0.233446 0.97237 -4.5246e-17
    outer loop
      vertex 14.6871 -9.97538 -7.5
      vertex 14.382 -9.90211 -7.5
      vertex 14.6871 -9.97538 8.99327e-16
    endloop
  endfacet
  facet normal 0.233446 0.97237 -4.5246e-17
    outer loop
      vertex 14.6871 -9.97538 8.99327e-16
      vertex 14.382 -9.90211 -7.5
      vertex 14.382 -9.90211 8.80641e-16
    endloop
  endfacet
  facet normal 0.382683 0.92388 -3.31387e-17
    outer loop
      vertex 14.382 -9.90211 -7.5
      vertex 14.092 -9.78201 -7.5
      vertex 14.382 -9.90211 8.80641e-16
    endloop
  endfacet
  facet normal 0.382683 0.92388 -3.31387e-17
    outer loop
      vertex 14.1483 -9.80532 -2.65702
      vertex 14.092 -9.78201 -7.5
      vertex 14.092 -9.78201 -2.89141
    endloop
  endfacet
  facet normal 0.382683 0.92388 -3.31387e-17
    outer loop
      vertex 14.382 -9.90211 8.80641e-16
      vertex 14.092 -9.78201 -7.5
      vertex 14.1483 -9.80532 -2.65702
    endloop
  endfacet
  facet normal 0.382683 0.92388 -3.31387e-17
    outer loop
      vertex 14.382 -9.90211 8.80641e-16
      vertex 14.1483 -9.80532 -2.65702
      vertex 14.2 -9.82674 -2
    endloop
  endfacet
  facet normal 0.382683 0.92388 -3.31387e-17
    outer loop
      vertex 14.2 -9.82674 8.69499e-16
      vertex 14.382 -9.90211 8.80641e-16
      vertex 14.2 -9.82674 -2
    endloop
  endfacet
  facet normal 0.522498 0.852641 -2.02154e-17
    outer loop
      vertex 13.8244 -9.61803 -7.5
      vertex 13.8244 -9.61803 -3.70831
      vertex 14.092 -9.78201 -7.5
    endloop
  endfacet
  facet normal 0.522498 0.852641 -2.02154e-17
    outer loop
      vertex 14.092 -9.78201 -7.5
      vertex 13.8244 -9.61803 -3.70831
      vertex 13.9944 -9.72221 -3.29787
    endloop
  endfacet
  facet normal 0.522498 0.852641 -2.02154e-17
    outer loop
      vertex 14.092 -9.78201 -7.5
      vertex 13.9944 -9.72221 -3.29787
      vertex 14.092 -9.78201 -2.89141
    endloop
  endfacet
  facet normal 0.649447 0.760407 -6.79429e-18
    outer loop
      vertex 13.5858 -9.41421 -7.5
      vertex 13.5858 -9.41421 -4.16205
      vertex 13.8244 -9.61803 -7.5
    endloop
  endfacet
  facet normal 0.649447 0.760407 -6.79429e-18
    outer loop
      vertex 13.8244 -9.61803 -7.5
      vertex 13.5858 -9.41421 -4.16205
      vertex 13.7422 -9.54783 -3.90676
    endloop
  endfacet
  facet normal 0.649447 0.760407 -6.79429e-18
    outer loop
      vertex 13.8244 -9.61803 -7.5
      vertex 13.7422 -9.54783 -3.90676
      vertex 13.8244 -9.61803 -3.70831
    endloop
  endfacet
  facet normal 0.760407 0.649447 6.79429e-18
    outer loop
      vertex 13.5858 -9.41421 -7.5
      vertex 13.382 -9.17557 -7.5
      vertex 13.382 -9.17557 -4.48732
    endloop
  endfacet
  facet normal 0.760407 0.649447 6.79429e-18
    outer loop
      vertex 13.5858 -9.41421 -4.16205
      vertex 13.5858 -9.41421 -7.5
      vertex 13.3979 -9.19419 -4.4687
    endloop
  endfacet
  facet normal 0.760407 0.649447 6.79429e-18
    outer loop
      vertex 13.3979 -9.19419 -4.4687
      vertex 13.5858 -9.41421 -7.5
      vertex 13.382 -9.17557 -4.48732
    endloop
  endfacet
  facet normal 0.852641 0.522498 2.02154e-17
    outer loop
      vertex 13.382 -9.17557 -7.5
      vertex 13.218 -8.90798 -7.5
      vertex 13.218 -8.90798 -4.67931
    endloop
  endfacet
  facet normal 0.852641 0.522498 2.02154e-17
    outer loop
      vertex 13.382 -9.17557 -4.48732
      vertex 13.382 -9.17557 -7.5
      vertex 13.218 -8.90798 -4.67931
    endloop
  endfacet
  facet normal 0.92388 0.382683 3.31387e-17
    outer loop
      vertex 13.218 -8.90798 -7.5
      vertex 13.0979 -8.61803 -7.5
      vertex 13.0979 -8.61803 -4.81993
    endloop
  endfacet
  facet normal 0.92388 0.382683 3.31387e-17
    outer loop
      vertex 13.218 -8.90798 -4.67931
      vertex 13.218 -8.90798 -7.5
      vertex 13.0979 -8.61803 -4.81993
    endloop
  endfacet
  facet normal 0.97237 0.233446 4.5246e-17
    outer loop
      vertex 13.0979 -8.61803 -7.5
      vertex 13.0246 -8.31287 -7.5
      vertex 13.0246 -8.31287 -4.90571
    endloop
  endfacet
  facet normal 0.97237 0.233446 4.5246e-17
    outer loop
      vertex 13.0979 -8.61803 -4.81993
      vertex 13.0979 -8.61803 -7.5
      vertex 13.0246 -8.31287 -4.90571
    endloop
  endfacet
  facet normal 0.996917 0.0784581 5.62394e-17
    outer loop
      vertex 13.0246 -8.31287 -7.5
      vertex 13 -8 -7.5
      vertex 13 -8 -4.93454
    endloop
  endfacet
  facet normal 0.996917 0.0784581 5.62394e-17
    outer loop
      vertex 13.0246 -8.31287 -4.90571
      vertex 13.0246 -8.31287 -7.5
      vertex 13 -8 -4.93454
    endloop
  endfacet
endsolid OpenSCAD_Model
