solid OpenSCAD_Model
  facet normal -1 0 0
    outer loop
      vertex 0 1 4
      vertex 0 1 16
      vertex 0 5 0
    endloop
  endfacet
  facet normal -1 0 0
    outer loop
      vertex 0 10.7321 11.6444
      vertex 0 1 16
      vertex 0 39 16
    endloop
  endfacet
  facet normal -1 0 0
    outer loop
      vertex 0 31.3377 8.79556
      vertex 0 39 16
      vertex 0 39 0
    endloop
  endfacet
  facet normal -1 0 0
    outer loop
      vertex 0 5 0
      vertex 0 1 16
      vertex 0 8.20986 10.1882
    endloop
  endfacet
  facet normal -1 0 0
    outer loop
      vertex 0 5 0
      vertex 0 8.20986 10.1882
      vertex 0 8.20986 9.81185
    endloop
  endfacet
  facet normal -1 0 0
    outer loop
      vertex 0 5 0
      vertex 0 8.20986 9.81185
      vertex 0 8.2881 9.44377
    endloop
  endfacet
  facet normal -1 0 0
    outer loop
      vertex 0 5 0
      vertex 0 8.2881 9.44377
      vertex 0 8.44115 9.1
    endloop
  endfacet
  facet normal -1 0 0
    outer loop
      vertex 0 5 0
      vertex 0 8.44115 9.1
      vertex 0 8.66234 8.79556
    endloop
  endfacet
  facet normal -1 0 0
    outer loop
      vertex 0 5 0
      vertex 0 8.66234 8.79556
      vertex 0 8.94199 8.54377
    endloop
  endfacet
  facet normal -1 0 0
    outer loop
      vertex 0 5 0
      vertex 0 8.94199 8.54377
      vertex 0 9.26787 8.35562
    endloop
  endfacet
  facet normal -1 0 0
    outer loop
      vertex 0 5 0
      vertex 0 9.26787 8.35562
      vertex 0 9.62576 8.23933
    endloop
  endfacet
  facet normal -1 0 0
    outer loop
      vertex 0 5 0
      vertex 0 9.62576 8.23933
      vertex 0 10 8.2
    endloop
  endfacet
  facet normal -1 0 0
    outer loop
      vertex 0 5 0
      vertex 0 10 8.2
      vertex 0 10.3742 8.23933
    endloop
  endfacet
  facet normal -1 0 0
    outer loop
      vertex 0 29.6258 11.7607
      vertex 0 10.3742 8.23933
      vertex 0 39 16
    endloop
  endfacet
  facet normal -1 0 0
    outer loop
      vertex 0 10.3742 8.23933
      vertex 0 10.7321 8.35562
      vertex 0 39 16
    endloop
  endfacet
  facet normal -1 0 0
    outer loop
      vertex 0 11.3377 8.79556
      vertex 0 39 16
      vertex 0 11.058 8.54377
    endloop
  endfacet
  facet normal -1 0 0
    outer loop
      vertex 0 11.5588 9.1
      vertex 0 39 16
      vertex 0 11.3377 8.79556
    endloop
  endfacet
  facet normal -1 0 0
    outer loop
      vertex 0 11.7119 9.44377
      vertex 0 39 16
      vertex 0 11.5588 9.1
    endloop
  endfacet
  facet normal -1 0 0
    outer loop
      vertex 0 11.7901 9.81185
      vertex 0 39 16
      vertex 0 11.7119 9.44377
    endloop
  endfacet
  facet normal -1 0 0
    outer loop
      vertex 0 11.7901 10.1882
      vertex 0 39 16
      vertex 0 11.7901 9.81185
    endloop
  endfacet
  facet normal -1 0 0
    outer loop
      vertex 0 11.7119 10.5562
      vertex 0 39 16
      vertex 0 11.7901 10.1882
    endloop
  endfacet
  facet normal -1 0 0
    outer loop
      vertex 0 11.5588 10.9
      vertex 0 39 16
      vertex 0 11.7119 10.5562
    endloop
  endfacet
  facet normal -1 0 0
    outer loop
      vertex 0 28.2099 10.1882
      vertex 0 5 0
      vertex 0 28.2881 10.5562
    endloop
  endfacet
  facet normal -1 0 0
    outer loop
      vertex 0 10.3742 11.7607
      vertex 0 1 16
      vertex 0 10.7321 11.6444
    endloop
  endfacet
  facet normal -1 0 0
    outer loop
      vertex 0 9.62576 11.7607
      vertex 0 1 16
      vertex 0 10 11.8
    endloop
  endfacet
  facet normal -1 0 0
    outer loop
      vertex 0 11.5588 10.9
      vertex 0 11.3377 11.2044
      vertex 0 39 16
    endloop
  endfacet
  facet normal -1 0 0
    outer loop
      vertex 0 10 11.8
      vertex 0 1 16
      vertex 0 10.3742 11.7607
    endloop
  endfacet
  facet normal -1 0 0
    outer loop
      vertex 0 11.3377 11.2044
      vertex 0 11.058 11.4562
      vertex 0 39 16
    endloop
  endfacet
  facet normal -1 0 0
    outer loop
      vertex 0 11.058 11.4562
      vertex 0 10.7321 11.6444
      vertex 0 39 16
    endloop
  endfacet
  facet normal -1 0 0
    outer loop
      vertex 0 9.26787 11.6444
      vertex 0 1 16
      vertex 0 9.62576 11.7607
    endloop
  endfacet
  facet normal -1 0 0
    outer loop
      vertex 0 8.94199 11.4562
      vertex 0 1 16
      vertex 0 9.26787 11.6444
    endloop
  endfacet
  facet normal -1 0 0
    outer loop
      vertex 0 8.66234 11.2044
      vertex 0 1 16
      vertex 0 8.94199 11.4562
    endloop
  endfacet
  facet normal -1 0 0
    outer loop
      vertex 0 8.44115 10.9
      vertex 0 1 16
      vertex 0 8.66234 11.2044
    endloop
  endfacet
  facet normal -1 0 0
    outer loop
      vertex 0 8.2881 10.5562
      vertex 0 1 16
      vertex 0 8.44115 10.9
    endloop
  endfacet
  facet normal -1 0 0
    outer loop
      vertex 0 8.20986 10.1882
      vertex 0 1 16
      vertex 0 8.2881 10.5562
    endloop
  endfacet
  facet normal -1 0 0
    outer loop
      vertex 0 30 11.8
      vertex 0 39 16
      vertex 0 30.3742 11.7607
    endloop
  endfacet
  facet normal -1 0 0
    outer loop
      vertex 0 5 0
      vertex 0 28.2099 10.1882
      vertex 0 28.2099 9.81185
    endloop
  endfacet
  facet normal -1 0 0
    outer loop
      vertex 0 5 0
      vertex 0 28.2099 9.81185
      vertex 0 28.2881 9.44377
    endloop
  endfacet
  facet normal -1 0 0
    outer loop
      vertex 0 5 0
      vertex 0 28.2881 9.44377
      vertex 0 28.4412 9.1
    endloop
  endfacet
  facet normal -1 0 0
    outer loop
      vertex 0 5 0
      vertex 0 28.4412 9.1
      vertex 0 28.6623 8.79556
    endloop
  endfacet
  facet normal -1 0 0
    outer loop
      vertex 0 5 0
      vertex 0 28.6623 8.79556
      vertex 0 28.942 8.54377
    endloop
  endfacet
  facet normal -1 0 0
    outer loop
      vertex 0 5 0
      vertex 0 28.942 8.54377
      vertex 0 39 0
    endloop
  endfacet
  facet normal -1 0 0
    outer loop
      vertex 0 29.6258 8.23933
      vertex 0 39 0
      vertex 0 29.2679 8.35562
    endloop
  endfacet
  facet normal -1 0 0
    outer loop
      vertex 0 30 8.2
      vertex 0 39 0
      vertex 0 29.6258 8.23933
    endloop
  endfacet
  facet normal -1 0 0
    outer loop
      vertex 0 30.3742 8.23933
      vertex 0 39 0
      vertex 0 30 8.2
    endloop
  endfacet
  facet normal -1 0 0
    outer loop
      vertex 0 30.7321 11.6444
      vertex 0 39 16
      vertex 0 31.058 11.4562
    endloop
  endfacet
  facet normal -1 0 0
    outer loop
      vertex 0 31.5588 9.1
      vertex 0 39 16
      vertex 0 31.3377 8.79556
    endloop
  endfacet
  facet normal -1 0 0
    outer loop
      vertex 0 30.3742 8.23933
      vertex 0 30.7321 8.35562
      vertex 0 39 0
    endloop
  endfacet
  facet normal -1 0 0
    outer loop
      vertex 0 31.7119 9.44377
      vertex 0 39 16
      vertex 0 31.5588 9.1
    endloop
  endfacet
  facet normal -1 0 0
    outer loop
      vertex 0 30.7321 8.35562
      vertex 0 31.058 8.54377
      vertex 0 39 0
    endloop
  endfacet
  facet normal -1 0 0
    outer loop
      vertex 0 31.058 8.54377
      vertex 0 31.3377 8.79556
      vertex 0 39 0
    endloop
  endfacet
  facet normal -1 0 0
    outer loop
      vertex 0 31.7901 9.81185
      vertex 0 39 16
      vertex 0 31.7119 9.44377
    endloop
  endfacet
  facet normal -1 0 0
    outer loop
      vertex 0 31.7901 10.1882
      vertex 0 39 16
      vertex 0 31.7901 9.81185
    endloop
  endfacet
  facet normal -1 0 0
    outer loop
      vertex 0 31.7119 10.5562
      vertex 0 39 16
      vertex 0 31.7901 10.1882
    endloop
  endfacet
  facet normal -1 0 0
    outer loop
      vertex 0 31.5588 10.9
      vertex 0 39 16
      vertex 0 31.7119 10.5562
    endloop
  endfacet
  facet normal -1 0 0
    outer loop
      vertex 0 31.3377 11.2044
      vertex 0 39 16
      vertex 0 31.5588 10.9
    endloop
  endfacet
  facet normal -1 0 0
    outer loop
      vertex 0 31.058 11.4562
      vertex 0 39 16
      vertex 0 31.3377 11.2044
    endloop
  endfacet
  facet normal -1 0 0
    outer loop
      vertex 0 28.2881 10.5562
      vertex 0 5 0
      vertex 0 28.4412 10.9
    endloop
  endfacet
  facet normal -1 0 0
    outer loop
      vertex 0 30.3742 11.7607
      vertex 0 39 16
      vertex 0 30.7321 11.6444
    endloop
  endfacet
  facet normal -1 0 0
    outer loop
      vertex 0 29.2679 8.35562
      vertex 0 39 0
      vertex 0 28.942 8.54377
    endloop
  endfacet
  facet normal -1 0 0
    outer loop
      vertex 0 28.4412 10.9
      vertex 0 5 0
      vertex 0 28.6623 11.2044
    endloop
  endfacet
  facet normal -1 0 0
    outer loop
      vertex 0 29.2679 11.6444
      vertex 0 10.3742 8.23933
      vertex 0 29.6258 11.7607
    endloop
  endfacet
  facet normal -1 0 0
    outer loop
      vertex 0 30 11.8
      vertex 0 29.6258 11.7607
      vertex 0 39 16
    endloop
  endfacet
  facet normal -1 0 0
    outer loop
      vertex 0 5 0
      vertex 0 10.3742 8.23933
      vertex 0 29.2679 11.6444
    endloop
  endfacet
  facet normal -1 0 0
    outer loop
      vertex 0 5 0
      vertex 0 29.2679 11.6444
      vertex 0 28.942 11.4562
    endloop
  endfacet
  facet normal -1 0 0
    outer loop
      vertex 0 5 0
      vertex 0 28.942 11.4562
      vertex 0 28.6623 11.2044
    endloop
  endfacet
  facet normal -1 0 0
    outer loop
      vertex 0 11.058 8.54377
      vertex 0 39 16
      vertex 0 10.7321 8.35562
    endloop
  endfacet
  facet normal -0.707107 -0.707107 0
    outer loop
      vertex 6 -5 1.51472
      vertex 6 -5 14
      vertex 4 -3 16
    endloop
  endfacet
  facet normal -0.707107 -0.707107 0
    outer loop
      vertex 0 1 4
      vertex 6 -5 1.51472
      vertex 0 1 16
    endloop
  endfacet
  facet normal -0.707107 -0.707107 0
    outer loop
      vertex 0 1 16
      vertex 6 -5 1.51472
      vertex 4 -3 16
    endloop
  endfacet
  facet normal -0.707107 -0.5 -0.5
    outer loop
      vertex 7.07107 -5 0
      vertex 6 -5 1.51472
      vertex 0 5 0
    endloop
  endfacet
  facet normal -0.707107 -0.5 -0.5
    outer loop
      vertex 0 5 0
      vertex 6 -5 1.51472
      vertex 0 1 4
    endloop
  endfacet
  facet normal 0 0 -1
    outer loop
      vertex 0 5 0
      vertex 0 39 0
      vertex 7.07107 -5 0
    endloop
  endfacet
  facet normal 0 0 -1
    outer loop
      vertex 7.07107 -5 0
      vertex 0 39 0
      vertex 1 40 0
    endloop
  endfacet
  facet normal 0 0 -1
    outer loop
      vertex 7.07107 -5 0
      vertex 1 40 0
      vertex 8 33 0
    endloop
  endfacet
  facet normal 0 0 -1
    outer loop
      vertex 7.07107 -5 0
      vertex 8 33 0
      vertex 8 10 0
    endloop
  endfacet
  facet normal 0 0 -1
    outer loop
      vertex 28.8714 8.27754 0
      vertex 8 10 0
      vertex 35 10 0
    endloop
  endfacet
  facet normal 0 0 -1
    outer loop
      vertex 33.0455 5.86762 0
      vertex 35 10 0
      vertex 38 7 0
    endloop
  endfacet
  facet normal 0 0 -1
    outer loop
      vertex 32.0434 1.15311 0
      vertex 38 7 0
      vertex 38 7.85046e-16 0
    endloop
  endfacet
  facet normal 0 0 -1
    outer loop
      vertex 7.07107 -5 0
      vertex 38 7.85046e-16 0
      vertex 33 -5 0
    endloop
  endfacet
  facet normal 0 0 -1
    outer loop
      vertex 7.07107 -5 0
      vertex 8 10 0
      vertex 25.2896 5.05244 0
    endloop
  endfacet
  facet normal 0 0 -1
    outer loop
      vertex 25.983 1.79008 0
      vertex 7.07107 -5 0
      vertex 25.2896 3.34756 0
    endloop
  endfacet
  facet normal 0 0 -1
    outer loop
      vertex 32.0434 1.15311 0
      vertex 38 7.85046e-16 0
      vertex 30.567 0.300668 0
    endloop
  endfacet
  facet normal 0 0 -1
    outer loop
      vertex 7.07107 -5 0
      vertex 25.983 1.79008 0
      vertex 27.25 0.649296 0
    endloop
  endfacet
  facet normal 0 0 -1
    outer loop
      vertex 7.07107 -5 0
      vertex 27.25 0.649296 0
      vertex 28.8714 0.12246 0
    endloop
  endfacet
  facet normal 0 0 -1
    outer loop
      vertex 7.07107 -5 0
      vertex 28.8714 0.12246 0
      vertex 38 7.85046e-16 0
    endloop
  endfacet
  facet normal 0 0 -1
    outer loop
      vertex 28.8714 0.12246 0
      vertex 30.567 0.300668 0
      vertex 38 7.85046e-16 0
    endloop
  endfacet
  facet normal 0 0 -1
    outer loop
      vertex 33.0455 2.53238 0
      vertex 38 7 0
      vertex 32.0434 1.15311 0
    endloop
  endfacet
  facet normal 0 0 -1
    outer loop
      vertex 33.0455 5.86762 0
      vertex 38 7 0
      vertex 33.4 4.2 0
    endloop
  endfacet
  facet normal 0 0 -1
    outer loop
      vertex 33.4 4.2 0
      vertex 38 7 0
      vertex 33.0455 2.53238 0
    endloop
  endfacet
  facet normal 0 0 -1
    outer loop
      vertex 32.0434 7.24689 0
      vertex 35 10 0
      vertex 33.0455 5.86762 0
    endloop
  endfacet
  facet normal 0 0 -1
    outer loop
      vertex 30.567 8.09933 0
      vertex 35 10 0
      vertex 32.0434 7.24689 0
    endloop
  endfacet
  facet normal 0 0 -1
    outer loop
      vertex 27.25 7.7507 0
      vertex 8 10 0
      vertex 28.8714 8.27754 0
    endloop
  endfacet
  facet normal 0 0 -1
    outer loop
      vertex 30.567 8.09933 0
      vertex 28.8714 8.27754 0
      vertex 35 10 0
    endloop
  endfacet
  facet normal 0 0 -1
    outer loop
      vertex 25.983 6.60992 0
      vertex 8 10 0
      vertex 27.25 7.7507 0
    endloop
  endfacet
  facet normal 0 0 -1
    outer loop
      vertex 25.2896 5.05244 0
      vertex 8 10 0
      vertex 25.983 6.60992 0
    endloop
  endfacet
  facet normal 0 0 -1
    outer loop
      vertex 25.2896 3.34756 0
      vertex 7.07107 -5 0
      vertex 25.2896 5.05244 0
    endloop
  endfacet
  facet normal -0.707107 0.707107 0
    outer loop
      vertex 1 40 16
      vertex 1 40 0
      vertex 0 39 16
    endloop
  endfacet
  facet normal -0.707107 0.707107 0
    outer loop
      vertex 0 39 16
      vertex 1 40 0
      vertex 0 39 0
    endloop
  endfacet
  facet normal 0 0 1
    outer loop
      vertex 0 39 16
      vertex 0 1 16
      vertex 4 -3 16
    endloop
  endfacet
  facet normal 0 0 1
    outer loop
      vertex 1 40 16
      vertex 0 39 16
      vertex 4 37 16
    endloop
  endfacet
  facet normal 0 0 1
    outer loop
      vertex 4 37 16
      vertex 0 39 16
      vertex 4 -3 16
    endloop
  endfacet
  facet normal 4.61652e-17 0.978148 -0.20791
    outer loop
      vertex 4 8.2881 10.5562
      vertex 4 8.20986 10.1882
      vertex 0 8.2881 10.5562
    endloop
  endfacet
  facet normal 4.61652e-17 0.978148 -0.20791
    outer loop
      vertex 0 8.2881 10.5562
      vertex 4 8.20986 10.1882
      vertex 0 8.20986 10.1882
    endloop
  endfacet
  facet normal 0 1 0
    outer loop
      vertex 4 8.20986 10.1882
      vertex 4 8.20986 9.81185
      vertex 0 8.20986 10.1882
    endloop
  endfacet
  facet normal 0 1 0
    outer loop
      vertex 0 8.20986 10.1882
      vertex 4 8.20986 9.81185
      vertex 0 8.20986 9.81185
    endloop
  endfacet
  facet normal 9.03138e-17 0.913545 -0.406737
    outer loop
      vertex 4 8.44115 10.9
      vertex 4 8.2881 10.5562
      vertex 0 8.44115 10.9
    endloop
  endfacet
  facet normal 9.03138e-17 0.913545 -0.406737
    outer loop
      vertex 0 8.44115 10.9
      vertex 4 8.2881 10.5562
      vertex 0 8.2881 10.5562
    endloop
  endfacet
  facet normal 1.30515e-16 0.809017 -0.587785
    outer loop
      vertex 4 8.66234 11.2044
      vertex 4 8.44115 10.9
      vertex 0 8.66234 11.2044
    endloop
  endfacet
  facet normal 1.30515e-16 0.809017 -0.587785
    outer loop
      vertex 0 8.66234 11.2044
      vertex 4 8.44115 10.9
      vertex 0 8.44115 10.9
    endloop
  endfacet
  facet normal 1.65011e-16 0.66913 -0.743145
    outer loop
      vertex 4 8.94199 11.4562
      vertex 4 8.66234 11.2044
      vertex 0 8.94199 11.4562
    endloop
  endfacet
  facet normal 1.65011e-16 0.66913 -0.743145
    outer loop
      vertex 0 8.94199 11.4562
      vertex 4 8.66234 11.2044
      vertex 0 8.66234 11.2044
    endloop
  endfacet
  facet normal 1.92296e-16 0.5 -0.866025
    outer loop
      vertex 4 9.26787 11.6444
      vertex 4 8.94199 11.4562
      vertex 0 9.26787 11.6444
    endloop
  endfacet
  facet normal 1.92296e-16 0.5 -0.866025
    outer loop
      vertex 0 9.26787 11.6444
      vertex 4 8.94199 11.4562
      vertex 0 8.94199 11.4562
    endloop
  endfacet
  facet normal 2.11177e-16 0.309017 -0.951056
    outer loop
      vertex 4 9.62576 11.7607
      vertex 4 9.26787 11.6444
      vertex 0 9.62576 11.7607
    endloop
  endfacet
  facet normal 2.11177e-16 0.309017 -0.951056
    outer loop
      vertex 0 9.62576 11.7607
      vertex 4 9.26787 11.6444
      vertex 0 9.26787 11.6444
    endloop
  endfacet
  facet normal 2.20828e-16 0.104528 -0.994522
    outer loop
      vertex 4 10 11.8
      vertex 4 9.62576 11.7607
      vertex 0 10 11.8
    endloop
  endfacet
  facet normal 2.20828e-16 0.104528 -0.994522
    outer loop
      vertex 0 10 11.8
      vertex 4 9.62576 11.7607
      vertex 0 9.62576 11.7607
    endloop
  endfacet
  facet normal 2.20828e-16 -0.104528 -0.994522
    outer loop
      vertex 4 10.3742 11.7607
      vertex 4 10 11.8
      vertex 0 10.3742 11.7607
    endloop
  endfacet
  facet normal 2.20828e-16 -0.104528 -0.994522
    outer loop
      vertex 0 10.3742 11.7607
      vertex 4 10 11.8
      vertex 0 10 11.8
    endloop
  endfacet
  facet normal 2.11177e-16 -0.309017 -0.951056
    outer loop
      vertex 4 10.7321 11.6444
      vertex 4 10.3742 11.7607
      vertex 0 10.7321 11.6444
    endloop
  endfacet
  facet normal 2.11177e-16 -0.309017 -0.951056
    outer loop
      vertex 0 10.7321 11.6444
      vertex 4 10.3742 11.7607
      vertex 0 10.3742 11.7607
    endloop
  endfacet
  facet normal 1.92296e-16 -0.5 -0.866025
    outer loop
      vertex 4 11.058 11.4562
      vertex 4 10.7321 11.6444
      vertex 0 11.058 11.4562
    endloop
  endfacet
  facet normal 1.92296e-16 -0.5 -0.866025
    outer loop
      vertex 0 11.058 11.4562
      vertex 4 10.7321 11.6444
      vertex 0 10.7321 11.6444
    endloop
  endfacet
  facet normal 1.65011e-16 -0.66913 -0.743145
    outer loop
      vertex 4 11.3377 11.2044
      vertex 4 11.058 11.4562
      vertex 0 11.3377 11.2044
    endloop
  endfacet
  facet normal 1.65011e-16 -0.66913 -0.743145
    outer loop
      vertex 0 11.3377 11.2044
      vertex 4 11.058 11.4562
      vertex 0 11.058 11.4562
    endloop
  endfacet
  facet normal 1.30515e-16 -0.809017 -0.587785
    outer loop
      vertex 0 11.5588 10.9
      vertex 4 11.5588 10.9
      vertex 4 11.3377 11.2044
    endloop
  endfacet
  facet normal 1.30515e-16 -0.809017 -0.587785
    outer loop
      vertex 0 11.3377 11.2044
      vertex 0 11.5588 10.9
      vertex 4 11.3377 11.2044
    endloop
  endfacet
  facet normal 9.03138e-17 -0.913545 -0.406737
    outer loop
      vertex 0 11.7119 10.5562
      vertex 4 11.7119 10.5562
      vertex 4 11.5588 10.9
    endloop
  endfacet
  facet normal 9.03138e-17 -0.913545 -0.406737
    outer loop
      vertex 0 11.5588 10.9
      vertex 0 11.7119 10.5562
      vertex 4 11.5588 10.9
    endloop
  endfacet
  facet normal 4.61652e-17 -0.978148 -0.20791
    outer loop
      vertex 0 11.7901 10.1882
      vertex 4 11.7901 10.1882
      vertex 4 11.7119 10.5562
    endloop
  endfacet
  facet normal 4.61652e-17 -0.978148 -0.20791
    outer loop
      vertex 0 11.7119 10.5562
      vertex 0 11.7901 10.1882
      vertex 4 11.7119 10.5562
    endloop
  endfacet
  facet normal 0 -1 0
    outer loop
      vertex 4 11.7901 9.81185
      vertex 4 11.7901 10.1882
      vertex 0 11.7901 10.1882
    endloop
  endfacet
  facet normal 0 -1 0
    outer loop
      vertex 0 11.7901 9.81185
      vertex 4 11.7901 9.81185
      vertex 0 11.7901 10.1882
    endloop
  endfacet
  facet normal -4.61652e-17 -0.978148 0.20791
    outer loop
      vertex 4 11.7119 9.44377
      vertex 4 11.7901 9.81185
      vertex 0 11.7901 9.81185
    endloop
  endfacet
  facet normal -4.61652e-17 -0.978148 0.20791
    outer loop
      vertex 0 11.7119 9.44377
      vertex 4 11.7119 9.44377
      vertex 0 11.7901 9.81185
    endloop
  endfacet
  facet normal -9.03138e-17 -0.913545 0.406737
    outer loop
      vertex 4 11.5588 9.1
      vertex 4 11.7119 9.44377
      vertex 0 11.7119 9.44377
    endloop
  endfacet
  facet normal -9.03138e-17 -0.913545 0.406737
    outer loop
      vertex 0 11.5588 9.1
      vertex 4 11.5588 9.1
      vertex 0 11.7119 9.44377
    endloop
  endfacet
  facet normal -1.30515e-16 -0.809017 0.587785
    outer loop
      vertex 4 11.3377 8.79556
      vertex 4 11.5588 9.1
      vertex 0 11.5588 9.1
    endloop
  endfacet
  facet normal -1.30515e-16 -0.809017 0.587785
    outer loop
      vertex 0 11.3377 8.79556
      vertex 4 11.3377 8.79556
      vertex 0 11.5588 9.1
    endloop
  endfacet
  facet normal -1.65011e-16 -0.66913 0.743145
    outer loop
      vertex 4 11.058 8.54377
      vertex 4 11.3377 8.79556
      vertex 0 11.3377 8.79556
    endloop
  endfacet
  facet normal -1.65011e-16 -0.66913 0.743145
    outer loop
      vertex 0 11.058 8.54377
      vertex 4 11.058 8.54377
      vertex 0 11.3377 8.79556
    endloop
  endfacet
  facet normal -1.92296e-16 -0.5 0.866025
    outer loop
      vertex 4 10.7321 8.35562
      vertex 4 11.058 8.54377
      vertex 0 11.058 8.54377
    endloop
  endfacet
  facet normal -1.92296e-16 -0.5 0.866025
    outer loop
      vertex 0 10.7321 8.35562
      vertex 4 10.7321 8.35562
      vertex 0 11.058 8.54377
    endloop
  endfacet
  facet normal -2.11177e-16 -0.309017 0.951056
    outer loop
      vertex 4 10.3742 8.23933
      vertex 4 10.7321 8.35562
      vertex 0 10.7321 8.35562
    endloop
  endfacet
  facet normal -2.11177e-16 -0.309017 0.951056
    outer loop
      vertex 0 10.3742 8.23933
      vertex 4 10.3742 8.23933
      vertex 0 10.7321 8.35562
    endloop
  endfacet
  facet normal -2.20828e-16 -0.104528 0.994522
    outer loop
      vertex 4 10 8.2
      vertex 4 10.3742 8.23933
      vertex 0 10.3742 8.23933
    endloop
  endfacet
  facet normal -2.20828e-16 -0.104528 0.994522
    outer loop
      vertex 0 10 8.2
      vertex 4 10 8.2
      vertex 0 10.3742 8.23933
    endloop
  endfacet
  facet normal -2.20828e-16 0.104528 0.994522
    outer loop
      vertex 4 9.62576 8.23933
      vertex 4 10 8.2
      vertex 0 10 8.2
    endloop
  endfacet
  facet normal -2.20828e-16 0.104528 0.994522
    outer loop
      vertex 0 9.62576 8.23933
      vertex 4 9.62576 8.23933
      vertex 0 10 8.2
    endloop
  endfacet
  facet normal -2.11177e-16 0.309017 0.951056
    outer loop
      vertex 4 9.26787 8.35562
      vertex 4 9.62576 8.23933
      vertex 0 9.62576 8.23933
    endloop
  endfacet
  facet normal -2.11177e-16 0.309017 0.951056
    outer loop
      vertex 0 9.26787 8.35562
      vertex 4 9.26787 8.35562
      vertex 0 9.62576 8.23933
    endloop
  endfacet
  facet normal -1.92296e-16 0.5 0.866025
    outer loop
      vertex 4 8.94199 8.54377
      vertex 4 9.26787 8.35562
      vertex 0 9.26787 8.35562
    endloop
  endfacet
  facet normal -1.92296e-16 0.5 0.866025
    outer loop
      vertex 0 8.94199 8.54377
      vertex 4 8.94199 8.54377
      vertex 0 9.26787 8.35562
    endloop
  endfacet
  facet normal -1.65011e-16 0.66913 0.743145
    outer loop
      vertex 4 8.66234 8.79556
      vertex 4 8.94199 8.54377
      vertex 0 8.94199 8.54377
    endloop
  endfacet
  facet normal -1.65011e-16 0.66913 0.743145
    outer loop
      vertex 0 8.66234 8.79556
      vertex 4 8.66234 8.79556
      vertex 0 8.94199 8.54377
    endloop
  endfacet
  facet normal -1.30515e-16 0.809017 0.587785
    outer loop
      vertex 4 8.66234 8.79556
      vertex 0 8.66234 8.79556
      vertex 4 8.44115 9.1
    endloop
  endfacet
  facet normal -1.30515e-16 0.809017 0.587785
    outer loop
      vertex 4 8.44115 9.1
      vertex 0 8.66234 8.79556
      vertex 0 8.44115 9.1
    endloop
  endfacet
  facet normal -9.03138e-17 0.913545 0.406737
    outer loop
      vertex 4 8.44115 9.1
      vertex 0 8.44115 9.1
      vertex 4 8.2881 9.44377
    endloop
  endfacet
  facet normal -9.03138e-17 0.913545 0.406737
    outer loop
      vertex 4 8.2881 9.44377
      vertex 0 8.44115 9.1
      vertex 0 8.2881 9.44377
    endloop
  endfacet
  facet normal -4.61652e-17 0.978148 0.20791
    outer loop
      vertex 4 8.2881 9.44377
      vertex 0 8.2881 9.44377
      vertex 4 8.20986 9.81185
    endloop
  endfacet
  facet normal -4.61652e-17 0.978148 0.20791
    outer loop
      vertex 4 8.20986 9.81185
      vertex 0 8.2881 9.44377
      vertex 0 8.20986 9.81185
    endloop
  endfacet
  facet normal 0 1 0
    outer loop
      vertex 4 28.2099 10.1882
      vertex 4 28.2099 9.81185
      vertex 0 28.2099 10.1882
    endloop
  endfacet
  facet normal 0 1 0
    outer loop
      vertex 0 28.2099 10.1882
      vertex 4 28.2099 9.81185
      vertex 0 28.2099 9.81185
    endloop
  endfacet
  facet normal 4.61652e-17 0.978148 -0.20791
    outer loop
      vertex 4 28.2881 10.5562
      vertex 4 28.2099 10.1882
      vertex 0 28.2881 10.5562
    endloop
  endfacet
  facet normal 4.61652e-17 0.978148 -0.20791
    outer loop
      vertex 0 28.2881 10.5562
      vertex 4 28.2099 10.1882
      vertex 0 28.2099 10.1882
    endloop
  endfacet
  facet normal 9.03138e-17 0.913545 -0.406737
    outer loop
      vertex 4 28.4412 10.9
      vertex 4 28.2881 10.5562
      vertex 0 28.4412 10.9
    endloop
  endfacet
  facet normal 9.03138e-17 0.913545 -0.406737
    outer loop
      vertex 0 28.4412 10.9
      vertex 4 28.2881 10.5562
      vertex 0 28.2881 10.5562
    endloop
  endfacet
  facet normal 1.30515e-16 0.809017 -0.587785
    outer loop
      vertex 4 28.6623 11.2044
      vertex 4 28.4412 10.9
      vertex 0 28.6623 11.2044
    endloop
  endfacet
  facet normal 1.30515e-16 0.809017 -0.587785
    outer loop
      vertex 0 28.6623 11.2044
      vertex 4 28.4412 10.9
      vertex 0 28.4412 10.9
    endloop
  endfacet
  facet normal 1.65011e-16 0.66913 -0.743145
    outer loop
      vertex 4 28.942 11.4562
      vertex 4 28.6623 11.2044
      vertex 0 28.942 11.4562
    endloop
  endfacet
  facet normal 1.65011e-16 0.66913 -0.743145
    outer loop
      vertex 0 28.942 11.4562
      vertex 4 28.6623 11.2044
      vertex 0 28.6623 11.2044
    endloop
  endfacet
  facet normal 1.92296e-16 0.5 -0.866025
    outer loop
      vertex 4 29.2679 11.6444
      vertex 4 28.942 11.4562
      vertex 0 29.2679 11.6444
    endloop
  endfacet
  facet normal 1.92296e-16 0.5 -0.866025
    outer loop
      vertex 0 29.2679 11.6444
      vertex 4 28.942 11.4562
      vertex 0 28.942 11.4562
    endloop
  endfacet
  facet normal 2.11177e-16 0.309017 -0.951056
    outer loop
      vertex 4 29.6258 11.7607
      vertex 4 29.2679 11.6444
      vertex 0 29.6258 11.7607
    endloop
  endfacet
  facet normal 2.11177e-16 0.309017 -0.951056
    outer loop
      vertex 0 29.6258 11.7607
      vertex 4 29.2679 11.6444
      vertex 0 29.2679 11.6444
    endloop
  endfacet
  facet normal 2.20828e-16 0.104528 -0.994522
    outer loop
      vertex 4 30 11.8
      vertex 4 29.6258 11.7607
      vertex 0 30 11.8
    endloop
  endfacet
  facet normal 2.20828e-16 0.104528 -0.994522
    outer loop
      vertex 0 30 11.8
      vertex 4 29.6258 11.7607
      vertex 0 29.6258 11.7607
    endloop
  endfacet
  facet normal 2.20828e-16 -0.104528 -0.994522
    outer loop
      vertex 4 30.3742 11.7607
      vertex 4 30 11.8
      vertex 0 30.3742 11.7607
    endloop
  endfacet
  facet normal 2.20828e-16 -0.104528 -0.994522
    outer loop
      vertex 0 30.3742 11.7607
      vertex 4 30 11.8
      vertex 0 30 11.8
    endloop
  endfacet
  facet normal 2.11177e-16 -0.309017 -0.951056
    outer loop
      vertex 4 30.7321 11.6444
      vertex 4 30.3742 11.7607
      vertex 0 30.7321 11.6444
    endloop
  endfacet
  facet normal 2.11177e-16 -0.309017 -0.951056
    outer loop
      vertex 0 30.7321 11.6444
      vertex 4 30.3742 11.7607
      vertex 0 30.3742 11.7607
    endloop
  endfacet
  facet normal 1.92296e-16 -0.5 -0.866025
    outer loop
      vertex 4 31.058 11.4562
      vertex 4 30.7321 11.6444
      vertex 0 31.058 11.4562
    endloop
  endfacet
  facet normal 1.92296e-16 -0.5 -0.866025
    outer loop
      vertex 0 31.058 11.4562
      vertex 4 30.7321 11.6444
      vertex 0 30.7321 11.6444
    endloop
  endfacet
  facet normal 1.65011e-16 -0.66913 -0.743145
    outer loop
      vertex 4 31.3377 11.2044
      vertex 4 31.058 11.4562
      vertex 0 31.3377 11.2044
    endloop
  endfacet
  facet normal 1.65011e-16 -0.66913 -0.743145
    outer loop
      vertex 0 31.3377 11.2044
      vertex 4 31.058 11.4562
      vertex 0 31.058 11.4562
    endloop
  endfacet
  facet normal 1.30515e-16 -0.809017 -0.587785
    outer loop
      vertex 0 31.5588 10.9
      vertex 4 31.5588 10.9
      vertex 4 31.3377 11.2044
    endloop
  endfacet
  facet normal 1.30515e-16 -0.809017 -0.587785
    outer loop
      vertex 0 31.3377 11.2044
      vertex 0 31.5588 10.9
      vertex 4 31.3377 11.2044
    endloop
  endfacet
  facet normal 9.03138e-17 -0.913545 -0.406737
    outer loop
      vertex 0 31.7119 10.5562
      vertex 4 31.7119 10.5562
      vertex 4 31.5588 10.9
    endloop
  endfacet
  facet normal 9.03138e-17 -0.913545 -0.406737
    outer loop
      vertex 0 31.5588 10.9
      vertex 0 31.7119 10.5562
      vertex 4 31.5588 10.9
    endloop
  endfacet
  facet normal 4.61652e-17 -0.978148 -0.20791
    outer loop
      vertex 0 31.7901 10.1882
      vertex 4 31.7901 10.1882
      vertex 4 31.7119 10.5562
    endloop
  endfacet
  facet normal 4.61652e-17 -0.978148 -0.20791
    outer loop
      vertex 0 31.7119 10.5562
      vertex 0 31.7901 10.1882
      vertex 4 31.7119 10.5562
    endloop
  endfacet
  facet normal 0 -1 0
    outer loop
      vertex 4 31.7901 9.81185
      vertex 4 31.7901 10.1882
      vertex 0 31.7901 10.1882
    endloop
  endfacet
  facet normal 0 -1 0
    outer loop
      vertex 0 31.7901 9.81185
      vertex 4 31.7901 9.81185
      vertex 0 31.7901 10.1882
    endloop
  endfacet
  facet normal -4.61652e-17 -0.978148 0.20791
    outer loop
      vertex 4 31.7119 9.44377
      vertex 4 31.7901 9.81185
      vertex 0 31.7901 9.81185
    endloop
  endfacet
  facet normal -4.61652e-17 -0.978148 0.20791
    outer loop
      vertex 0 31.7119 9.44377
      vertex 4 31.7119 9.44377
      vertex 0 31.7901 9.81185
    endloop
  endfacet
  facet normal -9.03138e-17 -0.913545 0.406737
    outer loop
      vertex 4 31.5588 9.1
      vertex 4 31.7119 9.44377
      vertex 0 31.7119 9.44377
    endloop
  endfacet
  facet normal -9.03138e-17 -0.913545 0.406737
    outer loop
      vertex 0 31.5588 9.1
      vertex 4 31.5588 9.1
      vertex 0 31.7119 9.44377
    endloop
  endfacet
  facet normal -1.30515e-16 -0.809017 0.587785
    outer loop
      vertex 4 31.3377 8.79556
      vertex 4 31.5588 9.1
      vertex 0 31.5588 9.1
    endloop
  endfacet
  facet normal -1.30515e-16 -0.809017 0.587785
    outer loop
      vertex 0 31.3377 8.79556
      vertex 4 31.3377 8.79556
      vertex 0 31.5588 9.1
    endloop
  endfacet
  facet normal -1.65011e-16 -0.66913 0.743145
    outer loop
      vertex 4 31.058 8.54377
      vertex 4 31.3377 8.79556
      vertex 0 31.3377 8.79556
    endloop
  endfacet
  facet normal -1.65011e-16 -0.66913 0.743145
    outer loop
      vertex 0 31.058 8.54377
      vertex 4 31.058 8.54377
      vertex 0 31.3377 8.79556
    endloop
  endfacet
  facet normal -1.92296e-16 -0.5 0.866025
    outer loop
      vertex 4 30.7321 8.35562
      vertex 4 31.058 8.54377
      vertex 0 31.058 8.54377
    endloop
  endfacet
  facet normal -1.92296e-16 -0.5 0.866025
    outer loop
      vertex 0 30.7321 8.35562
      vertex 4 30.7321 8.35562
      vertex 0 31.058 8.54377
    endloop
  endfacet
  facet normal -2.11177e-16 -0.309017 0.951056
    outer loop
      vertex 4 30.3742 8.23933
      vertex 4 30.7321 8.35562
      vertex 0 30.7321 8.35562
    endloop
  endfacet
  facet normal -2.11177e-16 -0.309017 0.951056
    outer loop
      vertex 0 30.3742 8.23933
      vertex 4 30.3742 8.23933
      vertex 0 30.7321 8.35562
    endloop
  endfacet
  facet normal -2.20828e-16 -0.104528 0.994522
    outer loop
      vertex 4 30 8.2
      vertex 4 30.3742 8.23933
      vertex 0 30.3742 8.23933
    endloop
  endfacet
  facet normal -2.20828e-16 -0.104528 0.994522
    outer loop
      vertex 0 30 8.2
      vertex 4 30 8.2
      vertex 0 30.3742 8.23933
    endloop
  endfacet
  facet normal -2.20828e-16 0.104528 0.994522
    outer loop
      vertex 4 29.6258 8.23933
      vertex 4 30 8.2
      vertex 0 30 8.2
    endloop
  endfacet
  facet normal -2.20828e-16 0.104528 0.994522
    outer loop
      vertex 0 29.6258 8.23933
      vertex 4 29.6258 8.23933
      vertex 0 30 8.2
    endloop
  endfacet
  facet normal -2.11177e-16 0.309017 0.951056
    outer loop
      vertex 4 29.2679 8.35562
      vertex 4 29.6258 8.23933
      vertex 0 29.6258 8.23933
    endloop
  endfacet
  facet normal -2.11177e-16 0.309017 0.951056
    outer loop
      vertex 0 29.2679 8.35562
      vertex 4 29.2679 8.35562
      vertex 0 29.6258 8.23933
    endloop
  endfacet
  facet normal -1.92296e-16 0.5 0.866025
    outer loop
      vertex 4 28.942 8.54377
      vertex 4 29.2679 8.35562
      vertex 0 29.2679 8.35562
    endloop
  endfacet
  facet normal -1.92296e-16 0.5 0.866025
    outer loop
      vertex 0 28.942 8.54377
      vertex 4 28.942 8.54377
      vertex 0 29.2679 8.35562
    endloop
  endfacet
  facet normal -1.65011e-16 0.66913 0.743145
    outer loop
      vertex 4 28.6623 8.79556
      vertex 4 28.942 8.54377
      vertex 0 28.942 8.54377
    endloop
  endfacet
  facet normal -1.65011e-16 0.66913 0.743145
    outer loop
      vertex 0 28.6623 8.79556
      vertex 4 28.6623 8.79556
      vertex 0 28.942 8.54377
    endloop
  endfacet
  facet normal -1.30515e-16 0.809017 0.587785
    outer loop
      vertex 4 28.6623 8.79556
      vertex 0 28.6623 8.79556
      vertex 4 28.4412 9.1
    endloop
  endfacet
  facet normal -1.30515e-16 0.809017 0.587785
    outer loop
      vertex 4 28.4412 9.1
      vertex 0 28.6623 8.79556
      vertex 0 28.4412 9.1
    endloop
  endfacet
  facet normal -9.03138e-17 0.913545 0.406737
    outer loop
      vertex 4 28.4412 9.1
      vertex 0 28.4412 9.1
      vertex 4 28.2881 9.44377
    endloop
  endfacet
  facet normal -9.03138e-17 0.913545 0.406737
    outer loop
      vertex 4 28.2881 9.44377
      vertex 0 28.4412 9.1
      vertex 0 28.2881 9.44377
    endloop
  endfacet
  facet normal -4.61652e-17 0.978148 0.20791
    outer loop
      vertex 4 28.2881 9.44377
      vertex 0 28.2881 9.44377
      vertex 4 28.2099 9.81185
    endloop
  endfacet
  facet normal -4.61652e-17 0.978148 0.20791
    outer loop
      vertex 4 28.2099 9.81185
      vertex 0 28.2881 9.44377
      vertex 0 28.2099 9.81185
    endloop
  endfacet
  facet normal 0 -1 0
    outer loop
      vertex 6 -5 14
      vertex 6 -5 1.51472
      vertex 7.07107 -5 0
    endloop
  endfacet
  facet normal 0 -1 0
    outer loop
      vertex 8 -5 12
      vertex 6 -5 14
      vertex 7.07107 -5 0
    endloop
  endfacet
  facet normal 0 -1 0
    outer loop
      vertex 33 -5 5
      vertex 30 -5 5
      vertex 33 -5 0
    endloop
  endfacet
  facet normal 0 -1 0
    outer loop
      vertex 23.5 -5 12
      vertex 30 -5 5
      vertex 30 -5 5.5
    endloop
  endfacet
  facet normal 0 -1 0
    outer loop
      vertex 33 -5 0
      vertex 8 -5 12
      vertex 7.07107 -5 0
    endloop
  endfacet
  facet normal 0 -1 0
    outer loop
      vertex 23.5 -5 12
      vertex 33 -5 0
      vertex 30 -5 5
    endloop
  endfacet
  facet normal 0 -1 0
    outer loop
      vertex 23.5 -5 12
      vertex 8 -5 12
      vertex 33 -5 0
    endloop
  endfacet
  facet normal 0.707107 0 0.707107
    outer loop
      vertex 6 -5 14
      vertex 8 -5 12
      vertex 8 0.01 12
    endloop
  endfacet
  facet normal 0.707107 0 0.707107
    outer loop
      vertex 4 6.9 16
      vertex 6 -5 14
      vertex 8 6.9 12
    endloop
  endfacet
  facet normal 0.707107 0 0.707107
    outer loop
      vertex 8 6.9 12
      vertex 6 -5 14
      vertex 8 0.01 12
    endloop
  endfacet
  facet normal 0.707107 0 0.707107
    outer loop
      vertex 4 -3 16
      vertex 6 -5 14
      vertex 4 6.9 16
    endloop
  endfacet
  facet normal 0.707107 0 0.707107
    outer loop
      vertex 4 37 16
      vertex 4 6.9 16
      vertex 4 13.1 16
    endloop
  endfacet
  facet normal 0.707107 0 0.707107
    outer loop
      vertex 8 26.9 12
      vertex 4 13.1 16
      vertex 8 13.1 12
    endloop
  endfacet
  facet normal 0.707107 0 0.707107
    outer loop
      vertex 4 26.9 16
      vertex 4 13.1 16
      vertex 8 26.9 12
    endloop
  endfacet
  facet normal 0.707107 0 0.707107
    outer loop
      vertex 4 37 16
      vertex 4 13.1 16
      vertex 4 26.9 16
    endloop
  endfacet
  facet normal 0.707107 0 0.707107
    outer loop
      vertex 4 37 16
      vertex 4 26.9 16
      vertex 4 33.1 16
    endloop
  endfacet
  facet normal 0.707107 0 0.707107
    outer loop
      vertex 4 37 16
      vertex 4 33.1 16
      vertex 7.9 33.1 12.1
    endloop
  endfacet
  facet normal 0.707107 0 0.707107
    outer loop
      vertex 4 -3 16
      vertex 4 6.9 16
      vertex 4 37 16
    endloop
  endfacet
  facet normal 0.707107 -0.707107 0
    outer loop
      vertex 38 7.85046e-16 0
      vertex 38 7.85046e-16 5
      vertex 33 -5 5
    endloop
  endfacet
  facet normal 0.707107 -0.707107 0
    outer loop
      vertex 33 -5 0
      vertex 38 7.85046e-16 0
      vertex 33 -5 5
    endloop
  endfacet
  facet normal 1 0 0
    outer loop
      vertex 38 7.85046e-16 5
      vertex 38 7.85046e-16 0
      vertex 38 7 0
    endloop
  endfacet
  facet normal 1 0 0
    outer loop
      vertex 38 7 5
      vertex 38 7.85046e-16 5
      vertex 38 7 0
    endloop
  endfacet
  facet normal 0.707107 0.707107 0
    outer loop
      vertex 35 10 5
      vertex 38 7 5
      vertex 38 7 0
    endloop
  endfacet
  facet normal 0.707107 0.707107 0
    outer loop
      vertex 35 10 0
      vertex 35 10 5
      vertex 38 7 0
    endloop
  endfacet
  facet normal 0 1 0
    outer loop
      vertex 8 10 0
      vertex 8 10 5
      vertex 28.3 10 0.6
    endloop
  endfacet
  facet normal 0 1 0
    outer loop
      vertex 8 10 0
      vertex 28.3 10 0.6
      vertex 35 10 0
    endloop
  endfacet
  facet normal 0 1 0
    outer loop
      vertex 30.3 10 5
      vertex 35 10 0
      vertex 30.3 10 0.6
    endloop
  endfacet
  facet normal 0 1 0
    outer loop
      vertex 28.3 10 0.6
      vertex 30.3 10 0.6
      vertex 35 10 0
    endloop
  endfacet
  facet normal 0 1 0
    outer loop
      vertex 35 10 0
      vertex 30.3 10 5
      vertex 35 10 5
    endloop
  endfacet
  facet normal 0 1 0
    outer loop
      vertex 28.3 10 0.6
      vertex 8 10 5
      vertex 28.3 10 5
    endloop
  endfacet
  facet normal 1 0 0
    outer loop
      vertex 8 0.01 12
      vertex 8 0.01 5
      vertex 8 10 5
    endloop
  endfacet
  facet normal 1 0 0
    outer loop
      vertex 8 8.73912 7.16801
      vertex 8 0.01 12
      vertex 8 10 5
    endloop
  endfacet
  facet normal 1 0 0
    outer loop
      vertex 8 10 0
      vertex 8 33 0
      vertex 8 10 5
    endloop
  endfacet
  facet normal 1 0 0
    outer loop
      vertex 8 6.9 10
      vertex 8 6.9 12
      vertex 8 0.01 12
    endloop
  endfacet
  facet normal 1 0 0
    outer loop
      vertex 8 33 0
      vertex 8 33 9.28539
      vertex 8 32.9483 9.04205
    endloop
  endfacet
  facet normal 1 0 0
    outer loop
      vertex 8 26.917 9.67596
      vertex 8 26.917 10
      vertex 8 26.9 10
    endloop
  endfacet
  facet normal 1 0 0
    outer loop
      vertex 8 33 0
      vertex 8 32.9483 9.04205
      vertex 8 32.6847 8.45
    endloop
  endfacet
  facet normal 1 0 0
    outer loop
      vertex 8 33 0
      vertex 8 32.6847 8.45
      vertex 8 32.3037 7.9257
    endloop
  endfacet
  facet normal 1 0 0
    outer loop
      vertex 8 13.083 10
      vertex 8 29.3555 6.96774
      vertex 8 28.7391 7.16801
    endloop
  endfacet
  facet normal 1 0 0
    outer loop
      vertex 8 33 0
      vertex 8 32.3037 7.9257
      vertex 8 31.8221 7.49205
    endloop
  endfacet
  facet normal 1 0 0
    outer loop
      vertex 8 26.9 10
      vertex 8 26.9 12
      vertex 8 13.1 12
    endloop
  endfacet
  facet normal 1 0 0
    outer loop
      vertex 8 33 0
      vertex 8 31.8221 7.49205
      vertex 8 31.2609 7.16801
    endloop
  endfacet
  facet normal 1 0 0
    outer loop
      vertex 8 33 0
      vertex 8 31.2609 7.16801
      vertex 8 30.6445 6.96774
    endloop
  endfacet
  facet normal 1 0 0
    outer loop
      vertex 8 12.3037 7.9257
      vertex 8 11.8221 7.49205
      vertex 8 33 0
    endloop
  endfacet
  facet normal 1 0 0
    outer loop
      vertex 8 33 0
      vertex 8 30.6445 6.96774
      vertex 8 30 6.9
    endloop
  endfacet
  facet normal 1 0 0
    outer loop
      vertex 8 33 0
      vertex 8 30 6.9
      vertex 8 29.3555 6.96774
    endloop
  endfacet
  facet normal 1 0 0
    outer loop
      vertex 8 13.1 12
      vertex 8 27.0517 9.04205
      vertex 8 26.917 9.67596
    endloop
  endfacet
  facet normal 1 0 0
    outer loop
      vertex 8 13.083 10
      vertex 8 13.083 9.67596
      vertex 8 29.3555 6.96774
    endloop
  endfacet
  facet normal 1 0 0
    outer loop
      vertex 8 13.083 10
      vertex 8 28.7391 7.16801
      vertex 8 28.1779 7.49205
    endloop
  endfacet
  facet normal 1 0 0
    outer loop
      vertex 8 33 0
      vertex 8 29.3555 6.96774
      vertex 8 13.083 9.67596
    endloop
  endfacet
  facet normal 1 0 0
    outer loop
      vertex 8 33 0
      vertex 8 13.083 9.67596
      vertex 8 12.9483 9.04205
    endloop
  endfacet
  facet normal 1 0 0
    outer loop
      vertex 8 33 0
      vertex 8 12.9483 9.04205
      vertex 8 12.6847 8.45
    endloop
  endfacet
  facet normal 1 0 0
    outer loop
      vertex 8 33 0
      vertex 8 12.6847 8.45
      vertex 8 12.3037 7.9257
    endloop
  endfacet
  facet normal 1 0 0
    outer loop
      vertex 8 33 0
      vertex 8 11.8221 7.49205
      vertex 8 10 5
    endloop
  endfacet
  facet normal 1 0 0
    outer loop
      vertex 8 11.8221 7.49205
      vertex 8 11.2609 7.16801
      vertex 8 10 5
    endloop
  endfacet
  facet normal 1 0 0
    outer loop
      vertex 8 11.2609 7.16801
      vertex 8 10.6445 6.96774
      vertex 8 10 5
    endloop
  endfacet
  facet normal 1 0 0
    outer loop
      vertex 8 7.05173 9.04205
      vertex 8 6.91698 9.67596
      vertex 8 0.01 12
    endloop
  endfacet
  facet normal 1 0 0
    outer loop
      vertex 8 10.6445 6.96774
      vertex 8 10 6.9
      vertex 8 10 5
    endloop
  endfacet
  facet normal 1 0 0
    outer loop
      vertex 8 10 6.9
      vertex 8 9.35547 6.96774
      vertex 8 10 5
    endloop
  endfacet
  facet normal 1 0 0
    outer loop
      vertex 8 9.35547 6.96774
      vertex 8 8.73912 7.16801
      vertex 8 10 5
    endloop
  endfacet
  facet normal 1 0 0
    outer loop
      vertex 8 8.17787 7.49205
      vertex 8 0.01 12
      vertex 8 8.73912 7.16801
    endloop
  endfacet
  facet normal 1 0 0
    outer loop
      vertex 8 7.69625 7.9257
      vertex 8 7.31532 8.45
      vertex 8 0.01 12
    endloop
  endfacet
  facet normal 1 0 0
    outer loop
      vertex 8 6.91698 9.67596
      vertex 8 6.91698 10
      vertex 8 6.9 10
    endloop
  endfacet
  facet normal 1 0 0
    outer loop
      vertex 8 6.91698 9.67596
      vertex 8 6.9 10
      vertex 8 0.01 12
    endloop
  endfacet
  facet normal 1 0 0
    outer loop
      vertex 8 8.17787 7.49205
      vertex 8 7.69625 7.9257
      vertex 8 0.01 12
    endloop
  endfacet
  facet normal 1 0 0
    outer loop
      vertex 8 7.31532 8.45
      vertex 8 7.05173 9.04205
      vertex 8 0.01 12
    endloop
  endfacet
  facet normal 1 0 0
    outer loop
      vertex 8 13.1 12
      vertex 8 26.917 9.67596
      vertex 8 26.9 10
    endloop
  endfacet
  facet normal 1 0 0
    outer loop
      vertex 8 28.1779 7.49205
      vertex 8 13.1 10
      vertex 8 13.083 10
    endloop
  endfacet
  facet normal 1 0 0
    outer loop
      vertex 8 28.1779 7.49205
      vertex 8 27.6963 7.9257
      vertex 8 13.1 10
    endloop
  endfacet
  facet normal 1 0 0
    outer loop
      vertex 8 13.1 12
      vertex 8 27.3153 8.45
      vertex 8 27.0517 9.04205
    endloop
  endfacet
  facet normal 1 0 0
    outer loop
      vertex 8 13.1 12
      vertex 8 27.6963 7.9257
      vertex 8 27.3153 8.45
    endloop
  endfacet
  facet normal 1 0 0
    outer loop
      vertex 8 13.1 12
      vertex 8 13.1 10
      vertex 8 27.6963 7.9257
    endloop
  endfacet
  facet normal 0.707107 0.707107 0
    outer loop
      vertex 1 40 16
      vertex 4 37 16
      vertex 7.9 33.1 12.1
    endloop
  endfacet
  facet normal 0.707107 0.707107 0
    outer loop
      vertex 7.91698 33.083 9.67596
      vertex 1 40 16
      vertex 7.9 33.1 10
    endloop
  endfacet
  facet normal 0.707107 0.707107 0
    outer loop
      vertex 7.9 33.1 10
      vertex 1 40 16
      vertex 7.9 33.1 12.1
    endloop
  endfacet
  facet normal 0.707107 0.707107 0
    outer loop
      vertex 7.91698 33.083 9.67596
      vertex 7.9 33.1 10
      vertex 7.91698 33.083 10
    endloop
  endfacet
  facet normal 0.707107 0.707107 0
    outer loop
      vertex 8 33 9.28539
      vertex 1 40 16
      vertex 7.91698 33.083 9.67596
    endloop
  endfacet
  facet normal 0.707107 0.707107 0
    outer loop
      vertex 8 33 0
      vertex 1 40 16
      vertex 8 33 9.28539
    endloop
  endfacet
  facet normal 0.707107 0.707107 0
    outer loop
      vertex 1 40 0
      vertex 1 40 16
      vertex 8 33 0
    endloop
  endfacet
  facet normal 0.913546 -0.406736 0
    outer loop
      vertex 25.983 6.60992 0
      vertex 25.983 6.60992 5
      vertex 25.2896 5.05244 5
    endloop
  endfacet
  facet normal 0.913546 -0.406736 0
    outer loop
      vertex 25.2896 5.05244 0
      vertex 25.983 6.60992 0
      vertex 25.2896 5.05244 5
    endloop
  endfacet
  facet normal 1 0 0
    outer loop
      vertex 25.2896 5.05244 0
      vertex 25.2896 5.05244 5
      vertex 25.2896 3.34756 5
    endloop
  endfacet
  facet normal 1 0 0
    outer loop
      vertex 25.2896 3.34756 0
      vertex 25.2896 5.05244 0
      vertex 25.2896 3.34756 5
    endloop
  endfacet
  facet normal 0.66913 -0.743145 0
    outer loop
      vertex 27.25 7.7507 0
      vertex 27.25 7.7507 5
      vertex 25.983 6.60992 5
    endloop
  endfacet
  facet normal 0.66913 -0.743145 0
    outer loop
      vertex 25.983 6.60992 0
      vertex 27.25 7.7507 0
      vertex 25.983 6.60992 5
    endloop
  endfacet
  facet normal 0.309017 -0.951056 0
    outer loop
      vertex 28.8714 8.27754 0
      vertex 28.8714 8.27754 0.6
      vertex 28.3 8.09187 0.6
    endloop
  endfacet
  facet normal 0.309017 -0.951056 0
    outer loop
      vertex 27.25 7.7507 0
      vertex 28.8714 8.27754 0
      vertex 28.3 8.09187 0.6
    endloop
  endfacet
  facet normal 0.309017 -0.951056 0
    outer loop
      vertex 28.3 8.09187 5
      vertex 27.25 7.7507 5
      vertex 28.3 8.09187 0.6
    endloop
  endfacet
  facet normal 0.309017 -0.951056 0
    outer loop
      vertex 27.25 7.7507 5
      vertex 27.25 7.7507 0
      vertex 28.3 8.09187 0.6
    endloop
  endfacet
  facet normal -0.104528 -0.994522 0
    outer loop
      vertex 30.567 8.09933 0
      vertex 30.567 8.09933 5
      vertex 30.3 8.12739 5
    endloop
  endfacet
  facet normal -0.104528 -0.994522 0
    outer loop
      vertex 28.8714 8.27754 0.6
      vertex 30.567 8.09933 0
      vertex 30.3 8.12739 0.6
    endloop
  endfacet
  facet normal -0.104528 -0.994522 0
    outer loop
      vertex 30.3 8.12739 0.6
      vertex 30.567 8.09933 0
      vertex 30.3 8.12739 5
    endloop
  endfacet
  facet normal -0.104528 -0.994522 0
    outer loop
      vertex 28.8714 8.27754 0
      vertex 30.567 8.09933 0
      vertex 28.8714 8.27754 0.6
    endloop
  endfacet
  facet normal -0.5 -0.866025 0
    outer loop
      vertex 32.0434 7.24689 0
      vertex 32.0434 7.24689 5
      vertex 30.567 8.09933 5
    endloop
  endfacet
  facet normal -0.5 -0.866025 0
    outer loop
      vertex 30.567 8.09933 0
      vertex 32.0434 7.24689 0
      vertex 30.567 8.09933 5
    endloop
  endfacet
  facet normal -0.809017 -0.587785 0
    outer loop
      vertex 33.0455 5.86762 5
      vertex 32.0434 7.24689 5
      vertex 33.0455 5.86762 0
    endloop
  endfacet
  facet normal -0.809017 -0.587785 0
    outer loop
      vertex 33.0455 5.86762 0
      vertex 32.0434 7.24689 5
      vertex 32.0434 7.24689 0
    endloop
  endfacet
  facet normal -0.978148 -0.207912 0
    outer loop
      vertex 33.4 4.2 5
      vertex 33.0455 5.86762 5
      vertex 33.4 4.2 0
    endloop
  endfacet
  facet normal -0.978148 -0.207912 0
    outer loop
      vertex 33.4 4.2 0
      vertex 33.0455 5.86762 5
      vertex 33.0455 5.86762 0
    endloop
  endfacet
  facet normal -0.978148 0.207912 0
    outer loop
      vertex 33.4 4.2 5
      vertex 33.4 4.2 0
      vertex 33.0455 2.53238 5
    endloop
  endfacet
  facet normal -0.978148 0.207912 0
    outer loop
      vertex 33.0455 2.53238 5
      vertex 33.4 4.2 0
      vertex 33.0455 2.53238 0
    endloop
  endfacet
  facet normal -0.809017 0.587785 0
    outer loop
      vertex 33.0455 2.53238 5
      vertex 33.0455 2.53238 0
      vertex 32.0434 1.15311 5
    endloop
  endfacet
  facet normal -0.809017 0.587785 0
    outer loop
      vertex 32.0434 1.15311 5
      vertex 33.0455 2.53238 0
      vertex 32.0434 1.15311 0
    endloop
  endfacet
  facet normal -0.5 0.866025 0
    outer loop
      vertex 32.0434 1.15311 5
      vertex 32.0434 1.15311 0
      vertex 30.567 0.300668 5
    endloop
  endfacet
  facet normal -0.5 0.866025 0
    outer loop
      vertex 30.567 0.300668 5
      vertex 32.0434 1.15311 0
      vertex 30.567 0.300668 0
    endloop
  endfacet
  facet normal -0.104528 0.994522 0
    outer loop
      vertex 30.567 0.300668 5
      vertex 30.567 0.300668 0
      vertex 28.8714 0.12246 5
    endloop
  endfacet
  facet normal -0.104528 0.994522 0
    outer loop
      vertex 28.8714 0.12246 5
      vertex 30.567 0.300668 0
      vertex 28.8714 0.12246 0
    endloop
  endfacet
  facet normal 0.309017 0.951056 0
    outer loop
      vertex 28.8714 0.12246 5
      vertex 28.8714 0.12246 0
      vertex 27.25 0.649296 5
    endloop
  endfacet
  facet normal 0.309017 0.951056 0
    outer loop
      vertex 27.25 0.649296 5
      vertex 28.8714 0.12246 0
      vertex 27.25 0.649296 0
    endloop
  endfacet
  facet normal 0.66913 0.743145 0
    outer loop
      vertex 27.25 0.649296 5
      vertex 27.25 0.649296 0
      vertex 25.983 1.79008 5
    endloop
  endfacet
  facet normal 0.66913 0.743145 0
    outer loop
      vertex 25.983 1.79008 5
      vertex 27.25 0.649296 0
      vertex 25.983 1.79008 0
    endloop
  endfacet
  facet normal 0.913546 0.406736 0
    outer loop
      vertex 25.2896 3.34756 5
      vertex 25.983 1.79008 5
      vertex 25.983 1.79008 0
    endloop
  endfacet
  facet normal 0.913546 0.406736 0
    outer loop
      vertex 25.2896 3.34756 0
      vertex 25.2896 3.34756 5
      vertex 25.983 1.79008 0
    endloop
  endfacet
  facet normal 1 0 2.22045e-16
    outer loop
      vertex 4 9.35547 13.0323
      vertex 4 8.73912 12.832
      vertex 4 8.17787 12.508
    endloop
  endfacet
  facet normal 1 0 2.22045e-16
    outer loop
      vertex 4 7.31532 11.55
      vertex 4 9.35547 13.0323
      vertex 4 7.69625 12.0743
    endloop
  endfacet
  facet normal 1 0 2.22045e-16
    outer loop
      vertex 4 7.69625 12.0743
      vertex 4 9.35547 13.0323
      vertex 4 8.17787 12.508
    endloop
  endfacet
  facet normal 1 0 2.22045e-16
    outer loop
      vertex 4 7.05173 10.958
      vertex 4 9.35547 13.0323
      vertex 4 7.31532 11.55
    endloop
  endfacet
  facet normal 1 0 2.22045e-16
    outer loop
      vertex 4 6.91698 10.324
      vertex 4 9.35547 13.0323
      vertex 4 7.05173 10.958
    endloop
  endfacet
  facet normal 1 0 2.22045e-16
    outer loop
      vertex 4 6.91698 10
      vertex 4 9.35547 13.0323
      vertex 4 6.91698 10.324
    endloop
  endfacet
  facet normal 1 0 2.22045e-16
    outer loop
      vertex 4 6.91698 9.67596
      vertex 4 9.35547 13.0323
      vertex 4 6.91698 10
    endloop
  endfacet
  facet normal 1 0 2.22045e-16
    outer loop
      vertex 4 7.05173 9.04205
      vertex 4 9.35547 13.0323
      vertex 4 6.91698 9.67596
    endloop
  endfacet
  facet normal 1 0 2.22045e-16
    outer loop
      vertex 4 7.31532 8.45
      vertex 4 9.35547 13.0323
      vertex 4 7.05173 9.04205
    endloop
  endfacet
  facet normal 1 0 2.22045e-16
    outer loop
      vertex 4 8.2881 10.5562
      vertex 4 9.35547 13.0323
      vertex 4 7.31532 8.45
    endloop
  endfacet
  facet normal 1 0 2.22045e-16
    outer loop
      vertex 4 8.44115 10.9
      vertex 4 8.66234 11.2044
      vertex 4 9.35547 13.0323
    endloop
  endfacet
  facet normal 1 0 2.22045e-16
    outer loop
      vertex 4 8.2881 9.44377
      vertex 4 8.20986 9.81185
      vertex 4 7.69625 7.9257
    endloop
  endfacet
  facet normal 1 0 2.22045e-16
    outer loop
      vertex 4 8.66234 8.79556
      vertex 4 8.44115 9.1
      vertex 4 8.17787 7.49205
    endloop
  endfacet
  facet normal 1 0 2.22045e-16
    outer loop
      vertex 4 8.94199 8.54377
      vertex 4 8.66234 8.79556
      vertex 4 8.73912 7.16801
    endloop
  endfacet
  facet normal 1 0 2.22045e-16
    outer loop
      vertex 4 9.62576 8.23933
      vertex 4 9.26787 8.35562
      vertex 4 9.35547 6.96774
    endloop
  endfacet
  facet normal 1 0 2.22045e-16
    outer loop
      vertex 4 11.3377 8.79556
      vertex 4 11.058 8.54377
      vertex 4 11.8221 7.49205
    endloop
  endfacet
  facet normal 1 0 2.22045e-16
    outer loop
      vertex 4 11.7119 10.5562
      vertex 4 11.7901 10.1882
      vertex 4 12.9483 9.04205
    endloop
  endfacet
  facet normal 1 0 2.22045e-16
    outer loop
      vertex 4 11.7901 9.81185
      vertex 4 11.7119 9.44377
      vertex 4 12.6847 8.45
    endloop
  endfacet
  facet normal 1 0 2.22045e-16
    outer loop
      vertex 4 13.083 10
      vertex 4 9.35547 13.0323
      vertex 4 13.083 9.67596
    endloop
  endfacet
  facet normal 1 0 2.22045e-16
    outer loop
      vertex 4 13.083 10.324
      vertex 4 9.35547 13.0323
      vertex 4 13.083 10
    endloop
  endfacet
  facet normal 1 0 2.22045e-16
    outer loop
      vertex 4 12.9483 10.958
      vertex 4 9.35547 13.0323
      vertex 4 13.083 10.324
    endloop
  endfacet
  facet normal 1 0 2.22045e-16
    outer loop
      vertex 4 12.6847 11.55
      vertex 4 9.35547 13.0323
      vertex 4 12.9483 10.958
    endloop
  endfacet
  facet normal 1 0 2.22045e-16
    outer loop
      vertex 4 12.3037 12.0743
      vertex 4 9.35547 13.0323
      vertex 4 12.6847 11.55
    endloop
  endfacet
  facet normal 1 0 2.22045e-16
    outer loop
      vertex 4 11.8221 12.508
      vertex 4 9.35547 13.0323
      vertex 4 12.3037 12.0743
    endloop
  endfacet
  facet normal 1 0 2.22045e-16
    outer loop
      vertex 4 11.2609 12.832
      vertex 4 9.35547 13.0323
      vertex 4 11.8221 12.508
    endloop
  endfacet
  facet normal 1 0 2.22045e-16
    outer loop
      vertex 4 10.6445 13.0323
      vertex 4 9.35547 13.0323
      vertex 4 11.2609 12.832
    endloop
  endfacet
  facet normal 1 0 2.22045e-16
    outer loop
      vertex 4 10 13.1
      vertex 4 9.35547 13.0323
      vertex 4 10.6445 13.0323
    endloop
  endfacet
  facet normal 1 0 2.22045e-16
    outer loop
      vertex 4 11.058 8.54377
      vertex 4 10.7321 8.35562
      vertex 4 11.2609 7.16801
    endloop
  endfacet
  facet normal 1 0 2.22045e-16
    outer loop
      vertex 4 8.94199 11.4562
      vertex 4 9.26787 11.6444
      vertex 4 9.35547 13.0323
    endloop
  endfacet
  facet normal 1 0 2.22045e-16
    outer loop
      vertex 4 11.3377 11.2044
      vertex 4 11.5588 10.9
      vertex 4 13.083 9.67596
    endloop
  endfacet
  facet normal 1 0 2.22045e-16
    outer loop
      vertex 4 11.7119 9.44377
      vertex 4 11.5588 9.1
      vertex 4 12.3037 7.9257
    endloop
  endfacet
  facet normal 1 0 2.22045e-16
    outer loop
      vertex 4 11.058 11.4562
      vertex 4 9.35547 13.0323
      vertex 4 10.7321 11.6444
    endloop
  endfacet
  facet normal 1 0 2.22045e-16
    outer loop
      vertex 4 13.083 9.67596
      vertex 4 9.35547 13.0323
      vertex 4 11.058 11.4562
    endloop
  endfacet
  facet normal 1 0 2.22045e-16
    outer loop
      vertex 4 13.083 9.67596
      vertex 4 11.058 11.4562
      vertex 4 11.3377 11.2044
    endloop
  endfacet
  facet normal 1 0 2.22045e-16
    outer loop
      vertex 4 13.083 9.67596
      vertex 4 11.5588 10.9
      vertex 4 12.9483 9.04205
    endloop
  endfacet
  facet normal 1 0 2.22045e-16
    outer loop
      vertex 4 11.5588 10.9
      vertex 4 11.7119 10.5562
      vertex 4 12.9483 9.04205
    endloop
  endfacet
  facet normal 1 0 2.22045e-16
    outer loop
      vertex 4 12.9483 9.04205
      vertex 4 11.7901 10.1882
      vertex 4 12.6847 8.45
    endloop
  endfacet
  facet normal 1 0 2.22045e-16
    outer loop
      vertex 4 11.7901 10.1882
      vertex 4 11.7901 9.81185
      vertex 4 12.6847 8.45
    endloop
  endfacet
  facet normal 1 0 2.22045e-16
    outer loop
      vertex 4 12.6847 8.45
      vertex 4 11.7119 9.44377
      vertex 4 12.3037 7.9257
    endloop
  endfacet
  facet normal 1 0 2.22045e-16
    outer loop
      vertex 4 10.3742 11.7607
      vertex 4 10.7321 11.6444
      vertex 4 9.35547 13.0323
    endloop
  endfacet
  facet normal 1 0 2.22045e-16
    outer loop
      vertex 4 12.3037 7.9257
      vertex 4 11.5588 9.1
      vertex 4 11.8221 7.49205
    endloop
  endfacet
  facet normal 1 0 2.22045e-16
    outer loop
      vertex 4 11.5588 9.1
      vertex 4 11.3377 8.79556
      vertex 4 11.8221 7.49205
    endloop
  endfacet
  facet normal 1 0 2.22045e-16
    outer loop
      vertex 4 11.8221 7.49205
      vertex 4 11.058 8.54377
      vertex 4 11.2609 7.16801
    endloop
  endfacet
  facet normal 1 0 2.22045e-16
    outer loop
      vertex 4 8.66234 11.2044
      vertex 4 8.94199 11.4562
      vertex 4 9.35547 13.0323
    endloop
  endfacet
  facet normal 1 0 2.22045e-16
    outer loop
      vertex 4 11.2609 7.16801
      vertex 4 10.7321 8.35562
      vertex 4 10.6445 6.96774
    endloop
  endfacet
  facet normal 1 0 2.22045e-16
    outer loop
      vertex 4 10 11.8
      vertex 4 10.3742 11.7607
      vertex 4 9.35547 13.0323
    endloop
  endfacet
  facet normal 1 0 2.22045e-16
    outer loop
      vertex 4 10.7321 8.35562
      vertex 4 10.3742 8.23933
      vertex 4 10.6445 6.96774
    endloop
  endfacet
  facet normal 1 0 2.22045e-16
    outer loop
      vertex 4 10.6445 6.96774
      vertex 4 10 8.2
      vertex 4 10 6.9
    endloop
  endfacet
  facet normal 1 0 2.22045e-16
    outer loop
      vertex 4 10 6.9
      vertex 4 9.62576 8.23933
      vertex 4 9.35547 6.96774
    endloop
  endfacet
  facet normal 1 0 2.22045e-16
    outer loop
      vertex 4 9.35547 6.96774
      vertex 4 9.26787 8.35562
      vertex 4 8.73912 7.16801
    endloop
  endfacet
  facet normal 1 0 2.22045e-16
    outer loop
      vertex 4 9.26787 8.35562
      vertex 4 8.94199 8.54377
      vertex 4 8.73912 7.16801
    endloop
  endfacet
  facet normal 1 0 2.22045e-16
    outer loop
      vertex 4 8.73912 7.16801
      vertex 4 8.66234 8.79556
      vertex 4 8.17787 7.49205
    endloop
  endfacet
  facet normal 1 0 2.22045e-16
    outer loop
      vertex 4 8.17787 7.49205
      vertex 4 8.44115 9.1
      vertex 4 7.69625 7.9257
    endloop
  endfacet
  facet normal 1 0 2.22045e-16
    outer loop
      vertex 4 8.44115 9.1
      vertex 4 8.2881 9.44377
      vertex 4 7.69625 7.9257
    endloop
  endfacet
  facet normal 1 0 2.22045e-16
    outer loop
      vertex 4 7.69625 7.9257
      vertex 4 8.20986 9.81185
      vertex 4 7.31532 8.45
    endloop
  endfacet
  facet normal 1 0 2.22045e-16
    outer loop
      vertex 4 8.20986 9.81185
      vertex 4 8.20986 10.1882
      vertex 4 7.31532 8.45
    endloop
  endfacet
  facet normal 1 0 2.22045e-16
    outer loop
      vertex 4 8.20986 10.1882
      vertex 4 8.2881 10.5562
      vertex 4 7.31532 8.45
    endloop
  endfacet
  facet normal 1 0 2.22045e-16
    outer loop
      vertex 4 8.44115 10.9
      vertex 4 9.35547 13.0323
      vertex 4 8.2881 10.5562
    endloop
  endfacet
  facet normal 1 0 2.22045e-16
    outer loop
      vertex 4 9.26787 11.6444
      vertex 4 9.62576 11.7607
      vertex 4 9.35547 13.0323
    endloop
  endfacet
  facet normal 1 0 2.22045e-16
    outer loop
      vertex 4 10.3742 8.23933
      vertex 4 10 8.2
      vertex 4 10.6445 6.96774
    endloop
  endfacet
  facet normal 1 0 2.22045e-16
    outer loop
      vertex 4 10 8.2
      vertex 4 9.62576 8.23933
      vertex 4 10 6.9
    endloop
  endfacet
  facet normal 1 0 2.22045e-16
    outer loop
      vertex 4 9.62576 11.7607
      vertex 4 10 11.8
      vertex 4 9.35547 13.0323
    endloop
  endfacet
  facet normal 1 0 2.22045e-16
    outer loop
      vertex 4 29.3555 13.0323
      vertex 4 28.7391 12.832
      vertex 4 28.1779 12.508
    endloop
  endfacet
  facet normal 1 0 2.22045e-16
    outer loop
      vertex 4 27.3153 11.55
      vertex 4 29.3555 13.0323
      vertex 4 27.6963 12.0743
    endloop
  endfacet
  facet normal 1 0 2.22045e-16
    outer loop
      vertex 4 27.6963 12.0743
      vertex 4 29.3555 13.0323
      vertex 4 28.1779 12.508
    endloop
  endfacet
  facet normal 1 0 2.22045e-16
    outer loop
      vertex 4 27.0517 10.958
      vertex 4 29.3555 13.0323
      vertex 4 27.3153 11.55
    endloop
  endfacet
  facet normal 1 0 2.22045e-16
    outer loop
      vertex 4 26.917 10.324
      vertex 4 29.3555 13.0323
      vertex 4 27.0517 10.958
    endloop
  endfacet
  facet normal 1 0 2.22045e-16
    outer loop
      vertex 4 26.917 10
      vertex 4 29.3555 13.0323
      vertex 4 26.917 10.324
    endloop
  endfacet
  facet normal 1 0 2.22045e-16
    outer loop
      vertex 4 26.917 9.67596
      vertex 4 29.3555 13.0323
      vertex 4 26.917 10
    endloop
  endfacet
  facet normal 1 0 2.22045e-16
    outer loop
      vertex 4 27.0517 9.04205
      vertex 4 29.3555 13.0323
      vertex 4 26.917 9.67596
    endloop
  endfacet
  facet normal 1 0 2.22045e-16
    outer loop
      vertex 4 27.3153 8.45
      vertex 4 29.3555 13.0323
      vertex 4 27.0517 9.04205
    endloop
  endfacet
  facet normal 1 0 2.22045e-16
    outer loop
      vertex 4 28.2881 10.5562
      vertex 4 29.3555 13.0323
      vertex 4 27.3153 8.45
    endloop
  endfacet
  facet normal 1 0 2.22045e-16
    outer loop
      vertex 4 28.4412 10.9
      vertex 4 28.6623 11.2044
      vertex 4 29.3555 13.0323
    endloop
  endfacet
  facet normal 1 0 2.22045e-16
    outer loop
      vertex 4 28.2881 9.44377
      vertex 4 28.2099 9.81185
      vertex 4 27.6963 7.9257
    endloop
  endfacet
  facet normal 1 0 2.22045e-16
    outer loop
      vertex 4 28.6623 8.79556
      vertex 4 28.4412 9.1
      vertex 4 28.1779 7.49205
    endloop
  endfacet
  facet normal 1 0 2.22045e-16
    outer loop
      vertex 4 28.942 8.54377
      vertex 4 28.6623 8.79556
      vertex 4 28.7391 7.16801
    endloop
  endfacet
  facet normal 1 0 2.22045e-16
    outer loop
      vertex 4 29.6258 8.23933
      vertex 4 29.2679 8.35562
      vertex 4 29.3555 6.96774
    endloop
  endfacet
  facet normal 1 0 2.22045e-16
    outer loop
      vertex 4 31.3377 8.79556
      vertex 4 31.058 8.54377
      vertex 4 31.8221 7.49205
    endloop
  endfacet
  facet normal 1 0 2.22045e-16
    outer loop
      vertex 4 31.7119 10.5562
      vertex 4 31.7901 10.1882
      vertex 4 32.9483 9.04205
    endloop
  endfacet
  facet normal 1 0 2.22045e-16
    outer loop
      vertex 4 31.7901 9.81185
      vertex 4 31.7119 9.44377
      vertex 4 32.6847 8.45
    endloop
  endfacet
  facet normal 1 0 2.22045e-16
    outer loop
      vertex 4 33.083 10
      vertex 4 29.3555 13.0323
      vertex 4 33.083 9.67596
    endloop
  endfacet
  facet normal 1 0 2.22045e-16
    outer loop
      vertex 4 33.083 10.324
      vertex 4 29.3555 13.0323
      vertex 4 33.083 10
    endloop
  endfacet
  facet normal 1 0 2.22045e-16
    outer loop
      vertex 4 32.9483 10.958
      vertex 4 29.3555 13.0323
      vertex 4 33.083 10.324
    endloop
  endfacet
  facet normal 1 0 2.22045e-16
    outer loop
      vertex 4 32.6847 11.55
      vertex 4 29.3555 13.0323
      vertex 4 32.9483 10.958
    endloop
  endfacet
  facet normal 1 0 2.22045e-16
    outer loop
      vertex 4 32.3037 12.0743
      vertex 4 29.3555 13.0323
      vertex 4 32.6847 11.55
    endloop
  endfacet
  facet normal 1 0 2.22045e-16
    outer loop
      vertex 4 31.8221 12.508
      vertex 4 29.3555 13.0323
      vertex 4 32.3037 12.0743
    endloop
  endfacet
  facet normal 1 0 2.22045e-16
    outer loop
      vertex 4 31.2609 12.832
      vertex 4 29.3555 13.0323
      vertex 4 31.8221 12.508
    endloop
  endfacet
  facet normal 1 0 2.22045e-16
    outer loop
      vertex 4 30.6445 13.0323
      vertex 4 29.3555 13.0323
      vertex 4 31.2609 12.832
    endloop
  endfacet
  facet normal 1 0 2.22045e-16
    outer loop
      vertex 4 30 13.1
      vertex 4 29.3555 13.0323
      vertex 4 30.6445 13.0323
    endloop
  endfacet
  facet normal 1 0 2.22045e-16
    outer loop
      vertex 4 31.058 8.54377
      vertex 4 30.7321 8.35562
      vertex 4 31.2609 7.16801
    endloop
  endfacet
  facet normal 1 0 2.22045e-16
    outer loop
      vertex 4 28.942 11.4562
      vertex 4 29.2679 11.6444
      vertex 4 29.3555 13.0323
    endloop
  endfacet
  facet normal 1 0 2.22045e-16
    outer loop
      vertex 4 31.3377 11.2044
      vertex 4 31.5588 10.9
      vertex 4 33.083 9.67596
    endloop
  endfacet
  facet normal 1 0 2.22045e-16
    outer loop
      vertex 4 31.7119 9.44377
      vertex 4 31.5588 9.1
      vertex 4 32.3037 7.9257
    endloop
  endfacet
  facet normal 1 0 2.22045e-16
    outer loop
      vertex 4 31.058 11.4562
      vertex 4 29.3555 13.0323
      vertex 4 30.7321 11.6444
    endloop
  endfacet
  facet normal 1 0 2.22045e-16
    outer loop
      vertex 4 33.083 9.67596
      vertex 4 29.3555 13.0323
      vertex 4 31.058 11.4562
    endloop
  endfacet
  facet normal 1 0 2.22045e-16
    outer loop
      vertex 4 33.083 9.67596
      vertex 4 31.058 11.4562
      vertex 4 31.3377 11.2044
    endloop
  endfacet
  facet normal 1 0 2.22045e-16
    outer loop
      vertex 4 33.083 9.67596
      vertex 4 31.5588 10.9
      vertex 4 32.9483 9.04205
    endloop
  endfacet
  facet normal 1 0 2.22045e-16
    outer loop
      vertex 4 31.5588 10.9
      vertex 4 31.7119 10.5562
      vertex 4 32.9483 9.04205
    endloop
  endfacet
  facet normal 1 0 2.22045e-16
    outer loop
      vertex 4 32.9483 9.04205
      vertex 4 31.7901 10.1882
      vertex 4 32.6847 8.45
    endloop
  endfacet
  facet normal 1 0 2.22045e-16
    outer loop
      vertex 4 31.7901 10.1882
      vertex 4 31.7901 9.81185
      vertex 4 32.6847 8.45
    endloop
  endfacet
  facet normal 1 0 2.22045e-16
    outer loop
      vertex 4 32.6847 8.45
      vertex 4 31.7119 9.44377
      vertex 4 32.3037 7.9257
    endloop
  endfacet
  facet normal 1 0 2.22045e-16
    outer loop
      vertex 4 30.3742 11.7607
      vertex 4 30.7321 11.6444
      vertex 4 29.3555 13.0323
    endloop
  endfacet
  facet normal 1 0 2.22045e-16
    outer loop
      vertex 4 32.3037 7.9257
      vertex 4 31.5588 9.1
      vertex 4 31.8221 7.49205
    endloop
  endfacet
  facet normal 1 0 2.22045e-16
    outer loop
      vertex 4 31.5588 9.1
      vertex 4 31.3377 8.79556
      vertex 4 31.8221 7.49205
    endloop
  endfacet
  facet normal 1 0 2.22045e-16
    outer loop
      vertex 4 31.8221 7.49205
      vertex 4 31.058 8.54377
      vertex 4 31.2609 7.16801
    endloop
  endfacet
  facet normal 1 0 2.22045e-16
    outer loop
      vertex 4 28.6623 11.2044
      vertex 4 28.942 11.4562
      vertex 4 29.3555 13.0323
    endloop
  endfacet
  facet normal 1 0 2.22045e-16
    outer loop
      vertex 4 31.2609 7.16801
      vertex 4 30.7321 8.35562
      vertex 4 30.6445 6.96774
    endloop
  endfacet
  facet normal 1 0 2.22045e-16
    outer loop
      vertex 4 30 11.8
      vertex 4 30.3742 11.7607
      vertex 4 29.3555 13.0323
    endloop
  endfacet
  facet normal 1 0 2.22045e-16
    outer loop
      vertex 4 30.7321 8.35562
      vertex 4 30.3742 8.23933
      vertex 4 30.6445 6.96774
    endloop
  endfacet
  facet normal 1 0 2.22045e-16
    outer loop
      vertex 4 30.6445 6.96774
      vertex 4 30 8.2
      vertex 4 30 6.9
    endloop
  endfacet
  facet normal 1 0 2.22045e-16
    outer loop
      vertex 4 30 6.9
      vertex 4 29.6258 8.23933
      vertex 4 29.3555 6.96774
    endloop
  endfacet
  facet normal 1 0 2.22045e-16
    outer loop
      vertex 4 29.3555 6.96774
      vertex 4 29.2679 8.35562
      vertex 4 28.7391 7.16801
    endloop
  endfacet
  facet normal 1 0 2.22045e-16
    outer loop
      vertex 4 29.2679 8.35562
      vertex 4 28.942 8.54377
      vertex 4 28.7391 7.16801
    endloop
  endfacet
  facet normal 1 0 2.22045e-16
    outer loop
      vertex 4 28.7391 7.16801
      vertex 4 28.6623 8.79556
      vertex 4 28.1779 7.49205
    endloop
  endfacet
  facet normal 1 0 2.22045e-16
    outer loop
      vertex 4 28.1779 7.49205
      vertex 4 28.4412 9.1
      vertex 4 27.6963 7.9257
    endloop
  endfacet
  facet normal 1 0 2.22045e-16
    outer loop
      vertex 4 28.4412 9.1
      vertex 4 28.2881 9.44377
      vertex 4 27.6963 7.9257
    endloop
  endfacet
  facet normal 1 0 2.22045e-16
    outer loop
      vertex 4 27.6963 7.9257
      vertex 4 28.2099 9.81185
      vertex 4 27.3153 8.45
    endloop
  endfacet
  facet normal 1 0 2.22045e-16
    outer loop
      vertex 4 28.2099 9.81185
      vertex 4 28.2099 10.1882
      vertex 4 27.3153 8.45
    endloop
  endfacet
  facet normal 1 0 2.22045e-16
    outer loop
      vertex 4 28.2099 10.1882
      vertex 4 28.2881 10.5562
      vertex 4 27.3153 8.45
    endloop
  endfacet
  facet normal 1 0 2.22045e-16
    outer loop
      vertex 4 28.4412 10.9
      vertex 4 29.3555 13.0323
      vertex 4 28.2881 10.5562
    endloop
  endfacet
  facet normal 1 0 2.22045e-16
    outer loop
      vertex 4 29.2679 11.6444
      vertex 4 29.6258 11.7607
      vertex 4 29.3555 13.0323
    endloop
  endfacet
  facet normal 1 0 2.22045e-16
    outer loop
      vertex 4 30.3742 8.23933
      vertex 4 30 8.2
      vertex 4 30.6445 6.96774
    endloop
  endfacet
  facet normal 1 0 2.22045e-16
    outer loop
      vertex 4 30 8.2
      vertex 4 29.6258 8.23933
      vertex 4 30 6.9
    endloop
  endfacet
  facet normal 1 0 2.22045e-16
    outer loop
      vertex 4 29.6258 11.7607
      vertex 4 30 11.8
      vertex 4 29.3555 13.0323
    endloop
  endfacet
  facet normal 0 0 1
    outer loop
      vertex 8 0.01 12
      vertex 8 -5 12
      vertex 23.5 -5 12
    endloop
  endfacet
  facet normal 0 0 1
    outer loop
      vertex 23.5 0.01 12
      vertex 8 0.01 12
      vertex 23.5 -5 12
    endloop
  endfacet
  facet normal 0.707107 0 0.707107
    outer loop
      vertex 30 -5 5.5
      vertex 30 0.01 5.5
      vertex 23.5 0.01 12
    endloop
  endfacet
  facet normal 0.707107 0 0.707107
    outer loop
      vertex 23.5 -5 12
      vertex 30 -5 5.5
      vertex 23.5 0.01 12
    endloop
  endfacet
  facet normal 1 0 0
    outer loop
      vertex 30 -5 5.5
      vertex 30 -5 5
      vertex 30 0.01 5
    endloop
  endfacet
  facet normal 1 0 0
    outer loop
      vertex 30 0.01 5.5
      vertex 30 -5 5.5
      vertex 30 0.01 5
    endloop
  endfacet
  facet normal 0 0 1
    outer loop
      vertex 28.8714 0.12246 5
      vertex 8 0.01 5
      vertex 30 0.01 5
    endloop
  endfacet
  facet normal 0 0 1
    outer loop
      vertex 25.2896 3.34756 5
      vertex 25.2896 5.05244 5
      vertex 8 10 5
    endloop
  endfacet
  facet normal 0 0 1
    outer loop
      vertex 30 -5 5
      vertex 33 -5 5
      vertex 30 0.01 5
    endloop
  endfacet
  facet normal 0 0 1
    outer loop
      vertex 33 -5 5
      vertex 38 7.85046e-16 5
      vertex 30 0.01 5
    endloop
  endfacet
  facet normal 0 0 1
    outer loop
      vertex 25.2896 5.05244 5
      vertex 25.983 6.60992 5
      vertex 8 10 5
    endloop
  endfacet
  facet normal 0 0 1
    outer loop
      vertex 38 7 5
      vertex 35 10 5
      vertex 30.3 10 5
    endloop
  endfacet
  facet normal 0 0 1
    outer loop
      vertex 30.567 8.09933 5
      vertex 30.3 10 5
      vertex 30.3 8.12739 5
    endloop
  endfacet
  facet normal 0 0 1
    outer loop
      vertex 38 7 5
      vertex 30.3 10 5
      vertex 30.567 8.09933 5
    endloop
  endfacet
  facet normal 0 0 1
    outer loop
      vertex 28.3 8.09187 5
      vertex 28.3 10 5
      vertex 8 10 5
    endloop
  endfacet
  facet normal 0 0 1
    outer loop
      vertex 38 7.85046e-16 5
      vertex 38 7 5
      vertex 32.0434 7.24689 5
    endloop
  endfacet
  facet normal 0 0 1
    outer loop
      vertex 27.25 7.7507 5
      vertex 28.3 8.09187 5
      vertex 8 10 5
    endloop
  endfacet
  facet normal 0 0 1
    outer loop
      vertex 38 7.85046e-16 5
      vertex 32.0434 7.24689 5
      vertex 33.0455 5.86762 5
    endloop
  endfacet
  facet normal 0 0 1
    outer loop
      vertex 25.983 6.60992 5
      vertex 27.25 7.7507 5
      vertex 8 10 5
    endloop
  endfacet
  facet normal 0 0 1
    outer loop
      vertex 38 7.85046e-16 5
      vertex 33.0455 5.86762 5
      vertex 33.4 4.2 5
    endloop
  endfacet
  facet normal 0 0 1
    outer loop
      vertex 38 7.85046e-16 5
      vertex 33.4 4.2 5
      vertex 33.0455 2.53238 5
    endloop
  endfacet
  facet normal 0 0 1
    outer loop
      vertex 25.983 1.79008 5
      vertex 25.2896 3.34756 5
      vertex 8 10 5
    endloop
  endfacet
  facet normal 0 0 1
    outer loop
      vertex 38 7.85046e-16 5
      vertex 30.567 0.300668 5
      vertex 30 0.01 5
    endloop
  endfacet
  facet normal 0 0 1
    outer loop
      vertex 38 7.85046e-16 5
      vertex 32.0434 1.15311 5
      vertex 30.567 0.300668 5
    endloop
  endfacet
  facet normal 0 0 1
    outer loop
      vertex 27.25 0.649296 5
      vertex 8 0.01 5
      vertex 28.8714 0.12246 5
    endloop
  endfacet
  facet normal 0 0 1
    outer loop
      vertex 8 10 5
      vertex 8 0.01 5
      vertex 27.25 0.649296 5
    endloop
  endfacet
  facet normal 0 0 1
    outer loop
      vertex 27.25 0.649296 5
      vertex 25.983 1.79008 5
      vertex 8 10 5
    endloop
  endfacet
  facet normal 0 0 1
    outer loop
      vertex 33.0455 2.53238 5
      vertex 32.0434 1.15311 5
      vertex 38 7.85046e-16 5
    endloop
  endfacet
  facet normal 0 0 1
    outer loop
      vertex 30.567 8.09933 5
      vertex 32.0434 7.24689 5
      vertex 38 7 5
    endloop
  endfacet
  facet normal 0 0 1
    outer loop
      vertex 30.567 0.300668 5
      vertex 28.8714 0.12246 5
      vertex 30 0.01 5
    endloop
  endfacet
  facet normal 0 -1 0
    outer loop
      vertex 7.9 33.1 10
      vertex 7.9 33.1 12.1
      vertex 4 33.1 16
    endloop
  endfacet
  facet normal 0 -1 0
    outer loop
      vertex 4 33.1 10
      vertex 7.9 33.1 10
      vertex 4 33.1 16
    endloop
  endfacet
  facet normal 1 0 0
    outer loop
      vertex 4 26.9 16
      vertex 4 26.917 10.324
      vertex 4 27.0517 10.958
    endloop
  endfacet
  facet normal 1 0 0
    outer loop
      vertex 4 27.6963 12.0743
      vertex 4 26.9 16
      vertex 4 27.3153 11.55
    endloop
  endfacet
  facet normal 1 0 0
    outer loop
      vertex 4 27.3153 11.55
      vertex 4 26.9 16
      vertex 4 27.0517 10.958
    endloop
  endfacet
  facet normal 1 0 0
    outer loop
      vertex 4 26.917 10
      vertex 4 26.917 10.324
      vertex 4 26.9 16
    endloop
  endfacet
  facet normal 1 0 0
    outer loop
      vertex 4 28.1779 12.508
      vertex 4 26.9 16
      vertex 4 27.6963 12.0743
    endloop
  endfacet
  facet normal 1 0 0
    outer loop
      vertex 4 28.7391 12.832
      vertex 4 33.1 16
      vertex 4 28.1779 12.508
    endloop
  endfacet
  facet normal 1 0 0
    outer loop
      vertex 4 29.3555 13.0323
      vertex 4 33.1 16
      vertex 4 28.7391 12.832
    endloop
  endfacet
  facet normal 1 0 0
    outer loop
      vertex 4 30 13.1
      vertex 4 33.1 16
      vertex 4 29.3555 13.0323
    endloop
  endfacet
  facet normal 1 0 0
    outer loop
      vertex 4 30.6445 13.0323
      vertex 4 33.1 16
      vertex 4 30 13.1
    endloop
  endfacet
  facet normal 1 0 0
    outer loop
      vertex 4 31.2609 12.832
      vertex 4 33.1 16
      vertex 4 30.6445 13.0323
    endloop
  endfacet
  facet normal 1 0 0
    outer loop
      vertex 4 31.8221 12.508
      vertex 4 33.1 16
      vertex 4 31.2609 12.832
    endloop
  endfacet
  facet normal 1 0 0
    outer loop
      vertex 4 32.3037 12.0743
      vertex 4 33.1 16
      vertex 4 31.8221 12.508
    endloop
  endfacet
  facet normal 1 0 0
    outer loop
      vertex 4 32.6847 11.55
      vertex 4 33.1 16
      vertex 4 32.3037 12.0743
    endloop
  endfacet
  facet normal 1 0 0
    outer loop
      vertex 4 32.9483 10.958
      vertex 4 33.1 16
      vertex 4 32.6847 11.55
    endloop
  endfacet
  facet normal 1 0 0
    outer loop
      vertex 4 33.083 10.324
      vertex 4 33.1 16
      vertex 4 32.9483 10.958
    endloop
  endfacet
  facet normal 1 0 0
    outer loop
      vertex 4 33.083 10
      vertex 4 33.1 10
      vertex 4 33.083 10.324
    endloop
  endfacet
  facet normal 1 0 0
    outer loop
      vertex 4 33.1 10
      vertex 4 33.1 16
      vertex 4 33.083 10.324
    endloop
  endfacet
  facet normal 1 0 0
    outer loop
      vertex 4 33.1 16
      vertex 4 26.9 16
      vertex 4 28.1779 12.508
    endloop
  endfacet
  facet normal 1 0 0
    outer loop
      vertex 4 26.9 16
      vertex 4 26.9 10
      vertex 4 26.917 10
    endloop
  endfacet
  facet normal 0 1 0
    outer loop
      vertex 8 26.9 12
      vertex 8 26.9 10
      vertex 4 26.9 16
    endloop
  endfacet
  facet normal 0 1 0
    outer loop
      vertex 4 26.9 16
      vertex 8 26.9 10
      vertex 4 26.9 10
    endloop
  endfacet
  facet normal 0 -1 0
    outer loop
      vertex 8 13.1 10
      vertex 8 13.1 12
      vertex 4 13.1 16
    endloop
  endfacet
  facet normal 0 -1 0
    outer loop
      vertex 4 13.1 10
      vertex 8 13.1 10
      vertex 4 13.1 16
    endloop
  endfacet
  facet normal 1 0 0
    outer loop
      vertex 4 6.9 16
      vertex 4 6.91698 10.324
      vertex 4 7.05173 10.958
    endloop
  endfacet
  facet normal 1 0 0
    outer loop
      vertex 4 7.69625 12.0743
      vertex 4 6.9 16
      vertex 4 7.31532 11.55
    endloop
  endfacet
  facet normal 1 0 0
    outer loop
      vertex 4 7.31532 11.55
      vertex 4 6.9 16
      vertex 4 7.05173 10.958
    endloop
  endfacet
  facet normal 1 0 0
    outer loop
      vertex 4 6.91698 10
      vertex 4 6.91698 10.324
      vertex 4 6.9 16
    endloop
  endfacet
  facet normal 1 0 0
    outer loop
      vertex 4 8.17787 12.508
      vertex 4 6.9 16
      vertex 4 7.69625 12.0743
    endloop
  endfacet
  facet normal 1 0 0
    outer loop
      vertex 4 8.73912 12.832
      vertex 4 13.1 16
      vertex 4 8.17787 12.508
    endloop
  endfacet
  facet normal 1 0 0
    outer loop
      vertex 4 9.35547 13.0323
      vertex 4 13.1 16
      vertex 4 8.73912 12.832
    endloop
  endfacet
  facet normal 1 0 0
    outer loop
      vertex 4 10 13.1
      vertex 4 13.1 16
      vertex 4 9.35547 13.0323
    endloop
  endfacet
  facet normal 1 0 0
    outer loop
      vertex 4 10.6445 13.0323
      vertex 4 13.1 16
      vertex 4 10 13.1
    endloop
  endfacet
  facet normal 1 0 0
    outer loop
      vertex 4 11.2609 12.832
      vertex 4 13.1 16
      vertex 4 10.6445 13.0323
    endloop
  endfacet
  facet normal 1 0 0
    outer loop
      vertex 4 11.8221 12.508
      vertex 4 13.1 16
      vertex 4 11.2609 12.832
    endloop
  endfacet
  facet normal 1 0 0
    outer loop
      vertex 4 12.3037 12.0743
      vertex 4 13.1 16
      vertex 4 11.8221 12.508
    endloop
  endfacet
  facet normal 1 0 0
    outer loop
      vertex 4 12.6847 11.55
      vertex 4 13.1 16
      vertex 4 12.3037 12.0743
    endloop
  endfacet
  facet normal 1 0 0
    outer loop
      vertex 4 12.9483 10.958
      vertex 4 13.1 16
      vertex 4 12.6847 11.55
    endloop
  endfacet
  facet normal 1 0 0
    outer loop
      vertex 4 13.083 10.324
      vertex 4 13.1 16
      vertex 4 12.9483 10.958
    endloop
  endfacet
  facet normal 1 0 0
    outer loop
      vertex 4 13.083 10
      vertex 4 13.1 10
      vertex 4 13.083 10.324
    endloop
  endfacet
  facet normal 1 0 0
    outer loop
      vertex 4 13.1 10
      vertex 4 13.1 16
      vertex 4 13.083 10.324
    endloop
  endfacet
  facet normal 1 0 0
    outer loop
      vertex 4 13.1 16
      vertex 4 6.9 16
      vertex 4 8.17787 12.508
    endloop
  endfacet
  facet normal 1 0 0
    outer loop
      vertex 4 6.9 16
      vertex 4 6.9 10
      vertex 4 6.91698 10
    endloop
  endfacet
  facet normal 0 1 0
    outer loop
      vertex 8 6.9 12
      vertex 8 6.9 10
      vertex 4 6.9 16
    endloop
  endfacet
  facet normal 0 1 0
    outer loop
      vertex 4 6.9 16
      vertex 8 6.9 10
      vertex 4 6.9 10
    endloop
  endfacet
  facet normal 0 1 0
    outer loop
      vertex 8 0.01 5
      vertex 8 0.01 12
      vertex 30 0.01 5
    endloop
  endfacet
  facet normal 0 1 0
    outer loop
      vertex 30 0.01 5
      vertex 8 0.01 12
      vertex 23.5 0.01 12
    endloop
  endfacet
  facet normal 0 1 0
    outer loop
      vertex 30 0.01 5
      vertex 23.5 0.01 12
      vertex 30 0.01 5.5
    endloop
  endfacet
  facet normal -1 0 0
    outer loop
      vertex 30.3 10 5
      vertex 30.3 10 0.6
      vertex 30.3 8.12739 5
    endloop
  endfacet
  facet normal -1 0 0
    outer loop
      vertex 30.3 8.12739 5
      vertex 30.3 10 0.6
      vertex 30.3 8.12739 0.6
    endloop
  endfacet
  facet normal 0 0 1
    outer loop
      vertex 28.8714 8.27754 0.6
      vertex 30.3 8.12739 0.6
      vertex 30.3 10 0.6
    endloop
  endfacet
  facet normal 0 0 1
    outer loop
      vertex 28.3 8.09187 0.6
      vertex 28.8714 8.27754 0.6
      vertex 28.3 10 0.6
    endloop
  endfacet
  facet normal 0 0 1
    outer loop
      vertex 28.3 10 0.6
      vertex 28.8714 8.27754 0.6
      vertex 30.3 10 0.6
    endloop
  endfacet
  facet normal 1 0 0
    outer loop
      vertex 28.3 10 0.6
      vertex 28.3 10 5
      vertex 28.3 8.09187 5
    endloop
  endfacet
  facet normal 1 0 0
    outer loop
      vertex 28.3 8.09187 0.6
      vertex 28.3 10 0.6
      vertex 28.3 8.09187 5
    endloop
  endfacet
  facet normal 0 0 1
    outer loop
      vertex 8 6.9 10
      vertex 8 6.91698 10
      vertex 4 6.91698 10
    endloop
  endfacet
  facet normal 0 0 1
    outer loop
      vertex 4 6.9 10
      vertex 8 6.9 10
      vertex 4 6.91698 10
    endloop
  endfacet
  facet normal 0 1 0
    outer loop
      vertex 8 6.91698 9.67596
      vertex 4 6.91698 9.67596
      vertex 8 6.91698 10
    endloop
  endfacet
  facet normal 0 1 0
    outer loop
      vertex 8 6.91698 10
      vertex 4 6.91698 9.67596
      vertex 4 6.91698 10
    endloop
  endfacet
  facet normal -4.61657e-17 0.978148 0.207912
    outer loop
      vertex 8 7.05173 9.04205
      vertex 4 7.05173 9.04205
      vertex 8 6.91698 9.67596
    endloop
  endfacet
  facet normal -4.61657e-17 0.978148 0.207912
    outer loop
      vertex 8 6.91698 9.67596
      vertex 4 7.05173 9.04205
      vertex 4 6.91698 9.67596
    endloop
  endfacet
  facet normal -9.03136e-17 0.913546 0.406736
    outer loop
      vertex 8 7.31532 8.45
      vertex 4 7.31532 8.45
      vertex 8 7.05173 9.04205
    endloop
  endfacet
  facet normal -9.03136e-17 0.913546 0.406736
    outer loop
      vertex 8 7.05173 9.04205
      vertex 4 7.31532 8.45
      vertex 4 7.05173 9.04205
    endloop
  endfacet
  facet normal -1.30515e-16 0.809017 0.587785
    outer loop
      vertex 8 7.69625 7.9257
      vertex 4 7.69625 7.9257
      vertex 8 7.31532 8.45
    endloop
  endfacet
  facet normal -1.30515e-16 0.809017 0.587785
    outer loop
      vertex 8 7.31532 8.45
      vertex 4 7.69625 7.9257
      vertex 4 7.31532 8.45
    endloop
  endfacet
  facet normal -1.65011e-16 0.669131 0.743145
    outer loop
      vertex 8 7.69625 7.9257
      vertex 8 8.17787 7.49205
      vertex 4 8.17787 7.49205
    endloop
  endfacet
  facet normal -1.65011e-16 0.669131 0.743145
    outer loop
      vertex 4 7.69625 7.9257
      vertex 8 7.69625 7.9257
      vertex 4 8.17787 7.49205
    endloop
  endfacet
  facet normal -1.92296e-16 0.5 0.866025
    outer loop
      vertex 8 8.17787 7.49205
      vertex 8 8.73912 7.16801
      vertex 4 8.73912 7.16801
    endloop
  endfacet
  facet normal -1.92296e-16 0.5 0.866025
    outer loop
      vertex 4 8.17787 7.49205
      vertex 8 8.17787 7.49205
      vertex 4 8.73912 7.16801
    endloop
  endfacet
  facet normal -2.11177e-16 0.309017 0.951056
    outer loop
      vertex 8 8.73912 7.16801
      vertex 8 9.35547 6.96774
      vertex 4 9.35547 6.96774
    endloop
  endfacet
  facet normal -2.11177e-16 0.309017 0.951056
    outer loop
      vertex 4 8.73912 7.16801
      vertex 8 8.73912 7.16801
      vertex 4 9.35547 6.96774
    endloop
  endfacet
  facet normal -2.20828e-16 0.104528 0.994522
    outer loop
      vertex 8 9.35547 6.96774
      vertex 8 10 6.9
      vertex 4 10 6.9
    endloop
  endfacet
  facet normal -2.20828e-16 0.104528 0.994522
    outer loop
      vertex 4 9.35547 6.96774
      vertex 8 9.35547 6.96774
      vertex 4 10 6.9
    endloop
  endfacet
  facet normal -2.20828e-16 -0.104528 0.994522
    outer loop
      vertex 4 10 6.9
      vertex 8 10 6.9
      vertex 8 10.6445 6.96774
    endloop
  endfacet
  facet normal -2.20828e-16 -0.104528 0.994522
    outer loop
      vertex 4 10.6445 6.96774
      vertex 4 10 6.9
      vertex 8 10.6445 6.96774
    endloop
  endfacet
  facet normal -2.11177e-16 -0.309017 0.951056
    outer loop
      vertex 4 10.6445 6.96774
      vertex 8 10.6445 6.96774
      vertex 8 11.2609 7.16801
    endloop
  endfacet
  facet normal -2.11177e-16 -0.309017 0.951056
    outer loop
      vertex 4 11.2609 7.16801
      vertex 4 10.6445 6.96774
      vertex 8 11.2609 7.16801
    endloop
  endfacet
  facet normal -1.92296e-16 -0.5 0.866025
    outer loop
      vertex 4 11.2609 7.16801
      vertex 8 11.2609 7.16801
      vertex 8 11.8221 7.49205
    endloop
  endfacet
  facet normal -1.92296e-16 -0.5 0.866025
    outer loop
      vertex 4 11.8221 7.49205
      vertex 4 11.2609 7.16801
      vertex 8 11.8221 7.49205
    endloop
  endfacet
  facet normal -1.65011e-16 -0.669131 0.743145
    outer loop
      vertex 4 11.8221 7.49205
      vertex 8 11.8221 7.49205
      vertex 8 12.3037 7.9257
    endloop
  endfacet
  facet normal -1.65011e-16 -0.669131 0.743145
    outer loop
      vertex 4 12.3037 7.9257
      vertex 4 11.8221 7.49205
      vertex 8 12.3037 7.9257
    endloop
  endfacet
  facet normal -1.30515e-16 -0.809017 0.587785
    outer loop
      vertex 4 12.3037 7.9257
      vertex 8 12.3037 7.9257
      vertex 8 12.6847 8.45
    endloop
  endfacet
  facet normal -1.30515e-16 -0.809017 0.587785
    outer loop
      vertex 4 12.6847 8.45
      vertex 4 12.3037 7.9257
      vertex 8 12.6847 8.45
    endloop
  endfacet
  facet normal -9.03136e-17 -0.913546 0.406736
    outer loop
      vertex 4 12.6847 8.45
      vertex 8 12.6847 8.45
      vertex 8 12.9483 9.04205
    endloop
  endfacet
  facet normal -9.03136e-17 -0.913546 0.406736
    outer loop
      vertex 4 12.9483 9.04205
      vertex 4 12.6847 8.45
      vertex 8 12.9483 9.04205
    endloop
  endfacet
  facet normal -4.61657e-17 -0.978148 0.207912
    outer loop
      vertex 4 12.9483 9.04205
      vertex 8 12.9483 9.04205
      vertex 8 13.083 9.67596
    endloop
  endfacet
  facet normal -4.61657e-17 -0.978148 0.207912
    outer loop
      vertex 4 13.083 9.67596
      vertex 4 12.9483 9.04205
      vertex 8 13.083 9.67596
    endloop
  endfacet
  facet normal 0 -1 0
    outer loop
      vertex 4 13.083 9.67596
      vertex 8 13.083 9.67596
      vertex 8 13.083 10
    endloop
  endfacet
  facet normal 0 -1 0
    outer loop
      vertex 4 13.083 10
      vertex 4 13.083 9.67596
      vertex 8 13.083 10
    endloop
  endfacet
  facet normal 0 0 1
    outer loop
      vertex 8 13.083 10
      vertex 8 13.1 10
      vertex 4 13.1 10
    endloop
  endfacet
  facet normal 0 0 1
    outer loop
      vertex 4 13.083 10
      vertex 8 13.083 10
      vertex 4 13.1 10
    endloop
  endfacet
  facet normal 0 0 1
    outer loop
      vertex 8 26.9 10
      vertex 8 26.917 10
      vertex 4 26.917 10
    endloop
  endfacet
  facet normal 0 0 1
    outer loop
      vertex 4 26.9 10
      vertex 8 26.9 10
      vertex 4 26.917 10
    endloop
  endfacet
  facet normal 0 1 0
    outer loop
      vertex 8 26.917 9.67596
      vertex 4 26.917 9.67596
      vertex 8 26.917 10
    endloop
  endfacet
  facet normal 0 1 0
    outer loop
      vertex 8 26.917 10
      vertex 4 26.917 9.67596
      vertex 4 26.917 10
    endloop
  endfacet
  facet normal -4.61657e-17 0.978148 0.207912
    outer loop
      vertex 8 27.0517 9.04205
      vertex 4 27.0517 9.04205
      vertex 8 26.917 9.67596
    endloop
  endfacet
  facet normal -4.61657e-17 0.978148 0.207912
    outer loop
      vertex 8 26.917 9.67596
      vertex 4 27.0517 9.04205
      vertex 4 26.917 9.67596
    endloop
  endfacet
  facet normal -9.03136e-17 0.913546 0.406736
    outer loop
      vertex 8 27.3153 8.45
      vertex 4 27.3153 8.45
      vertex 8 27.0517 9.04205
    endloop
  endfacet
  facet normal -9.03136e-17 0.913546 0.406736
    outer loop
      vertex 8 27.0517 9.04205
      vertex 4 27.3153 8.45
      vertex 4 27.0517 9.04205
    endloop
  endfacet
  facet normal -1.30515e-16 0.809017 0.587785
    outer loop
      vertex 8 27.6963 7.9257
      vertex 4 27.6963 7.9257
      vertex 8 27.3153 8.45
    endloop
  endfacet
  facet normal -1.30515e-16 0.809017 0.587785
    outer loop
      vertex 8 27.3153 8.45
      vertex 4 27.6963 7.9257
      vertex 4 27.3153 8.45
    endloop
  endfacet
  facet normal -1.65011e-16 0.669131 0.743145
    outer loop
      vertex 8 27.6963 7.9257
      vertex 8 28.1779 7.49205
      vertex 4 28.1779 7.49205
    endloop
  endfacet
  facet normal -1.65011e-16 0.669131 0.743145
    outer loop
      vertex 4 27.6963 7.9257
      vertex 8 27.6963 7.9257
      vertex 4 28.1779 7.49205
    endloop
  endfacet
  facet normal -1.92296e-16 0.5 0.866025
    outer loop
      vertex 8 28.1779 7.49205
      vertex 8 28.7391 7.16801
      vertex 4 28.7391 7.16801
    endloop
  endfacet
  facet normal -1.92296e-16 0.5 0.866025
    outer loop
      vertex 4 28.1779 7.49205
      vertex 8 28.1779 7.49205
      vertex 4 28.7391 7.16801
    endloop
  endfacet
  facet normal -2.11177e-16 0.309017 0.951056
    outer loop
      vertex 8 28.7391 7.16801
      vertex 8 29.3555 6.96774
      vertex 4 29.3555 6.96774
    endloop
  endfacet
  facet normal -2.11177e-16 0.309017 0.951056
    outer loop
      vertex 4 28.7391 7.16801
      vertex 8 28.7391 7.16801
      vertex 4 29.3555 6.96774
    endloop
  endfacet
  facet normal -2.20828e-16 0.104528 0.994522
    outer loop
      vertex 8 29.3555 6.96774
      vertex 8 30 6.9
      vertex 4 30 6.9
    endloop
  endfacet
  facet normal -2.20828e-16 0.104528 0.994522
    outer loop
      vertex 4 29.3555 6.96774
      vertex 8 29.3555 6.96774
      vertex 4 30 6.9
    endloop
  endfacet
  facet normal -2.20828e-16 -0.104528 0.994522
    outer loop
      vertex 4 30 6.9
      vertex 8 30 6.9
      vertex 8 30.6445 6.96774
    endloop
  endfacet
  facet normal -2.20828e-16 -0.104528 0.994522
    outer loop
      vertex 4 30.6445 6.96774
      vertex 4 30 6.9
      vertex 8 30.6445 6.96774
    endloop
  endfacet
  facet normal -2.11177e-16 -0.309017 0.951056
    outer loop
      vertex 4 30.6445 6.96774
      vertex 8 30.6445 6.96774
      vertex 8 31.2609 7.16801
    endloop
  endfacet
  facet normal -2.11177e-16 -0.309017 0.951056
    outer loop
      vertex 4 31.2609 7.16801
      vertex 4 30.6445 6.96774
      vertex 8 31.2609 7.16801
    endloop
  endfacet
  facet normal -1.92296e-16 -0.5 0.866025
    outer loop
      vertex 4 31.2609 7.16801
      vertex 8 31.2609 7.16801
      vertex 8 31.8221 7.49205
    endloop
  endfacet
  facet normal -1.92296e-16 -0.5 0.866025
    outer loop
      vertex 4 31.8221 7.49205
      vertex 4 31.2609 7.16801
      vertex 8 31.8221 7.49205
    endloop
  endfacet
  facet normal -1.65011e-16 -0.669131 0.743145
    outer loop
      vertex 4 31.8221 7.49205
      vertex 8 31.8221 7.49205
      vertex 8 32.3037 7.9257
    endloop
  endfacet
  facet normal -1.65011e-16 -0.669131 0.743145
    outer loop
      vertex 4 32.3037 7.9257
      vertex 4 31.8221 7.49205
      vertex 8 32.3037 7.9257
    endloop
  endfacet
  facet normal -1.30515e-16 -0.809017 0.587785
    outer loop
      vertex 4 32.3037 7.9257
      vertex 8 32.3037 7.9257
      vertex 8 32.6847 8.45
    endloop
  endfacet
  facet normal -1.30515e-16 -0.809017 0.587785
    outer loop
      vertex 4 32.6847 8.45
      vertex 4 32.3037 7.9257
      vertex 8 32.6847 8.45
    endloop
  endfacet
  facet normal -9.03136e-17 -0.913546 0.406736
    outer loop
      vertex 4 32.6847 8.45
      vertex 8 32.6847 8.45
      vertex 8 32.9483 9.04205
    endloop
  endfacet
  facet normal -9.03136e-17 -0.913546 0.406736
    outer loop
      vertex 4 32.9483 9.04205
      vertex 4 32.6847 8.45
      vertex 8 32.9483 9.04205
    endloop
  endfacet
  facet normal -4.61657e-17 -0.978148 0.207912
    outer loop
      vertex 4 32.9483 9.04205
      vertex 8 32.9483 9.04205
      vertex 8 33 9.28539
    endloop
  endfacet
  facet normal -4.61657e-17 -0.978148 0.207912
    outer loop
      vertex 4 33.083 9.67596
      vertex 4 32.9483 9.04205
      vertex 7.91698 33.083 9.67596
    endloop
  endfacet
  facet normal -4.61657e-17 -0.978148 0.207912
    outer loop
      vertex 7.91698 33.083 9.67596
      vertex 4 32.9483 9.04205
      vertex 8 33 9.28539
    endloop
  endfacet
  facet normal 0 -1 0
    outer loop
      vertex 4 33.083 9.67596
      vertex 7.91698 33.083 9.67596
      vertex 7.91698 33.083 10
    endloop
  endfacet
  facet normal 0 -1 0
    outer loop
      vertex 4 33.083 10
      vertex 4 33.083 9.67596
      vertex 7.91698 33.083 10
    endloop
  endfacet
  facet normal 0 0 1
    outer loop
      vertex 7.91698 33.083 10
      vertex 7.9 33.1 10
      vertex 4 33.1 10
    endloop
  endfacet
  facet normal 0 0 1
    outer loop
      vertex 4 33.083 10
      vertex 7.91698 33.083 10
      vertex 4 33.1 10
    endloop
  endfacet
endsolid OpenSCAD_Model
